<svg fill="none" height="360" viewBox="0 0 675 360" width="675" xmlns="http://www.w3.org/2000/svg"><rect height="241" stroke="#DBE5F0" width="49" x="55.5" y="59.5"></rect><rect fill="#F6FAFC" height="40" width="507" x="57" y="60"></rect><rect fill="#F6FAFC" height="40" width="507" x="57" y="60"></rect><rect fill="#F6FAFC" height="240" width="47" x="57" y="60"></rect><rect fill="#F6FAFC" height="240" width="47" x="57" y="60"></rect><rect fill="#FFC98A" height="40" opacity="0.25" width="111" x="453" y="260"></rect><rect fill="#FF8A8A" height="40" opacity="0.25" width="111" x="453" y="100"></rect><rect fill="#FF8A8A" height="40" opacity="0.25" width="186" x="105" y="220"></rect><rect height="241" stroke="#DBE5F0" width="187" x="104.5" y="59.5"></rect><rect height="241" stroke="#DBE5F0" width="161" x="291.5" y="59.5"></rect><rect height="241" stroke="#DBE5F0" width="112" x="452.5" y="59.5"></rect><line stroke="#DBE5F0" x1="56" x2="564" y1="99.5" y2="99.5"></line><line stroke="#DBE5F0" x1="56" x2="564" y1="139.5" y2="139.5"></line><line stroke="#DBE5F0" x1="56" x2="564" y1="179.5" y2="179.5"></line><line stroke="#DBE5F0" x1="56" x2="564" y1="219.5" y2="219.5"></line><line stroke="#DBE5F0" x1="56" x2="564" y1="259.5" y2="259.5"></line><rect fill="url(#paint0_radial)" height="360" rx="12" width="675"></rect><defs><radialGradient cx="0" cy="0" gradientTransform="translate(337.5 180) rotate(90) scale(180 337.5)" gradientUnits="userSpaceOnUse" id="paint0_radial" r="1"><stop stop-color="white" stop-opacity="0"></stop><stop offset="1" stop-color="white"></stop></radialGradient></defs></svg>