<svg width="495" height="618" viewBox="0 0 495 618" fill="none" xmlns="http://www.w3.org/2000/svg">
<g filter="url(#filter0_ddd_968_3566)">
<rect x="43" y="38" width="410" height="540" rx="5.90687" fill="white"/>
</g>
<path d="M43 207H453V572.09C453 575.354 450.354 578 447.09 578H48.91C45.646 578 43 575.354 43 572.09V207Z" fill="#F6F8FC"/>
<rect x="80.8117" y="249.812" width="334.377" height="294.377" rx="5.34552" fill="#C4C9FF" fill-opacity="0.5" stroke="#3B2FC9" stroke-width="1.62348" stroke-dasharray="4.33 4.33"/>
<path d="M163.176 444.63V429.107H160.733V434.949C159.825 433.762 158.522 433.11 157.125 433.11C154.216 433.11 152.122 435.391 152.122 439.021C152.122 442.722 154.24 444.909 157.125 444.909C158.568 444.909 159.872 444.211 160.733 443.094V444.63H163.176ZM160.733 441.255C160.174 442.093 158.987 442.745 157.824 442.745C155.892 442.745 154.659 441.186 154.659 439.021C154.659 436.834 155.892 435.274 157.824 435.274C158.987 435.274 160.174 435.949 160.733 436.787V441.255ZM168.786 444.63V436.973C169.275 436.182 170.648 435.484 171.672 435.484C171.974 435.484 172.23 435.507 172.44 435.554V433.133C170.974 433.133 169.624 433.971 168.786 435.042V433.389H166.342V444.63H168.786ZM179.484 444.909C183.091 444.909 185.278 442.233 185.278 438.998C185.278 435.786 183.091 433.11 179.484 433.11C175.923 433.11 173.712 435.786 173.712 438.998C173.712 442.233 175.923 444.909 179.484 444.909ZM179.484 442.745C177.413 442.745 176.249 440.999 176.249 438.998C176.249 437.02 177.413 435.274 179.484 435.274C181.578 435.274 182.742 437.02 182.742 438.998C182.742 440.999 181.578 442.745 179.484 442.745ZM190.195 443.071C191.102 444.281 192.382 444.909 193.802 444.909C196.711 444.909 198.782 442.698 198.782 438.998C198.782 435.298 196.711 433.11 193.802 433.11C192.336 433.11 191.032 433.808 190.195 434.925V433.389H187.751V448.912H190.195V443.071ZM196.245 438.998C196.245 441.186 195.012 442.745 193.08 442.745C191.94 442.745 190.73 442.047 190.195 441.232V436.787C190.73 435.949 191.94 435.274 193.08 435.274C195.012 435.274 196.245 436.834 196.245 438.998ZM206.739 449.028C207.088 449.121 207.763 449.191 208.112 449.191C209.857 449.168 211.207 448.563 211.975 446.655L217.398 433.389H214.768L211.487 441.814L208.205 433.389H205.599L210.207 444.77L209.648 446.049C209.322 446.794 208.81 447.027 208.042 447.027C207.763 447.027 207.367 446.957 207.111 446.841L206.739 449.028ZM224.005 444.909C227.612 444.909 229.8 442.233 229.8 438.998C229.8 435.786 227.612 433.11 224.005 433.11C220.445 433.11 218.234 435.786 218.234 438.998C218.234 442.233 220.445 444.909 224.005 444.909ZM224.005 442.745C221.934 442.745 220.77 440.999 220.77 438.998C220.77 437.02 221.934 435.274 224.005 435.274C226.1 435.274 227.263 437.02 227.263 438.998C227.263 440.999 226.1 442.745 224.005 442.745ZM242.303 444.63V433.389H239.859V441.279C239.277 442.047 238.207 442.745 236.973 442.745C235.6 442.745 234.716 442.21 234.716 440.464V433.389H232.272V441.349C232.272 443.652 233.459 444.909 235.88 444.909C237.648 444.909 239.045 444.048 239.859 443.14V444.63H242.303ZM247.92 444.63V436.973C248.409 436.182 249.782 435.484 250.806 435.484C251.109 435.484 251.365 435.507 251.574 435.554V433.133C250.108 433.133 248.758 433.971 247.92 435.042V433.389H245.477V444.63H247.92ZM267.9 431.528C268.738 431.528 269.412 430.853 269.412 430.015C269.412 429.177 268.738 428.502 267.9 428.502C267.085 428.502 266.387 429.177 266.387 430.015C266.387 430.853 267.085 431.528 267.9 431.528ZM262.547 435.53H264.828V433.389H262.547V432.761C262.547 431.504 263.152 430.876 264.106 430.876C264.525 430.876 264.851 430.969 265.084 431.132L265.619 429.317C265.13 429.038 264.432 428.875 263.664 428.875C261.593 428.875 260.104 430.248 260.104 432.761V433.389H258.242V435.53H260.104V444.63H262.547V435.53ZM269.133 444.63V433.389H266.69V444.63H269.133ZM274.738 444.63V429.107H272.294V444.63H274.738ZM277.209 438.998C277.209 442.559 279.723 444.909 283.097 444.909C284.889 444.909 286.542 444.351 287.659 443.28L286.542 441.674C285.75 442.466 284.447 442.908 283.353 442.908C281.236 442.908 279.956 441.511 279.769 439.813H288.45V439.231C288.45 435.693 286.286 433.11 282.911 433.11C279.583 433.11 277.209 435.74 277.209 438.998ZM282.911 435.112C285.122 435.112 286.03 436.764 286.076 438.09H279.746C279.862 436.717 280.817 435.112 282.911 435.112ZM306.892 444.63V436.671C306.892 434.367 305.682 433.11 303.262 433.11C301.493 433.11 300.027 434.041 299.283 434.925V429.107H296.839V444.63H299.283V436.787C299.864 436.019 300.935 435.274 302.168 435.274C303.541 435.274 304.449 435.81 304.449 437.555V444.63H306.892ZM309.368 438.998C309.368 442.559 311.881 444.909 315.256 444.909C317.047 444.909 318.7 444.351 319.817 443.28L318.7 441.674C317.909 442.466 316.605 442.908 315.512 442.908C313.394 442.908 312.114 441.511 311.928 439.813H320.608V439.231C320.608 435.693 318.444 433.11 315.069 433.11C311.741 433.11 309.368 435.74 309.368 438.998ZM315.069 435.112C317.28 435.112 318.188 436.764 318.234 438.09H311.904C312.021 436.717 312.975 435.112 315.069 435.112ZM325.464 444.63V436.973C325.952 436.182 327.325 435.484 328.349 435.484C328.652 435.484 328.908 435.507 329.117 435.554V433.133C327.651 433.133 326.301 433.971 325.464 435.042V433.389H323.02V444.63H325.464ZM330.39 438.998C330.39 442.559 332.903 444.909 336.278 444.909C338.07 444.909 339.722 444.351 340.839 443.28L339.722 441.674C338.931 442.466 337.627 442.908 336.534 442.908C334.416 442.908 333.136 441.511 332.95 439.813H341.63V439.231C341.63 435.693 339.466 433.11 336.092 433.11C332.764 433.11 330.39 435.74 330.39 438.998ZM336.092 435.112C338.302 435.112 339.21 436.764 339.257 438.09H332.927C333.043 436.717 333.997 435.112 336.092 435.112Z" fill="#3B2FC9"/>
<path opacity="0.3" d="M217.926 369.799C217.926 368.307 219.418 366.814 220.91 366.814C222.403 366.814 223.895 368.307 223.895 369.799C223.895 371.291 223.895 384.722 223.895 384.722C223.895 388.018 226.567 390.691 229.864 390.691H265.679C268.975 390.691 271.648 388.018 271.648 384.722V369.799C271.648 368.151 272.984 366.814 274.633 366.814C276.281 366.814 277.617 368.151 277.617 369.799V384.722C277.617 391.315 272.272 396.66 265.679 396.66H229.864C223.271 396.66 217.926 391.315 217.926 384.722C217.926 384.722 217.926 371.291 217.926 369.799Z" fill="#3B2FC9"/>
<rect opacity="0.3" x="244.787" y="336.969" width="5.96913" height="41.7839" rx="0.762016" fill="#3B2FC9"/>
<path d="M247.88 341.082L234.959 354.002C233.794 355.168 231.904 355.168 230.738 354.002C229.573 352.837 229.573 350.947 230.738 349.781L245.661 334.859C246.784 333.736 248.588 333.689 249.768 334.751L264.691 348.181C265.916 349.284 266.016 351.171 264.913 352.396C263.81 353.621 261.923 353.721 260.698 352.618L247.88 341.082Z" fill="#3B2FC9"/>
<path d="M195.755 75.0974C195.697 75.1566 195.627 75.2035 195.551 75.2354C195.475 75.2674 195.393 75.2838 195.31 75.2837H193.807C193.682 75.2834 193.563 75.2329 193.474 75.1433C193.386 75.0537 193.337 74.9323 193.337 74.8059V70.1401C193.337 70.014 193.387 69.8931 193.475 69.8039C193.563 69.7146 193.683 69.6644 193.807 69.6641H196.562C196.687 69.6644 196.806 69.7146 196.895 69.8039C196.983 69.8931 197.032 70.014 197.033 70.1401V73.5416C197.033 73.7099 196.967 73.8713 196.849 73.9904L196.301 74.5439L195.755 75.0974Z" fill="#8B93A4"/>
<path d="M197.761 72.1113C197.702 72.0522 197.656 71.982 197.625 71.9048C197.593 71.8276 197.577 71.7448 197.577 71.6613V70.1411C197.577 70.0149 197.627 69.894 197.715 69.8048C197.804 69.7156 197.923 69.6654 198.048 69.665H202.664C202.789 69.665 202.908 69.7152 202.996 69.8045C203.085 69.8938 203.134 70.0148 203.134 70.1411V72.928C203.134 72.9905 203.122 73.0524 203.098 73.1101C203.075 73.1679 203.04 73.2204 202.996 73.2646C202.953 73.3088 202.901 73.3439 202.844 73.3678C202.787 73.3917 202.726 73.404 202.664 73.404H199.299C199.217 73.4041 199.135 73.3878 199.059 73.3559C198.983 73.324 198.913 73.2773 198.855 73.2183L198.308 72.6648L197.761 72.1113Z" fill="#8B93A4"/>
<path d="M200.714 74.1697C200.832 74.0506 200.991 73.9835 201.158 73.9834H202.664C202.789 73.9836 202.908 74.0337 202.997 74.123C203.085 74.2122 203.135 74.3332 203.135 74.4595V79.1264C203.135 79.2528 203.085 79.3739 202.997 79.4633C202.908 79.5526 202.789 79.6029 202.664 79.6031H199.907C199.782 79.6029 199.662 79.5526 199.574 79.4633C199.485 79.3739 199.436 79.2528 199.436 79.1264V75.725C199.436 75.5566 199.502 75.3951 199.62 75.2761L200.167 74.7226L200.714 74.1697Z" fill="#8B93A4"/>
<path d="M198.707 77.157C198.825 77.276 198.891 77.4374 198.892 77.6058V79.1272C198.891 79.2537 198.841 79.3748 198.753 79.4641C198.664 79.5534 198.544 79.6034 198.419 79.6032H193.807C193.683 79.6029 193.563 79.5527 193.475 79.4635C193.387 79.3742 193.337 79.2533 193.337 79.1272V76.3403C193.337 76.2141 193.386 76.093 193.475 76.0037C193.563 75.9144 193.683 75.8643 193.807 75.8643H197.17C197.252 75.8642 197.334 75.8805 197.41 75.9124C197.486 75.9442 197.555 75.991 197.613 76.05L198.16 76.6035L198.707 77.157Z" fill="#8B93A4"/>
<path d="M210.522 78.6768V75.0631H214.7V73.7707H210.522V71.6H214.788V70.3076H209.054V78.6768H210.522ZM217.38 78.6768V70.3076H216.062V78.6768H217.38ZM224.108 78.6768V74.6616C224.108 73.0304 222.928 72.4657 221.586 72.4657C220.619 72.4657 219.741 72.7794 219.038 73.4444L219.578 74.3604C220.105 73.846 220.695 73.595 221.372 73.595C222.213 73.595 222.79 74.0216 222.79 74.7243V75.6277C222.351 75.1133 221.648 74.8498 220.833 74.8498C219.841 74.8498 218.725 75.427 218.725 76.8197C218.725 78.1623 219.841 78.8273 220.833 78.8273C221.636 78.8273 222.338 78.5387 222.79 78.0243V78.6768H224.108ZM222.79 77.2965C222.489 77.7106 221.924 77.9239 221.347 77.9239C220.607 77.9239 220.055 77.4973 220.055 76.8448C220.055 76.1798 220.607 75.7532 221.347 75.7532C221.924 75.7532 222.489 75.9665 222.79 76.3806V77.2965ZM227.635 78.8273C228.25 78.8273 228.639 78.6642 228.877 78.4384L228.564 77.4471C228.463 77.56 228.225 77.6604 227.974 77.6604C227.598 77.6604 227.397 77.3593 227.397 76.9452V73.7707H228.626V72.6163H227.397V70.96H226.079V72.6163H225.075V73.7707H226.079V77.2714C226.079 78.2752 226.619 78.8273 227.635 78.8273ZM234.34 71.6125C234.791 71.6125 235.155 71.2486 235.155 70.7969C235.155 70.3452 234.791 69.9813 234.34 69.9813C233.901 69.9813 233.524 70.3452 233.524 70.7969C233.524 71.2486 233.901 71.6125 234.34 71.6125ZM231.454 73.7707H232.683V72.6163H231.454V72.2775C231.454 71.6 231.78 71.2612 232.294 71.2612C232.52 71.2612 232.696 71.3114 232.821 71.3992L233.11 70.4205C232.847 70.2699 232.47 70.1821 232.056 70.1821C230.939 70.1821 230.136 70.9224 230.136 72.2775V72.6163H229.133V73.7707H230.136V78.6768H231.454V73.7707ZM235.005 78.6768V72.6163H233.687V78.6768H235.005ZM238.027 78.6768V70.3076H236.709V78.6768H238.027ZM239.359 75.6403C239.359 77.56 240.714 78.8273 242.534 78.8273C243.5 78.8273 244.391 78.5262 244.993 77.949L244.391 77.0832C243.964 77.5098 243.262 77.7482 242.672 77.7482C241.53 77.7482 240.84 76.9954 240.739 76.0794H245.42V75.7657C245.42 73.8585 244.253 72.4657 242.433 72.4657C240.639 72.4657 239.359 73.8836 239.359 75.6403ZM242.433 73.5448C243.625 73.5448 244.115 74.4357 244.14 75.1509H240.727C240.79 74.4106 241.304 73.5448 242.433 73.5448ZM250.972 77.7608C251.461 78.4384 252.189 78.8273 253.017 78.8273C254.61 78.8273 255.715 77.5977 255.715 75.6403C255.715 73.6703 254.61 72.4657 253.017 72.4657C252.164 72.4657 251.411 72.9049 250.972 73.5197V72.6163H250.031V80.9855H250.972V77.7608ZM254.723 75.6403C254.723 76.9828 253.996 77.9866 252.778 77.9866C252.038 77.9866 251.298 77.5349 250.972 77.0079V74.2726C251.298 73.7456 252.038 73.3064 252.778 73.3064C253.996 73.3064 254.723 74.2977 254.723 75.6403ZM259.883 78.8273C261.728 78.8273 262.882 77.3969 262.882 75.6403C262.882 73.8836 261.728 72.4657 259.883 72.4657C258.039 72.4657 256.884 73.8836 256.884 75.6403C256.884 77.3969 258.039 78.8273 259.883 78.8273ZM259.883 77.9866C258.591 77.9866 257.863 76.8825 257.863 75.6403C257.863 74.4106 258.591 73.3064 259.883 73.3064C261.176 73.3064 261.891 74.4106 261.891 75.6403C261.891 76.8825 261.176 77.9866 259.883 77.9866ZM270.602 78.6768L272.534 72.6163H271.556L270.075 77.4471L268.482 72.6163H267.678L266.085 77.4471L264.604 72.6163H263.626L265.558 78.6768H266.499L268.08 73.8083L269.661 78.6768H270.602ZM273.279 75.6403C273.279 77.5349 274.572 78.8273 276.366 78.8273C277.357 78.8273 278.173 78.5011 278.775 77.8988L278.323 77.284C277.847 77.7733 277.144 78.0494 276.454 78.0494C275.149 78.0494 274.346 77.0958 274.271 75.9539H279.177V75.7155C279.177 73.8962 278.098 72.4657 276.266 72.4657C274.534 72.4657 273.279 73.8836 273.279 75.6403ZM276.253 73.2437C277.633 73.2437 278.236 74.3604 278.248 75.2638H274.271C274.321 74.3353 274.961 73.2437 276.253 73.2437ZM281.642 78.6768V74.3855C281.918 73.8962 282.709 73.4194 283.286 73.4194C283.436 73.4194 283.549 73.4319 283.662 73.457V72.4908C282.834 72.4908 282.131 72.9551 281.642 73.595V72.6163H280.701V78.6768H281.642ZM284.491 75.6403C284.491 77.5349 285.784 78.8273 287.578 78.8273C288.569 78.8273 289.385 78.5011 289.987 77.8988L289.535 77.284C289.059 77.7733 288.356 78.0494 287.666 78.0494C286.361 78.0494 285.558 77.0958 285.483 75.9539H290.389V75.7155C290.389 73.8962 289.309 72.4657 287.478 72.4657C285.746 72.4657 284.491 73.8836 284.491 75.6403ZM287.465 73.2437C288.845 73.2437 289.448 74.3604 289.46 75.2638H285.483C285.533 74.3353 286.173 73.2437 287.465 73.2437ZM297.246 78.6768V70.3076H296.304V73.5323C295.815 72.8673 295.075 72.4657 294.259 72.4657C292.666 72.4657 291.561 73.7205 291.561 75.6528C291.561 77.6228 292.678 78.8273 294.259 78.8273C295.112 78.8273 295.853 78.3882 296.304 77.7733V78.6768H297.246ZM296.304 77.033C295.966 77.56 295.238 77.9866 294.485 77.9866C293.268 77.9866 292.54 76.9954 292.54 75.6528C292.54 74.3102 293.268 73.3064 294.485 73.3064C295.238 73.3064 295.966 73.7581 296.304 74.2851V77.033ZM298.942 78.1121C298.942 78.4885 299.256 78.8022 299.632 78.8022C300.008 78.8022 300.322 78.4885 300.322 78.1121C300.322 77.7357 300.008 77.422 299.632 77.422C299.256 77.422 298.942 77.7357 298.942 78.1121Z" fill="#8B93A4"/>
<path d="M165.766 128.426V112.016H162.888V128.426H165.766ZM186.329 128.426V119.84C186.329 117.429 185.098 116.248 182.909 116.248C181.138 116.248 179.563 117.355 178.874 118.437C178.48 117.133 177.398 116.248 175.627 116.248C173.831 116.248 172.256 117.429 171.764 118.167V116.543H169.181V128.426H171.764V120.135C172.305 119.348 173.363 118.536 174.495 118.536C175.897 118.536 176.463 119.397 176.463 120.676V128.426H179.046V120.11C179.563 119.348 180.645 118.536 181.802 118.536C183.18 118.536 183.745 119.397 183.745 120.676V128.426H186.329ZM192.258 126.777C193.217 128.057 194.571 128.721 196.071 128.721C199.147 128.721 201.336 126.384 201.336 122.472C201.336 118.56 199.147 116.248 196.071 116.248C194.521 116.248 193.144 116.986 192.258 118.167V116.543H189.675V132.953H192.258V126.777ZM198.655 122.472C198.655 124.785 197.351 126.433 195.309 126.433C194.103 126.433 192.824 125.695 192.258 124.834V120.135C192.824 119.249 194.103 118.536 195.309 118.536C197.351 118.536 198.655 120.184 198.655 122.472ZM209.309 128.721C213.123 128.721 215.435 125.892 215.435 122.472C215.435 119.077 213.123 116.248 209.309 116.248C205.545 116.248 203.208 119.077 203.208 122.472C203.208 125.892 205.545 128.721 209.309 128.721ZM209.309 126.433C207.12 126.433 205.89 124.588 205.89 122.472C205.89 120.381 207.12 118.536 209.309 118.536C211.524 118.536 212.754 120.381 212.754 122.472C212.754 124.588 211.524 126.433 209.309 126.433ZM220.632 128.426V120.332C221.149 119.495 222.601 118.757 223.683 118.757C224.003 118.757 224.273 118.782 224.495 118.831V116.272C222.945 116.272 221.518 117.158 220.632 118.29V116.543H218.049V128.426H220.632ZM230.146 128.721C231.351 128.721 232.114 128.401 232.581 127.958L231.966 126.015C231.769 126.236 231.302 126.433 230.81 126.433C230.072 126.433 229.678 125.843 229.678 125.031V118.806H232.089V116.543H229.678V113.295H227.095V116.543H225.127V118.806H227.095V125.67C227.095 127.639 228.153 128.721 230.146 128.721ZM248.577 128.721C252.021 128.721 254.039 126.999 255.293 125.031L252.833 123.776C252.046 125.154 250.471 126.162 248.577 126.162C245.452 126.162 243.041 123.678 243.041 120.233C243.041 116.789 245.452 114.304 248.577 114.304C250.471 114.304 252.046 115.337 252.833 116.69L255.293 115.436C254.063 113.468 252.021 111.745 248.577 111.745C243.853 111.745 240.089 115.19 240.089 120.233C240.089 125.277 243.853 128.721 248.577 128.721ZM262.887 128.721C266.7 128.721 269.013 125.892 269.013 122.472C269.013 119.077 266.7 116.248 262.887 116.248C259.123 116.248 256.785 119.077 256.785 122.472C256.785 125.892 259.123 128.721 262.887 128.721ZM262.887 126.433C260.697 126.433 259.467 124.588 259.467 122.472C259.467 120.381 260.697 118.536 262.887 118.536C265.101 118.536 266.331 120.381 266.331 122.472C266.331 124.588 265.101 126.433 262.887 126.433ZM282.23 128.426V120.061C282.23 117.625 280.951 116.248 278.392 116.248C276.522 116.248 274.997 117.232 274.21 118.167V116.543H271.626V128.426H274.21V120.135C274.8 119.323 275.932 118.536 277.26 118.536C278.712 118.536 279.647 119.151 279.647 120.996V128.426H282.23ZM289.153 128.721C290.358 128.721 291.121 128.401 291.588 127.958L290.973 126.015C290.777 126.236 290.309 126.433 289.817 126.433C289.079 126.433 288.685 125.843 288.685 125.031V118.806H291.096V116.543H288.685V113.295H286.102V116.543H284.134V118.806H286.102V125.67C286.102 127.639 287.16 128.721 289.153 128.721ZM303.283 128.426V120.553C303.283 117.355 300.97 116.248 298.338 116.248C296.443 116.248 294.721 116.863 293.343 118.167L294.401 119.963C295.435 118.954 296.591 118.462 297.919 118.462C299.568 118.462 300.7 119.298 300.7 120.676V122.447C299.838 121.439 298.461 120.922 296.862 120.922C294.918 120.922 292.728 122.054 292.728 124.785C292.728 127.417 294.918 128.721 296.862 128.721C298.436 128.721 299.814 128.155 300.7 127.146V128.426H303.283ZM300.7 125.72C300.109 126.531 299.002 126.95 297.87 126.95C296.419 126.95 295.336 126.113 295.336 124.834C295.336 123.53 296.419 122.693 297.87 122.693C299.002 122.693 300.109 123.112 300.7 123.924V125.72ZM305.894 122.472C305.894 126.089 308.428 128.721 312.045 128.721C314.357 128.721 315.759 127.737 316.596 126.605L314.898 125.031C314.234 125.941 313.324 126.433 312.168 126.433C310.003 126.433 308.576 124.785 308.576 122.472C308.576 120.159 310.003 118.536 312.168 118.536C313.324 118.536 314.234 119.003 314.898 119.938L316.596 118.363C315.759 117.232 314.357 116.248 312.045 116.248C308.428 116.248 305.894 118.88 305.894 122.472ZM322.428 128.721C323.634 128.721 324.397 128.401 324.864 127.958L324.249 126.015C324.052 126.236 323.585 126.433 323.093 126.433C322.355 126.433 321.961 125.843 321.961 125.031V118.806H324.372V116.543H321.961V113.295H319.378V116.543H317.41V118.806H319.378V125.67C319.378 127.639 320.436 128.721 322.428 128.721ZM325.684 126.876C326.914 128.081 328.76 128.721 330.777 128.721C333.975 128.721 335.722 127.122 335.722 125.031C335.722 122.226 333.188 121.636 331.121 121.193C329.719 120.873 328.538 120.553 328.538 119.643C328.538 118.806 329.399 118.314 330.752 118.314C332.228 118.314 333.557 118.929 334.27 119.741L335.353 117.921C334.27 116.961 332.745 116.248 330.728 116.248C327.726 116.248 326.053 117.921 326.053 119.864C326.053 122.521 328.489 123.062 330.531 123.505C331.982 123.825 333.237 124.194 333.237 125.227C333.237 126.113 332.45 126.679 330.9 126.679C329.35 126.679 327.702 125.867 326.865 125.006L325.684 126.876Z" fill="#090B2B"/>
<rect opacity="0.1" x="106.397" y="364.127" width="57.2549" height="6.02089" transform="rotate(-0.108282 106.397 364.127)" fill="url(#paint0_linear_968_3566)"/>
<path opacity="0.06" d="M158.007 344.486C158.031 357.122 130.824 367.417 97.2393 367.48" stroke="url(#paint1_linear_968_3566)" stroke-width="6.02089"/>
<path opacity="0.06" d="M158.093 390.245C158.069 377.609 130.824 367.417 97.2393 367.48" stroke="url(#paint2_linear_968_3566)" stroke-width="6.02089"/>
<path d="M25.4976 397.736C41.3725 428.834 79.4511 441.174 110.549 425.299C141.646 409.424 153.986 371.346 138.111 340.248C122.236 309.151 84.1578 296.811 53.0603 312.685C21.9629 328.56 9.62267 366.639 25.4976 397.736Z" fill="url(#paint3_linear_968_3566)" fill-opacity="0.03"/>
<path d="M41.5853 389.523C52.9245 411.736 80.1236 420.55 102.336 409.211C124.548 397.872 133.363 370.673 122.024 348.46C110.684 326.248 83.4855 317.433 61.273 328.773C39.0606 340.112 30.2461 367.311 41.5853 389.523Z" fill="url(#paint4_linear_968_3566)" fill-opacity="0.15"/>
<path d="M44.6789 387.943C55.1459 408.447 80.2526 416.583 100.756 406.116C121.26 395.649 129.397 370.542 118.93 350.039C108.463 329.535 83.3559 321.398 62.8521 331.865C42.3483 342.332 34.2119 367.439 44.6789 387.943Z" fill="url(#paint5_linear_968_3566)" fill-opacity="0.25"/>
<g filter="url(#filter1_ddi_968_3566)">
<rect opacity="0.1" x="84.7793" y="262.149" width="77.348" height="5.78302" transform="rotate(90 84.7793 262.149)" fill="url(#paint6_linear_968_3566)"/>
<path d="M51.5551 384.436C60.0838 401.143 80.5411 407.773 97.2479 399.244C113.955 390.715 120.584 370.258 112.056 353.551C103.527 336.844 83.0697 330.215 66.3629 338.743C49.6561 347.272 43.0264 367.729 51.5551 384.436Z" fill="#3D3F7A"/>
<g clip-path="url(#clip0_968_3566)">
<path d="M80.2376 362.591C79.9423 362.295 79.7764 361.893 79.776 361.474L79.776 357.685C79.7751 357.529 79.8052 357.373 79.8646 357.228C79.9241 357.084 80.0116 356.952 80.1222 356.841C80.2325 356.73 80.3637 356.643 80.5081 356.583C80.6526 356.523 80.8074 356.493 80.9636 356.494L92.5515 356.494C92.7067 356.494 92.8604 356.525 93.0038 356.584C93.1472 356.644 93.2774 356.731 93.387 356.841C93.4977 356.952 93.5854 357.083 93.645 357.228C93.7047 357.373 93.735 357.528 93.7344 357.685L93.7344 364.626C93.735 364.783 93.7047 364.938 93.645 365.083C93.5854 365.228 93.4977 365.36 93.387 365.47C93.2767 365.581 93.1455 365.669 93.001 365.728C92.8566 365.788 92.7017 365.818 92.5455 365.817L84.1022 365.817C83.8951 365.817 83.6899 365.777 83.4985 365.697C83.3071 365.618 83.1332 365.501 82.9867 365.354L81.6115 363.969L80.2376 362.591Z" fill="white"/>
<path d="M87.6591 367.652C87.9546 367.355 88.3554 367.188 88.7734 367.187L92.5515 367.187C92.7068 367.188 92.8605 367.218 93.0039 367.278C93.1473 367.338 93.2774 367.426 93.387 367.536C93.4977 367.646 93.5855 367.778 93.6451 367.923C93.7048 368.068 93.7351 368.223 93.7344 368.38L93.7344 380.005C93.735 380.162 93.7047 380.317 93.645 380.462C93.5854 380.607 93.4977 380.739 93.387 380.849C93.2767 380.96 93.1455 381.048 93.001 381.107C92.8566 381.167 92.7017 381.197 92.5455 381.196L85.6288 381.196C85.4726 381.197 85.3177 381.167 85.1732 381.108C85.0287 381.048 84.8976 380.96 84.7874 380.849C84.6764 380.739 84.5886 380.607 84.5289 380.462C84.4693 380.317 84.439 380.162 84.44 380.005L84.44 371.533C84.4398 371.325 84.4805 371.12 84.5597 370.928C84.6389 370.736 84.7551 370.561 84.9016 370.415L86.2767 369.035L87.6591 367.652Z" fill="white"/>
<path d="M82.544 375.097C82.6908 375.243 82.8072 375.418 82.8867 375.609C82.9661 375.801 83.0069 376.007 83.0068 376.214L83.0068 380.003C83.0075 380.16 82.9771 380.315 82.9175 380.46C82.8579 380.605 82.7701 380.736 82.6594 380.847C82.5491 380.958 82.4179 381.046 82.2735 381.105C82.129 381.165 81.9742 381.195 81.818 381.194L70.2289 381.194C70.0727 381.195 69.9178 381.165 69.7734 381.105C69.6289 381.046 69.4977 380.958 69.3874 380.847C69.2768 380.736 69.1893 380.605 69.1299 380.46C69.0705 380.315 69.0403 380.16 69.0412 380.003L69.0412 373.062C69.0403 372.905 69.0705 372.75 69.1299 372.605C69.1893 372.461 69.2768 372.329 69.3874 372.218C69.4977 372.107 69.6289 372.02 69.7734 371.96C69.9178 371.9 70.0727 371.87 70.2289 371.871L78.6794 371.871C78.8865 371.871 79.0917 371.912 79.2831 371.991C79.4745 372.071 79.6484 372.187 79.7949 372.334L81.1677 373.713L82.544 375.097Z" fill="white"/>
<path d="M75.1241 370.033C74.9778 370.18 74.8041 370.296 74.6129 370.376C74.4217 370.455 74.2167 370.496 74.0098 370.496L70.2293 370.496C70.0731 370.497 69.9182 370.467 69.7738 370.407C69.6293 370.347 69.4981 370.26 69.3878 370.149C69.2773 370.038 69.1897 369.906 69.1303 369.762C69.0709 369.617 69.0407 369.462 69.0416 369.305L69.0416 357.679C69.0407 357.523 69.0709 357.367 69.1303 357.223C69.1897 357.078 69.2773 356.946 69.3878 356.835C69.4981 356.725 69.6293 356.637 69.7738 356.577C69.9182 356.518 70.0731 356.487 70.2293 356.488L77.1532 356.488C77.3094 356.487 77.4642 356.518 77.6086 356.577C77.7531 356.637 77.8843 356.725 77.9946 356.835C78.1052 356.946 78.1927 357.078 78.2521 357.223C78.3116 357.367 78.3417 357.523 78.3408 357.679L78.3408 366.153C78.3409 366.36 78.3001 366.566 78.2209 366.757C78.1417 366.949 78.0256 367.123 77.8792 367.27L76.504 368.649L75.1241 370.033Z" fill="white"/>
</g>
<path d="M66.7065 254.557C66.7065 263.14 73.503 270.098 81.8869 270.098C90.2709 270.098 97.0674 263.14 97.0674 254.557C97.0674 245.973 90.2709 239.015 81.8869 239.015C73.503 239.015 66.7065 245.973 66.7065 254.557Z" fill="white"/>
<path opacity="0.5" d="M79.808 253.664C78.0355 251.902 78.3269 249.474 79.6766 248.152C80.3577 247.494 81.2642 247.112 82.217 247.082C83.1698 247.052 84.0995 247.375 84.8222 247.988C86.2353 249.205 86.6464 251.444 85.6695 252.734L84.7382 252.198C85.2226 250.314 84.6738 248.998 83.2098 248.464C82.6337 248.249 81.9972 248.253 81.4237 248.474C80.8502 248.696 80.3804 249.119 80.1056 249.663C79.4272 250.984 79.9179 252.347 81.4526 253.334L79.6918 256.166C79.5595 256.378 79.4415 256.6 79.2913 256.799C79.0232 257.152 78.9267 257.473 79.092 257.945C79.3897 258.8 78.7479 259.72 77.8765 259.846C77.6553 259.88 77.4294 259.868 77.2132 259.811C76.997 259.754 76.7952 259.653 76.6208 259.515C76.4464 259.376 76.3033 259.204 76.2004 259.008C76.0976 258.812 76.0374 258.597 76.0236 258.376C75.9521 257.501 76.6493 256.767 77.5609 256.737C77.7111 256.733 77.9247 256.668 77.9953 256.561C78.6085 255.614 79.1966 254.648 79.808 253.664Z" fill="#3B2FC9"/>
<path opacity="0.7" d="M81.4161 258.871C80.6573 261.788 78.2521 262.385 76.6003 261.97C74.684 261.489 73.5069 259.634 73.8447 257.64C74.137 255.921 75.9005 254.423 77.4718 254.584V255.662C75.8933 255.991 74.903 257.168 75.0487 258.54C75.1917 259.898 76.1901 260.831 77.5147 260.841C78.3558 260.848 79.0386 260.518 79.5838 259.892C80.1291 259.267 80.2542 258.542 80.1818 257.689C80.6805 257.689 81.1364 257.689 81.5913 257.689C82.5593 257.681 83.5273 257.666 84.4953 257.661C84.7259 257.661 84.8912 257.629 85.053 257.411C85.2517 257.132 85.5407 256.927 85.8726 256.831C86.2046 256.735 86.5597 256.753 86.88 256.882C87.1839 257.007 87.4418 257.22 87.6187 257.494C87.7956 257.768 87.8831 258.089 87.8694 258.413C87.831 259.072 87.3099 259.705 86.6833 259.853C85.9441 260.03 85.3149 259.757 84.8957 259.102C84.8599 259.046 84.8126 258.998 84.7569 258.96C84.7012 258.923 84.6383 258.898 84.5722 258.886C83.513 258.864 82.4574 258.871 81.4161 258.871Z" fill="#3B2FC9"/>
<path opacity="0.6" d="M83.0324 260.215L84.0299 259.644C84.5706 260.336 85.2401 260.772 86.1312 260.828C86.8064 260.886 87.4786 260.686 88.0082 260.269C88.4731 259.906 88.7926 259.393 88.9099 258.819C89.0272 258.246 88.9348 257.651 88.6491 257.138C88.2495 256.434 87.6283 256.004 86.8311 255.839C86.049 255.675 85.3331 255.886 84.6377 256.319C84.0621 255.271 83.5043 254.259 82.9475 253.246C82.8769 253.117 82.8027 252.989 82.7401 252.856C82.598 252.555 82.438 252.364 82.0305 252.327C81.3369 252.27 80.8337 251.668 80.7344 250.948C80.6567 250.384 81.0482 249.723 81.6282 249.45C81.9299 249.308 82.2691 249.26 82.5991 249.315C82.9292 249.37 83.2339 249.525 83.4713 249.757C83.9584 250.236 84.0853 250.933 83.7394 251.532C83.5937 251.784 83.5973 251.96 83.7394 252.205C84.2149 253.031 84.6645 253.873 85.1382 254.736C86.3323 254.404 87.4621 254.531 88.5069 255.203C89.2776 255.696 89.8371 256.451 90.0782 257.324C90.5949 259.101 89.6564 260.996 87.9045 261.747C87.0415 262.114 86.0731 262.161 85.1777 261.879C84.2823 261.598 83.5203 261.006 83.0324 260.215Z" fill="#3B2FC9"/>
</g>
<defs>
<filter id="filter0_ddd_968_3566" x="-6.826" y="0.6305" width="509.652" height="639.652" filterUnits="userSpaceOnUse" color-interpolation-filters="sRGB">
<feFlood flood-opacity="0" result="BackgroundImageFix"/>
<feColorMatrix in="SourceAlpha" type="matrix" values="0 0 0 0 0 0 0 0 0 0 0 0 0 0 0 0 0 0 127 0" result="hardAlpha"/>
<feOffset dy="8.56384"/>
<feGaussianBlur stdDeviation="5.83898"/>
<feColorMatrix type="matrix" values="0 0 0 0 0 0 0 0 0 0 0 0 0 0 0 0 0 0 0.05 0"/>
<feBlend mode="normal" in2="BackgroundImageFix" result="effect1_dropShadow_968_3566"/>
<feColorMatrix in="SourceAlpha" type="matrix" values="0 0 0 0 0 0 0 0 0 0 0 0 0 0 0 0 0 0 127 0" result="hardAlpha"/>
<feOffset dy="12.4565"/>
<feGaussianBlur stdDeviation="24.913"/>
<feColorMatrix type="matrix" values="0 0 0 0 0 0 0 0 0 0 0 0 0 0 0 0 0 0 0.1 0"/>
<feBlend mode="normal" in2="effect1_dropShadow_968_3566" result="effect2_dropShadow_968_3566"/>
<feColorMatrix in="SourceAlpha" type="matrix" values="0 0 0 0 0 0 0 0 0 0 0 0 0 0 0 0 0 0 127 0" result="hardAlpha"/>
<feOffset dy="18.6847"/>
<feGaussianBlur stdDeviation="14.7921"/>
<feColorMatrix type="matrix" values="0 0 0 0 0 0 0 0 0 0 0 0 0 0 0 0 0 0 0.05 0"/>
<feBlend mode="normal" in2="effect2_dropShadow_968_3566" result="effect3_dropShadow_968_3566"/>
<feBlend mode="normal" in="SourceGraphic" in2="effect3_dropShadow_968_3566" result="shape"/>
</filter>
<filter id="filter1_ddi_968_3566" x="-27.3022" y="210.839" width="218.215" height="314.223" filterUnits="userSpaceOnUse" color-interpolation-filters="sRGB">
<feFlood flood-opacity="0" result="BackgroundImageFix"/>
<feColorMatrix in="SourceAlpha" type="matrix" values="0 0 0 0 0 0 0 0 0 0 0 0 0 0 0 0 0 0 127 0" result="hardAlpha"/>
<feMorphology radius="28.1761" operator="erode" in="SourceAlpha" result="effect1_dropShadow_968_3566"/>
<feOffset dy="28.1761"/>
<feGaussianBlur stdDeviation="28.1761"/>
<feComposite in2="hardAlpha" operator="out"/>
<feColorMatrix type="matrix" values="0 0 0 0 0 0 0 0 0 0 0 0 0 0 0 0 0 0 0.1 0"/>
<feBlend mode="normal" in2="BackgroundImageFix" result="effect1_dropShadow_968_3566"/>
<feColorMatrix in="SourceAlpha" type="matrix" values="0 0 0 0 0 0 0 0 0 0 0 0 0 0 0 0 0 0 127 0" result="hardAlpha"/>
<feMorphology radius="18.7841" operator="erode" in="SourceAlpha" result="effect2_dropShadow_968_3566"/>
<feOffset dy="46.9601"/>
<feGaussianBlur stdDeviation="46.9601"/>
<feComposite in2="hardAlpha" operator="out"/>
<feColorMatrix type="matrix" values="0 0 0 0 0.196078 0 0 0 0 0.196078 0 0 0 0 0.364706 0 0 0 0.25 0"/>
<feBlend mode="normal" in2="effect1_dropShadow_968_3566" result="effect2_dropShadow_968_3566"/>
<feBlend mode="normal" in="SourceGraphic" in2="effect2_dropShadow_968_3566" result="shape"/>
<feColorMatrix in="SourceAlpha" type="matrix" values="0 0 0 0 0 0 0 0 0 0 0 0 0 0 0 0 0 0 127 0" result="hardAlpha"/>
<feOffset dy="0.939203"/>
<feGaussianBlur stdDeviation="0.469601"/>
<feComposite in2="hardAlpha" operator="arithmetic" k2="-1" k3="1"/>
<feColorMatrix type="matrix" values="0 0 0 0 1 0 0 0 0 1 0 0 0 0 1 0 0 0 0.1 0"/>
<feBlend mode="normal" in2="shape" result="effect3_innerShadow_968_3566"/>
</filter>
<linearGradient id="paint0_linear_968_3566" x1="107.173" y1="366.937" x2="161.235" y2="378.368" gradientUnits="userSpaceOnUse">
<stop offset="0.0189935" stop-color="#3B2FC9"/>
<stop offset="0.927083" stop-color="#3B2FC9"/>
<stop offset="1" stop-color="#3B2FC9" stop-opacity="0"/>
</linearGradient>
<linearGradient id="paint1_linear_968_3566" x1="97.2176" y1="356.041" x2="158.029" y2="355.926" gradientUnits="userSpaceOnUse">
<stop offset="0.015625" stop-color="#F6F8FC"/>
<stop offset="0.864583" stop-color="#3B2FC9"/>
<stop offset="1" stop-color="#3B2FC9" stop-opacity="0"/>
</linearGradient>
<linearGradient id="paint2_linear_968_3566" x1="97.2609" y1="378.92" x2="158.072" y2="378.805" gradientUnits="userSpaceOnUse">
<stop offset="0.015625" stop-color="#F6F8FC"/>
<stop offset="0.817708" stop-color="#3B2FC9"/>
<stop offset="1" stop-color="#3B2FC9" stop-opacity="0"/>
</linearGradient>
<linearGradient id="paint3_linear_968_3566" x1="48.3019" y1="315.115" x2="105.79" y2="427.728" gradientUnits="userSpaceOnUse">
<stop stop-color="#3B2FC9"/>
<stop offset="1" stop-color="#C4C9FF"/>
</linearGradient>
<linearGradient id="paint4_linear_968_3566" x1="57.8744" y1="330.508" x2="98.9375" y2="410.946" gradientUnits="userSpaceOnUse">
<stop stop-color="#3B2FC9"/>
<stop offset="1" stop-color="#C4C9FF"/>
</linearGradient>
<linearGradient id="paint5_linear_968_3566" x1="59.715" y1="333.467" x2="97.6194" y2="407.718" gradientUnits="userSpaceOnUse">
<stop offset="0.677083" stop-color="#3B2FC9"/>
<stop offset="1" stop-color="#C4C9FF"/>
</linearGradient>
<linearGradient id="paint6_linear_968_3566" x1="85.8271" y1="264.848" x2="155.927" y2="285.697" gradientUnits="userSpaceOnUse">
<stop offset="0.0189935" stop-color="#3B2FC9"/>
<stop offset="0.927083" stop-color="#3B2FC9"/>
<stop offset="1" stop-color="#3B2FC9" stop-opacity="0"/>
</linearGradient>
<clipPath id="clip0_968_3566">
<rect width="24.6857" height="24.6857" fill="white" transform="translate(93.7334 356.5) rotate(90)"/>
</clipPath>
</defs>
</svg>
