<svg width="153" height="36" viewBox="0 0 153 36" fill="none" xmlns="http://www.w3.org/2000/svg">
<g clip-path="url(#clip0_14_2)">
<path d="M146.865 9.83599H133.476C130.379 9.83599 127.869 12.346 127.869 15.4421V15.4422C127.869 18.5384 130.379 21.0484 133.476 21.0484H146.865C149.961 21.0484 152.471 18.5384 152.471 15.4422V15.4421C152.471 12.346 149.961 9.83599 146.865 9.83599Z" fill="#715BFF"/>
<path d="M2.03873 21.1765V5.99448H4.85825V18.7907H12.7963V21.1765H2.03873ZM14.7365 21.1765V9.59474H17.4476V21.1765H14.7365ZM16.103 7.68616C15.5969 7.68616 15.1775 7.52712 14.845 7.209C14.5269 6.89093 14.3679 6.50774 14.3679 6.05954C14.3679 5.59684 14.5269 5.21366 14.845 4.91002C15.1775 4.59192 15.5969 4.43287 16.103 4.43287C16.609 4.43287 17.0211 4.58469 17.3392 4.88833C17.6718 5.17751 17.838 5.54622 17.838 5.99448C17.838 6.47158 17.679 6.87648 17.3609 7.209C17.0428 7.52712 16.6235 7.68616 16.103 7.68616ZM27.5521 9.46461C28.4775 9.46461 29.3017 9.64535 30.0246 10.0068C30.7621 10.3683 31.3404 10.925 31.7597 11.6769C32.179 12.4143 32.3887 13.3686 32.3887 14.5398V21.1765H29.6776V14.8868C29.6776 13.8602 29.4318 13.0938 28.9402 12.5878C28.4631 12.0817 27.7907 11.8287 26.9232 11.8287C26.287 11.8287 25.7231 11.9588 25.2314 12.2191C24.7398 12.4793 24.3567 12.8697 24.082 13.3903C23.8217 13.8963 23.6916 14.5398 23.6916 15.3205V21.1765H20.9805V9.59474H23.5614V12.7179L23.106 11.7636C23.5109 11.0262 24.0964 10.4623 24.8628 10.0719C25.6435 9.66706 26.54 9.46461 27.5521 9.46461ZM41.2675 21.3283C39.9806 21.3283 38.8528 21.0752 37.8841 20.5692C36.9298 20.0487 36.1851 19.3402 35.6501 18.4437C35.1296 17.5472 34.8693 16.5279 34.8693 15.3856C34.8693 14.2289 35.1224 13.2095 35.6285 12.3275C36.149 11.4311 36.8574 10.7298 37.7539 10.2237C38.6648 9.71767 39.6987 9.46461 40.8554 9.46461C41.9832 9.46461 42.9881 9.71042 43.8701 10.202C44.7521 10.6936 45.4461 11.3877 45.9522 12.2842C46.4583 13.1806 46.7113 14.2361 46.7113 15.4507C46.7113 15.5663 46.7041 15.6965 46.6896 15.8411C46.6896 15.9856 46.6824 16.123 46.6679 16.2532H37.0165V14.453H45.2365L44.1737 15.0169C44.1882 14.3518 44.0508 13.7662 43.7616 13.2601C43.4725 12.7541 43.0748 12.3564 42.5688 12.0673C42.0772 11.7781 41.506 11.6335 40.8554 11.6335C40.1903 11.6335 39.6047 11.7781 39.0986 12.0673C38.607 12.3564 38.2166 12.7613 37.9274 13.2818C37.6527 13.7879 37.5153 14.3879 37.5153 15.082V15.5157C37.5153 16.2098 37.6744 16.8243 37.9925 17.3593C38.3106 17.8943 38.7588 18.3064 39.3372 18.5955C39.9155 18.8847 40.5807 19.0293 41.3326 19.0293C41.9832 19.0293 42.5688 18.9281 43.0893 18.7257C43.6098 18.5232 44.0725 18.2051 44.4774 17.7713L45.9305 19.4414C45.41 20.0487 44.7521 20.5186 43.9568 20.8511C43.1761 21.1692 42.2796 21.3283 41.2675 21.3283ZM54.3653 21.4801C53.1217 21.4801 51.9216 21.3283 50.7649 21.0246C49.6226 20.7066 48.69 20.3017 47.967 19.8101L49.3768 16.6435C50.0564 17.0773 50.8372 17.4388 51.7192 17.728C52.6156 18.0027 53.505 18.1401 54.387 18.1401C54.9799 18.1401 55.4569 18.0895 55.8185 17.9882C56.1796 17.8726 56.4401 17.728 56.5989 17.5545C56.7725 17.3665 56.8593 17.1496 56.8593 16.9038C56.8593 16.5568 56.7005 16.2821 56.3823 16.0797C56.0642 15.8772 55.6523 15.7109 55.1462 15.5808C54.6401 15.4507 54.0762 15.3205 53.4542 15.1904C52.847 15.0603 52.2324 14.894 51.6107 14.6916C51.0035 14.4892 50.4468 14.2289 49.9407 13.9108C49.4346 13.5782 49.0226 13.1517 48.7044 12.6312C48.3864 12.0962 48.2273 11.4238 48.2273 10.6141C48.2273 9.70322 48.4731 8.87903 48.9647 8.14161C49.4708 7.40419 50.2226 6.81141 51.2203 6.36316C52.218 5.91491 53.4616 5.69081 54.9508 5.69081C55.9482 5.69081 56.9245 5.80648 57.879 6.03784C58.8473 6.25474 59.7076 6.58006 60.4599 7.01381L59.1369 10.202C58.4137 9.81164 57.6979 9.52248 56.9896 9.33448C56.2812 9.13209 55.5941 9.03086 54.9291 9.03086C54.3362 9.03086 53.8592 9.09593 53.4976 9.22606C53.136 9.34174 52.8759 9.50077 52.7169 9.70322C52.5578 9.90561 52.4783 10.137 52.4783 10.3972C52.4783 10.7298 52.6301 10.9973 52.9337 11.1997C53.2519 11.3877 53.6638 11.5467 54.1699 11.6769C54.6903 11.7925 55.2542 11.9154 55.8619 12.0455C56.4835 12.1757 57.0981 12.342 57.7053 12.5444C58.3269 12.7324 58.8907 12.9927 59.3968 13.3252C59.9029 13.6433 60.3079 14.0699 60.6113 14.6048C60.9295 15.1253 61.0888 15.7832 61.0888 16.5785C61.0888 17.4605 60.8358 18.2774 60.3296 19.0293C59.8378 19.7667 59.0935 20.3595 58.0955 20.8078C57.1124 21.256 55.8688 21.4801 54.3653 21.4801ZM70.5076 9.22606C71.4187 9.22606 72.243 9.414 72.9805 9.78993C73.7179 10.1514 74.296 10.7153 74.7153 11.4817C75.1489 12.248 75.366 13.2384 75.366 14.453V21.1765H71.2451V15.1253C71.2451 14.2867 71.0714 13.6795 70.7246 13.3035C70.3922 12.9131 69.9221 12.7179 69.3148 12.7179C68.8812 12.7179 68.4836 12.8191 68.1221 13.0216C67.7605 13.2095 67.4788 13.5059 67.2761 13.9108C67.0738 14.3157 66.9727 14.8434 66.9727 15.4941V21.1765H62.8518V5.08353H66.9727V12.7613L66.0182 11.7853C66.4666 10.9322 67.0812 10.296 67.8616 9.87671C68.6425 9.44296 69.5245 9.22606 70.5076 9.22606ZM84.2358 21.3717C82.8476 21.3717 81.6332 21.1114 80.5918 20.5909C79.5653 20.0559 78.7627 19.333 78.1846 18.422C77.6208 17.4966 77.3386 16.4483 77.3386 15.2772C77.3386 14.106 77.6133 13.0649 78.1629 12.154C78.7267 11.2286 79.5002 10.5129 80.4833 10.0068C81.4669 9.48632 82.5729 9.22606 83.8016 9.22606C84.9584 9.22606 86.0141 9.46461 86.9686 9.94177C87.9226 10.4045 88.6818 11.0913 89.2456 12.0022C89.8094 12.9131 90.0916 14.0192 90.0916 15.3205C90.0916 15.4651 90.0842 15.6314 90.0699 15.8194C90.0556 16.0073 90.0408 16.1809 90.0265 16.3399H80.7221V14.171H87.8358L86.2745 14.7783C86.2888 14.2433 86.1877 13.7806 85.9706 13.3903C85.7684 12.9999 85.4793 12.6962 85.1029 12.4793C84.7419 12.2624 84.3152 12.154 83.8233 12.154C83.332 12.154 82.8979 12.2624 82.522 12.4793C82.161 12.6962 81.8788 13.0071 81.6766 13.412C81.4738 13.8023 81.3727 14.2651 81.3727 14.8V15.429C81.3727 16.0073 81.4886 16.5062 81.72 16.9255C81.9656 17.3448 82.3124 17.6701 82.7608 17.9015C83.2092 18.1184 83.7439 18.2268 84.366 18.2268C84.9441 18.2268 85.4359 18.1473 85.8404 17.9882C86.2597 17.8148 86.6721 17.5545 87.0766 17.2075L89.2456 19.4631C88.6818 20.0848 87.9877 20.562 87.1634 20.8945C86.3396 21.2126 85.3634 21.3717 84.2358 21.3717ZM98.1254 21.3717C96.7378 21.3717 95.5228 21.1114 94.482 20.5909C93.4555 20.0559 92.6529 19.333 92.0748 18.422C91.5104 17.4966 91.2288 16.4483 91.2288 15.2772C91.2288 14.106 91.5035 13.0649 92.0531 12.154C92.6169 11.2286 93.3903 10.5129 94.3735 10.0068C95.3566 9.48632 96.4631 9.22606 97.6918 9.22606C98.8486 9.22606 99.9042 9.46461 100.858 9.94177C101.813 10.4045 102.572 11.0913 103.136 12.0022C103.7 12.9131 103.982 14.0192 103.982 15.3205C103.982 15.4651 103.974 15.6314 103.96 15.8194C103.945 16.0073 103.931 16.1809 103.917 16.3399H94.6122V14.171H101.726L100.164 14.7783C100.179 14.2433 100.078 13.7806 99.8608 13.3903C99.6586 12.9999 99.369 12.6962 98.9931 12.4793C98.6315 12.2624 98.2053 12.154 97.7135 12.154C97.2222 12.154 96.7881 12.2624 96.4122 12.4793C96.0506 12.6962 95.769 13.0071 95.5662 13.412C95.364 13.8023 95.2629 14.2651 95.2629 14.8V15.429C95.2629 16.0073 95.3783 16.5062 95.6096 16.9255C95.8558 17.3448 96.2026 17.6701 96.651 17.9015C97.0989 18.1184 97.6341 18.2268 98.2556 18.2268C98.8343 18.2268 99.3256 18.1473 99.7306 17.9882C100.15 17.8148 100.562 17.5545 100.967 17.2075L103.136 19.4631C102.572 20.0848 101.878 20.562 101.054 20.8945C100.229 21.2126 99.2536 21.3717 98.1254 21.3717ZM111.105 21.3717C109.601 21.3717 108.43 21.003 107.591 20.2656C106.753 19.5137 106.333 18.3859 106.333 16.8821V6.79691H110.454V16.8387C110.454 17.2581 110.57 17.5906 110.801 17.8364C111.032 18.0678 111.329 18.1834 111.691 18.1834C112.182 18.1834 112.601 18.0606 112.948 17.8148L113.968 20.6993C113.621 20.9307 113.194 21.097 112.688 21.1982C112.182 21.3139 111.654 21.3717 111.105 21.3717ZM104.62 12.9348V9.855H113.143V12.9348H104.62ZM119.804 21.3717C118.806 21.3717 117.83 21.256 116.876 21.0246C115.936 20.7933 115.177 20.5041 114.599 20.1571L115.835 17.3376C116.384 17.6701 117.028 17.9376 117.765 18.1401C118.502 18.328 119.226 18.422 119.934 18.422C120.628 18.422 121.105 18.3497 121.366 18.2051C121.64 18.0606 121.777 17.8654 121.777 17.6196C121.777 17.3882 121.648 17.2219 121.387 17.1207C121.142 17.005 120.809 16.9183 120.389 16.8604C119.985 16.8026 119.536 16.7375 119.045 16.6652C118.553 16.5929 118.055 16.499 117.548 16.3833C117.057 16.2532 116.601 16.0652 116.182 15.8194C115.777 15.5591 115.452 15.2121 115.206 14.7783C114.96 14.3446 114.837 13.7951 114.837 13.13C114.837 12.3781 115.054 11.713 115.488 11.1346C115.936 10.5418 116.587 10.0792 117.44 9.74658C118.293 9.39955 119.334 9.22606 120.563 9.22606C121.387 9.22606 122.218 9.31283 123.057 9.48632C123.91 9.64535 124.626 9.89116 125.204 10.2237L123.968 13.0216C123.39 12.689 122.811 12.4649 122.233 12.3492C121.655 12.2191 121.105 12.154 120.585 12.154C119.891 12.154 119.399 12.2335 119.11 12.3926C118.835 12.5516 118.698 12.7469 118.698 12.9782C118.698 13.2095 118.821 13.3903 119.066 13.5204C119.312 13.6361 119.638 13.73 120.043 13.8023C120.462 13.8602 120.917 13.9252 121.409 13.9975C121.9 14.0554 122.392 14.1494 122.884 14.2795C123.39 14.4096 123.845 14.6048 124.25 14.8651C124.67 15.1109 125.002 15.4507 125.248 15.8845C125.493 16.3038 125.617 16.846 125.617 17.5111C125.617 18.2341 125.392 18.8847 124.944 19.4631C124.51 20.0414 123.86 20.5041 122.992 20.8511C122.139 21.1982 121.076 21.3717 119.804 21.3717Z" fill="url(#paint0_linear_14_2)"/>
<path d="M131.419 18.3236V12.597H133.898C134.41 12.597 134.852 12.6815 135.223 12.8506C135.594 13.0142 135.88 13.2514 136.082 13.5623C136.284 13.8732 136.385 14.2441 136.385 14.6749C136.385 15.1004 136.284 15.4685 136.082 15.7794C135.88 16.0903 135.594 16.3302 135.223 16.4993C134.852 16.6629 134.41 16.7447 133.898 16.7447H132.155L132.744 16.1475V18.3236H131.419ZM132.744 16.2948L132.155 15.6648H133.824C134.233 15.6648 134.538 15.5776 134.741 15.403C134.942 15.2285 135.043 14.9858 135.043 14.6749C135.043 14.3586 134.942 14.1132 134.741 13.9387C134.538 13.7641 134.233 13.6769 133.824 13.6769H132.155L132.744 13.0469V16.2948ZM137.321 18.3236V12.597H139.8C140.313 12.597 140.755 12.6815 141.125 12.8506C141.496 13.0142 141.783 13.2514 141.985 13.5623C142.186 13.8732 142.287 14.2441 142.287 14.6749C142.287 15.1004 142.186 15.4685 141.985 15.7794C141.783 16.0848 141.496 16.3193 141.125 16.4829C140.755 16.6466 140.313 16.7284 139.8 16.7284H138.058L138.647 16.1475V18.3236H137.321ZM140.962 18.3236L139.53 16.2457H140.945L142.394 18.3236H140.962ZM138.647 16.2948L138.058 15.673H139.727C140.136 15.673 140.441 15.5857 140.643 15.4112C140.845 15.2312 140.945 14.9858 140.945 14.6749C140.945 14.3586 140.845 14.1132 140.643 13.9387C140.441 13.7641 140.136 13.6769 139.727 13.6769H138.058L138.647 13.0469V16.2948ZM146.109 18.4218C145.657 18.4218 145.237 18.3482 144.849 18.2009C144.467 18.0537 144.135 17.8464 143.851 17.5792C143.573 17.3119 143.355 16.9984 143.197 16.6384C143.044 16.2784 142.968 15.8857 142.968 15.4603C142.968 15.0349 143.044 14.6422 143.197 14.2823C143.355 13.9223 143.576 13.6087 143.859 13.3414C144.143 13.0742 144.476 12.8669 144.858 12.7197C145.239 12.5724 145.654 12.4988 146.101 12.4988C146.554 12.4988 146.968 12.5724 147.344 12.7197C147.727 12.8669 148.056 13.0742 148.334 13.3414C148.618 13.6087 148.839 13.9223 148.997 14.2823C149.155 14.6368 149.234 15.0294 149.234 15.4603C149.234 15.8857 149.155 16.2811 148.997 16.6466C148.839 17.0065 148.618 17.3201 148.334 17.5874C148.056 17.8492 147.727 18.0537 147.344 18.2009C146.968 18.3482 146.557 18.4218 146.109 18.4218ZM146.101 17.2929C146.357 17.2929 146.592 17.2492 146.805 17.1619C147.023 17.0747 147.214 16.9492 147.377 16.7856C147.541 16.622 147.666 16.4284 147.754 16.2048C147.846 15.9811 147.893 15.733 147.893 15.4603C147.893 15.1876 147.846 14.9395 147.754 14.7158C147.666 14.4922 147.541 14.2986 147.377 14.135C147.219 13.9714 147.031 13.8459 146.813 13.7587C146.595 13.6714 146.357 13.6277 146.101 13.6277C145.844 13.6277 145.607 13.6714 145.389 13.7587C145.176 13.8459 144.988 13.9714 144.825 14.135C144.661 14.2986 144.533 14.4922 144.44 14.7158C144.353 14.9395 144.309 15.1876 144.309 15.4603C144.309 15.7276 144.353 15.9757 144.44 16.2048C144.533 16.4284 144.659 16.622 144.816 16.7856C144.98 16.9492 145.171 17.0747 145.389 17.1619C145.607 17.2492 145.844 17.2929 146.101 17.2929Z" fill="white"/>
<path d="M60 26H60.6206V32.6474L60.5794 33.7001H60V26ZM64.5159 30.9379V31.0432C64.5159 31.4476 64.4681 31.8185 64.371 32.1561C64.2748 32.4937 64.1348 32.7861 63.9519 33.0334C63.769 33.2773 63.5449 33.4662 63.2795 33.5998C63.0173 33.7335 62.7155 33.8004 62.3741 33.8004C62.0399 33.8004 61.7429 33.7502 61.4848 33.65C61.2259 33.5464 61.005 33.401 60.8221 33.2139C60.64 33.0234 60.4928 32.8011 60.3827 32.5472C60.2727 32.2898 60.195 32.0074 60.1497 31.6999V30.3614C60.2015 30.0339 60.2848 29.7364 60.3981 29.4691C60.5122 29.2018 60.6586 28.9711 60.8383 28.7773C61.0211 28.5835 61.238 28.4347 61.4897 28.3311C61.7453 28.2275 62.0366 28.1757 62.3643 28.1757C62.7058 28.1757 63.0092 28.2409 63.2746 28.3712C63.5433 28.4982 63.769 28.6837 63.9519 28.9277C64.1348 29.1683 64.2748 29.459 64.371 29.8C64.4681 30.1375 64.5159 30.5168 64.5159 30.9379ZM63.8904 31.0432V30.9379C63.8904 30.6204 63.8589 30.3263 63.7974 30.0556C63.7351 29.7849 63.6363 29.5493 63.502 29.3488C63.3709 29.1449 63.2018 28.9861 62.9955 28.8725C62.7883 28.7589 62.5399 28.7021 62.2503 28.7021C61.9533 28.7021 61.7 28.7506 61.4897 28.8475C61.2825 28.941 61.1102 29.0663 60.9726 29.2235C60.8383 29.3772 60.7315 29.546 60.6514 29.7298C60.5721 29.9136 60.5138 30.094 60.4758 30.2711V31.8302C60.5348 32.0809 60.636 32.3165 60.7808 32.5371C60.9257 32.7577 61.1207 32.9365 61.3659 33.0735C61.6102 33.2072 61.9088 33.274 62.2608 33.274C62.5432 33.274 62.7867 33.2172 62.9898 33.1036C63.197 32.99 63.3661 32.8329 63.4972 32.6323C63.6315 32.4318 63.7294 32.1962 63.7917 31.9255C63.8572 31.6548 63.8904 31.3607 63.8904 31.0432ZM67.4855 33.1587L69.2284 28.2759H69.8959L67.5267 34.5724C67.4782 34.6961 67.4167 34.8331 67.3406 34.9835C67.2678 35.1339 67.1715 35.2776 67.051 35.4146C66.9336 35.555 66.7856 35.6686 66.6059 35.7555C66.4303 35.8457 66.2143 35.8908 65.9594 35.8908C65.8939 35.8908 65.8097 35.8825 65.7061 35.8658C65.6058 35.8524 65.5338 35.8391 65.4885 35.8257L65.4836 35.3194C65.5217 35.3294 65.5767 35.3378 65.6487 35.3445C65.7215 35.3511 65.7717 35.3545 65.7992 35.3545C66.0233 35.3545 66.2111 35.3177 66.3632 35.2442C66.5177 35.1706 66.6472 35.0604 66.7508 34.9133C66.8543 34.7696 66.9458 34.5891 67.0251 34.3719L67.4855 33.1587ZM65.8558 28.2759L67.6408 32.9331L67.8059 33.5598L67.356 33.8054L65.1834 28.2759H65.8558Z" fill="black"/>
<path d="M77.3021 33.0687C76.8635 32.8438 76.4841 32.5261 76.1903 32.1392L76.6192 31.8169C76.8538 32.1724 77.1775 32.4643 77.561 32.665C77.9826 32.8698 78.4495 32.9701 78.9212 32.9568C79.4706 32.9568 79.8922 32.8312 80.19 32.5802C80.3356 32.4582 80.4513 32.306 80.529 32.1348C80.6059 31.9637 80.6431 31.7779 80.6366 31.5913C80.6439 31.3926 80.5824 31.1973 80.461 31.0366C80.3397 30.8867 80.1835 30.7659 80.0063 30.6838C79.7959 30.5874 79.5758 30.5134 79.3501 30.4633L78.5741 30.2936C78.3241 30.2428 78.0773 30.1851 77.8353 30.124C77.6055 30.0644 77.3855 29.9731 77.1832 29.8527C76.9946 29.7396 76.8352 29.5857 76.7187 29.4031C76.5949 29.1897 76.5342 28.9473 76.5439 28.7026C76.5455 28.4789 76.5973 28.2584 76.6961 28.0564C76.794 27.8529 76.9372 27.6732 77.116 27.5305C77.311 27.374 77.5343 27.2544 77.7746 27.1777C78.057 27.0891 78.3524 27.0462 78.6493 27.0505C79.1429 27.0338 79.6317 27.1438 80.067 27.3694C80.4368 27.5726 80.7588 27.8482 81.0129 28.1785L80.6099 28.4753C80.4157 28.1731 80.1463 27.9225 79.8275 27.7459C79.465 27.5606 79.0588 27.47 78.6493 27.483C78.1072 27.483 77.7043 27.5961 77.4421 27.8222C77.3134 27.9288 77.2115 28.0618 77.1427 28.2115C77.0747 28.3611 77.0416 28.5237 77.0464 28.6874C77.0359 28.8722 77.0836 29.0558 77.1848 29.2132C77.2795 29.3476 77.4065 29.4571 77.5554 29.532C77.7334 29.6176 77.9219 29.6814 78.1161 29.722C78.333 29.7729 78.5692 29.8272 78.816 29.8916C79.0628 29.9561 79.3412 30.0053 79.6122 30.0782C79.8768 30.1436 80.1317 30.2405 80.372 30.3666C80.5897 30.4865 80.779 30.6501 80.9271 30.8466C81.0792 31.0647 81.1553 31.3246 81.144 31.5878C81.1456 31.8313 81.0906 32.072 80.9829 32.2918C80.8737 32.514 80.7192 32.7121 80.5274 32.8737C80.3219 33.0462 80.084 33.1796 79.8275 33.2671C79.5362 33.3667 79.2295 33.4156 78.9212 33.4113C78.3605 33.4279 77.8046 33.3102 77.3021 33.0687Z" fill="#404349"/>
<path d="M83.3732 33.2409C83.0803 33.1313 82.8149 32.9624 82.5948 32.7456C82.3804 32.5312 82.2112 32.2775 82.0996 31.9993C81.9806 31.7001 81.9208 31.3818 81.924 31.0612C81.9191 30.7366 81.9782 30.4141 82.0996 30.1113C82.2193 29.8253 82.3982 29.5657 82.6247 29.3481C82.8513 29.1314 83.1183 28.9587 83.412 28.8392C83.7284 28.7128 84.0674 28.6494 84.4097 28.6526C84.7334 28.6478 85.0546 28.7055 85.3548 28.8222C85.6396 28.9317 85.8978 29.0966 86.1138 29.3066C86.3298 29.5167 86.4998 29.7675 86.6114 30.0435C86.732 30.3417 86.7919 30.6597 86.787 30.9798V31.2308H82.4111C82.4224 31.4731 82.4815 31.7109 82.5859 31.9314C82.6878 32.1396 82.8311 32.3267 83.0058 32.4827C83.1863 32.641 83.3958 32.7647 83.624 32.8474C83.8708 32.9369 84.1338 32.9813 84.3976 32.978C84.7738 32.9903 85.146 32.9024 85.4738 32.7235C85.7812 32.5383 86.0296 32.2741 86.1915 31.9602L86.6381 32.1977C86.4116 32.5695 86.096 32.8835 85.7189 33.1137C85.3184 33.3296 84.8645 33.4351 84.4065 33.419C84.0537 33.424 83.7033 33.3635 83.3732 33.2409ZM83.675 29.2208C83.4525 29.3024 83.2478 29.4232 83.0706 29.577C82.8982 29.7311 82.755 29.9137 82.649 30.1164C82.5381 30.3245 82.4637 30.5494 82.4305 30.7814H86.2813C86.2619 30.5473 86.2028 30.318 86.1057 30.1029C86.0143 29.9014 85.8808 29.7197 85.7157 29.5686C85.5498 29.4202 85.3548 29.3049 85.1428 29.2293C84.9122 29.1444 84.667 29.1024 84.4202 29.1055C84.1662 29.0984 83.9137 29.1375 83.675 29.2208Z" fill="#404349"/>
<path d="M88.224 26.643V33.3261H87.7426V26.643H88.224Z" fill="#404349"/>
<path d="M89.8674 26.643V33.3261H89.3868V26.643H89.8674Z" fill="#404349"/>
<path d="M92.2641 33.2409C91.9712 33.1312 91.7058 32.9624 91.4857 32.7455C91.2705 32.5312 91.1022 32.2774 90.9905 31.9992C90.7534 31.3902 90.7567 30.7183 90.9986 30.1113C91.1159 29.8256 91.2915 29.5659 91.5157 29.348C91.7422 29.1314 92.0092 28.9587 92.303 28.8392C92.6193 28.7125 92.9584 28.649 93.3007 28.6525C93.6243 28.6481 93.9456 28.7057 94.2457 28.8222C94.5298 28.9324 94.7871 29.0968 95.0039 29.3056C95.2192 29.5169 95.3891 29.7677 95.5024 30.0434C95.6229 30.3416 95.682 30.6596 95.6779 30.9798V31.2308H91.2964C91.3118 31.4719 91.3741 31.7079 91.4801 31.9263C91.5828 32.1345 91.7252 32.3216 91.9 32.4775C92.0805 32.6358 92.29 32.7596 92.5182 32.8422C92.7658 32.9318 93.028 32.9762 93.2918 32.9729C93.6696 32.9878 94.0451 32.9016 94.3752 32.7235C94.6827 32.5383 94.9311 32.274 95.0929 31.9602L95.5396 32.1977C95.313 32.5695 94.9974 32.8835 94.6204 33.1136C94.2199 33.3296 93.7659 33.4351 93.3079 33.4189C92.9511 33.4252 92.5975 33.3648 92.2641 33.2409ZM92.5651 29.2208C92.1185 29.3848 91.7503 29.704 91.5327 30.1164C91.4218 30.3245 91.3474 30.5493 91.3142 30.7813H95.1649C95.1463 30.5472 95.0865 30.318 94.9894 30.1028C94.8979 29.9013 94.7652 29.7196 94.5994 29.5685C94.4343 29.4139 94.2393 29.2929 94.0257 29.2123C93.7942 29.1274 93.5491 29.0855 93.3023 29.0885C93.0506 29.0879 92.8006 29.1327 92.5651 29.2208Z" fill="#404349"/>
<path d="M97.0705 28.7463V29.6623C97.1498 29.3705 97.327 29.1127 97.5746 28.9295C97.8432 28.7525 98.1637 28.6645 98.4881 28.6785C98.7576 28.6662 99.0262 28.7217 99.2674 28.8396L99.0311 29.2806C98.9583 29.2326 98.879 29.1954 98.7948 29.1704C98.6896 29.1411 98.5804 29.1268 98.4711 29.128C98.2769 29.1147 98.0828 29.1462 97.9047 29.22C97.7259 29.2937 97.5673 29.4075 97.4435 29.552C97.2097 29.8371 97.0932 30.2791 97.0932 30.8785V33.3211H96.6117V28.7412L97.0705 28.7463Z" fill="#404349"/>
<path d="M100.337 33.1621C100.013 33.0046 99.7245 32.7867 99.4883 32.5209L99.8823 32.1817C100.073 32.4185 100.311 32.6162 100.582 32.7635C100.912 32.9289 101.279 33.0089 101.65 32.9958C101.994 33.02 102.336 32.927 102.618 32.7329C102.727 32.6498 102.815 32.5425 102.873 32.4201C102.931 32.2977 102.958 32.1636 102.952 32.029C102.958 31.8934 102.915 31.7601 102.83 31.6525C102.741 31.5494 102.629 31.468 102.502 31.415C102.35 31.3516 102.192 31.3033 102.03 31.2708C101.855 31.2335 101.669 31.1978 101.482 31.164C101.294 31.13 101.065 31.0893 100.861 31.0418C100.669 30.9985 100.484 30.9312 100.31 30.8417C100.151 30.7615 100.016 30.645 99.9155 30.5024C99.8087 30.3376 99.7569 30.1453 99.7666 29.9511C99.765 29.7763 99.8006 29.603 99.8718 29.4422C99.943 29.2824 100.051 29.1404 100.187 29.0267C100.341 28.8999 100.519 28.8037 100.712 28.7434C100.95 28.6685 101.201 28.6323 101.452 28.6366C101.834 28.6254 102.213 28.6998 102.56 28.8537C102.853 28.9929 103.117 29.1806 103.342 29.4084L102.957 29.7476C102.789 29.546 102.581 29.3788 102.345 29.2557C102.069 29.1192 101.762 29.0521 101.452 29.0606C101.019 29.0606 100.714 29.1415 100.537 29.3031C100.449 29.384 100.379 29.4821 100.334 29.5909C100.288 29.6997 100.266 29.8167 100.271 29.9342C100.263 30.0637 100.307 30.1911 100.393 30.2904C100.483 30.3874 100.594 30.4644 100.717 30.516C100.865 30.5794 101.022 30.626 101.181 30.6551L101.723 30.7568C101.934 30.7908 102.141 30.8332 102.35 30.8806C102.544 30.9238 102.731 30.9935 102.905 31.0876C103.064 31.1786 103.2 31.3033 103.303 31.4523C103.411 31.6255 103.464 31.8264 103.455 32.029C103.456 32.216 103.416 32.4012 103.337 32.5718C103.257 32.7428 103.138 32.8937 102.987 33.0128C102.822 33.1454 102.632 33.2462 102.427 33.3096C102.176 33.3874 101.915 33.4247 101.652 33.4199C101.199 33.436 100.748 33.3477 100.337 33.1621Z" fill="#404349"/>
<path d="M105.917 33.1616C105.529 33.004 105.178 32.7734 104.884 32.4831C104.592 32.1898 104.364 31.8441 104.21 31.4654C104.049 31.0714 103.967 30.651 103.97 30.2271C103.966 29.7957 104.05 29.3678 104.219 28.9685C104.378 28.5913 104.613 28.2486 104.91 27.9602C105.207 27.6719 105.559 27.4438 105.949 27.2892C106.359 27.1254 106.8 27.0429 107.243 27.0467C107.539 27.0467 107.833 27.0837 108.119 27.1569C108.394 27.2283 108.658 27.3338 108.906 27.4707C109.147 27.6055 109.369 27.7697 109.566 27.9592C109.763 28.1471 109.934 28.3592 110.074 28.5902L108.989 29.2518C108.83 28.9424 108.588 28.6804 108.289 28.4935C107.974 28.3035 107.609 28.2072 107.238 28.217C106.968 28.2146 106.699 28.2652 106.45 28.3657C106.2 28.4663 105.974 28.6148 105.785 28.8022C105.602 28.9876 105.458 29.2053 105.36 29.4434C105.265 29.6952 105.22 29.9624 105.229 30.2304C105.227 30.4946 105.278 30.7566 105.377 31.0023C105.473 31.2392 105.615 31.4555 105.798 31.6384C105.979 31.8205 106.197 31.9663 106.436 32.0675C106.691 32.1739 106.965 32.2271 107.242 32.2235C107.64 32.2353 108.03 32.1242 108.358 31.9064C108.665 31.6968 108.907 31.4107 109.059 31.0786L110.188 31.6638C110.055 31.9218 109.887 32.1614 109.688 32.3762C109.493 32.589 109.268 32.7746 109.02 32.9275C108.766 33.0827 108.49 33.2027 108.201 33.2837C107.45 33.4891 106.649 33.4461 105.926 33.1616H105.917Z" fill="#404349"/>
<path d="M111.889 33.2331C111.593 33.1149 111.325 32.942 111.097 32.7242C110.869 32.5036 110.688 32.241 110.566 31.9518C110.443 31.6626 110.381 31.3525 110.383 31.0399C110.382 30.7216 110.446 30.4062 110.57 30.112C110.692 29.8272 110.87 29.5688 111.096 29.3521C111.573 28.9033 112.212 28.6523 112.876 28.6523C113.542 28.6523 114.181 28.9033 114.657 29.3521C114.888 29.5744 115.07 29.8388 115.194 30.13C115.318 30.4212 115.381 30.7334 115.379 31.0484C115.381 31.366 115.315 31.6807 115.187 31.9728C115.063 32.256 114.884 32.5139 114.661 32.7327C114.435 32.9516 114.166 33.1246 113.87 33.2416C113.555 33.3681 113.217 33.4316 112.876 33.4281C112.537 33.429 112.201 33.3626 111.889 33.2331ZM113.394 32.2068C113.547 32.1419 113.686 32.0499 113.805 31.9355C113.924 31.8205 114.018 31.6839 114.082 31.5334C114.215 31.2105 114.215 30.8505 114.082 30.5276C114.018 30.3757 113.924 30.2373 113.805 30.1205C113.686 30.0067 113.547 29.9147 113.394 29.8491C113.234 29.782 113.061 29.7473 112.886 29.7473C112.712 29.7473 112.539 29.782 112.379 29.8491C112.226 29.9147 112.087 30.0067 111.968 30.1205C111.849 30.2373 111.755 30.3757 111.691 30.5276C111.558 30.8505 111.558 31.2105 111.691 31.5334C111.755 31.6839 111.849 31.8205 111.968 31.9355C112.086 32.0499 112.226 32.1419 112.379 32.2068C112.539 32.274 112.712 32.3086 112.886 32.3086C113.061 32.3086 113.234 32.274 113.394 32.2068Z" fill="#404349"/>
<path d="M117.078 28.7459V29.2887C117.222 29.0935 117.41 28.9337 117.629 28.8222C117.866 28.7067 118.127 28.6485 118.391 28.6526C118.702 28.6419 119.01 28.711 119.283 28.8528C119.523 28.985 119.715 29.1843 119.835 29.4244C119.985 29.189 120.194 28.9951 120.444 28.8613C120.712 28.7181 121.013 28.6461 121.319 28.6526C121.919 28.6526 122.37 28.8183 122.672 29.1496C122.975 29.481 123.124 29.9333 123.122 30.5066V33.3223H121.879V30.6796C121.894 30.4204 121.822 30.1633 121.674 29.9468C121.593 29.8532 121.49 29.7799 121.373 29.7332C121.257 29.6866 121.13 29.6679 121.004 29.6788C120.881 29.6737 120.758 29.6951 120.645 29.7415C120.532 29.7878 120.43 29.8579 120.348 29.9468C120.168 30.1786 120.081 30.4665 120.105 30.756V33.3257H118.88V30.6457C118.896 30.3932 118.825 30.1426 118.678 29.9333C118.599 29.844 118.498 29.7745 118.386 29.7302C118.274 29.6859 118.151 29.6684 118.031 29.6788C117.904 29.6731 117.778 29.6945 117.66 29.7414C117.544 29.7883 117.438 29.8596 117.353 29.9503C117.167 30.1883 117.078 30.484 117.103 30.7814V33.3257H115.887V28.7459H117.078Z" fill="#404349"/>
<path d="M124.947 28.7459V29.2887C125.09 29.0935 125.278 28.9337 125.498 28.8222C125.734 28.7067 125.994 28.6485 126.259 28.6526C126.57 28.6419 126.877 28.711 127.152 28.8528C127.391 28.985 127.583 29.1843 127.703 29.4244C127.853 29.189 128.063 28.9951 128.312 28.8613C128.58 28.7181 128.882 28.6461 129.187 28.6526C129.787 28.6526 130.238 28.8183 130.54 29.1496C130.843 29.481 130.993 29.9333 130.99 30.5066V33.3223H129.747V30.6796C129.763 30.4204 129.691 30.1633 129.543 29.9468C129.462 29.8532 129.358 29.7799 129.242 29.7332C129.125 29.6866 128.998 29.6679 128.873 29.6788C128.75 29.6737 128.627 29.6951 128.513 29.7415C128.399 29.7878 128.298 29.8579 128.216 29.9468C128.035 30.1784 127.948 30.4663 127.971 30.756V33.3257H126.737V30.6457C126.753 30.3932 126.682 30.1426 126.536 29.9333C126.456 29.844 126.356 29.7745 126.244 29.7302C126.131 29.6859 126.009 29.6684 125.888 29.6788C125.761 29.6737 125.635 29.6953 125.518 29.7422C125.401 29.789 125.295 29.86 125.209 29.9503C125.024 30.1886 124.936 30.4843 124.96 30.7814V33.3257H123.744V28.7459H124.947Z" fill="#404349"/>
<path d="M132.926 33.2377C132.629 33.1228 132.359 32.9496 132.133 32.7288C131.914 32.5137 131.743 32.2566 131.631 31.974C131.512 31.6766 131.453 31.36 131.456 31.0411C131.454 30.7201 131.518 30.4019 131.643 30.1048C131.765 29.8204 131.943 29.5622 132.168 29.3449C132.395 29.1275 132.662 28.9547 132.956 28.836C133.266 28.7105 133.6 28.647 133.936 28.6494C134.272 28.6457 134.605 28.7063 134.917 28.8275C135.204 28.9396 135.466 29.1056 135.686 29.316C135.907 29.5271 136.079 29.7793 136.195 30.0573C136.316 30.3569 136.376 30.6768 136.369 30.9987V31.4397H132.62C132.689 31.7223 132.858 31.973 133.096 32.1487C133.35 32.3259 133.659 32.4165 133.971 32.4066C134.219 32.4131 134.464 32.3545 134.681 32.237C134.874 32.132 135.038 31.9815 135.156 31.7993L136.145 32.359C135.915 32.6744 135.616 32.9377 135.271 33.1309C134.869 33.3368 134.419 33.4363 133.966 33.4192C133.611 33.4253 133.257 33.3637 132.926 33.2377ZM133.137 29.8911C132.912 30.0534 132.744 30.2783 132.655 30.5356H135.176C135.111 30.2729 134.953 30.0405 134.729 29.8792C134.496 29.7198 134.216 29.6377 133.931 29.6451C133.646 29.6409 133.367 29.7273 133.137 29.8911Z" fill="#404349"/>
<path d="M138.05 28.7461V29.45C138.146 29.2011 138.326 28.9909 138.561 28.853C138.805 28.7202 139.081 28.654 139.361 28.6613C139.51 28.6602 139.658 28.6773 139.802 28.7121C139.923 28.7412 140.041 28.7839 140.152 28.8394L139.711 29.9928C139.63 29.9412 139.542 29.9028 139.448 29.8792C139.329 29.846 139.205 29.83 139.081 29.8316C138.808 29.8186 138.542 29.9086 138.336 30.0827C138.15 30.2523 138.057 30.5254 138.057 30.9088V33.3259H136.858V28.7461H138.05Z" fill="#404349"/>
<path d="M141.417 33.2322C141.124 33.1153 140.858 32.9435 140.633 32.7266C140.408 32.5098 140.23 32.2522 140.108 31.9685C139.981 31.6729 139.918 31.3556 139.921 31.0357C139.918 30.7128 139.981 30.3928 140.108 30.0942C140.23 29.8116 140.409 29.5552 140.633 29.3394C141.104 28.893 141.739 28.646 142.398 28.6525C142.658 28.6508 142.918 28.6868 143.168 28.7593C143.399 28.8259 143.619 28.926 143.818 29.0561C144.013 29.1827 144.187 29.3371 144.335 29.5141C144.484 29.6927 144.607 29.8908 144.699 30.1027L143.588 30.5352C143.5 30.3019 143.341 30.0997 143.132 29.9551C142.922 29.8147 142.671 29.7417 142.415 29.7465C142.24 29.745 142.067 29.7797 141.907 29.8483C141.596 29.9798 141.35 30.2229 141.219 30.5268C141.152 30.6884 141.118 30.8613 141.12 31.0357C141.118 31.2045 141.152 31.3718 141.219 31.5276C141.286 31.6781 141.381 31.8151 141.499 31.9312C141.62 32.0465 141.762 32.1396 141.916 32.2061C142.076 32.2747 142.249 32.3093 142.424 32.3078C142.682 32.3145 142.937 32.2369 143.144 32.0873C143.348 31.9391 143.504 31.7396 143.597 31.5106L144.726 31.9601C144.526 32.3775 144.221 32.7385 143.836 33.0084C143.418 33.2918 142.916 33.4358 142.407 33.4189C142.067 33.4227 141.73 33.3592 141.417 33.2322Z" fill="#404349"/>
<path d="M146.372 33.2377C146.074 33.1228 145.805 32.9496 145.579 32.7288C145.36 32.5137 145.188 32.2566 145.077 31.974C144.959 31.6766 144.899 31.36 144.902 31.0411C144.9 30.7201 144.963 30.4019 145.09 30.1048C145.211 29.8204 145.39 29.5622 145.615 29.3449C145.841 29.1275 146.108 28.9547 146.402 28.836C146.713 28.7105 147.046 28.647 147.382 28.6494C147.718 28.6457 148.051 28.7063 148.363 28.8275C148.65 28.9396 148.911 29.1056 149.133 29.316C149.352 29.5271 149.525 29.7793 149.64 30.0573C149.765 30.3563 149.827 30.6762 149.824 30.9987V31.4397H146.066C146.133 31.7229 146.299 31.9747 146.537 32.1521C146.791 32.3293 147.099 32.42 147.412 32.4099C147.66 32.4165 147.905 32.3579 148.121 32.2403C148.312 32.1314 148.471 31.978 148.584 31.7942L149.574 32.3539C149.343 32.6693 149.044 32.9326 148.698 33.1258C148.304 33.3305 147.86 33.4317 147.412 33.4192C147.057 33.4253 146.703 33.3637 146.372 33.2377ZM146.583 29.8911C146.358 30.0534 146.19 30.2783 146.101 30.5356H148.622C148.557 30.2729 148.399 30.0405 148.175 29.8792C147.941 29.7234 147.662 29.6443 147.379 29.6536C147.094 29.6466 146.814 29.7299 146.583 29.8911Z" fill="#404349"/>
</g>
<defs>
<linearGradient id="paint0_linear_14_2" x1="-32.4166" y1="26.4706" x2="126.529" y2="26.4706" gradientUnits="userSpaceOnUse">
<stop stop-color="#0089FF"/>
<stop offset="0.941954" stop-color="#8255FF"/>
</linearGradient>
<clipPath id="clip0_14_2">
<rect width="152.471" height="36" fill="white"/>
</clipPath>
</defs>
</svg>
