<svg width="70" height="20" viewBox="0 0 3650 614" fill="none" xmlns="http://www.w3.org/2000/svg">
<path d="M307 0L375.926 212.132H598.974L418.524 343.236L487.45 555.368L307 424.264L126.55 555.368L195.476 343.236L15.0256 212.132H238.074L307 0Z" fill="#FFE247"/>
<path d="M1066 0L1134.93 212.132H1357.97L1177.52 343.236L1246.45 555.368L1066 424.264L885.55 555.368L954.476 343.236L774.026 212.132H997.074L1066 0Z" fill="#FFE247"/>
<path d="M1825 0L1893.93 212.132H2116.97L1936.52 343.236L2005.45 555.368L1825 424.264L1644.55 555.368L1713.48 343.236L1533.03 212.132H1756.07L1825 0Z" fill="#FFE247"/>
<path d="M2584 0L2652.93 212.132H2875.97L2695.52 343.236L2764.45 555.368L2584 424.264L2403.55 555.368L2472.48 343.236L2292.03 212.132H2515.07L2584 0Z" fill="#FFE247"/>
<path d="M3343 0L3411.93 212.132H3634.97L3454.52 343.236L3523.45 555.368L3343 424.264L3162.55 555.368L3231.48 343.236L3051.03 212.132H3274.07L3343 0Z" fill="#C4C4C4"/>
</svg>
