<?xml version="1.0" encoding="UTF-8"?><svg xmlns="http://www.w3.org/2000/svg" viewBox="0 0 2767.01 1228.59"><defs><style>.d{fill:#e2eef9;}.e{fill:#599dad;}.f{fill:#fff;}.g{fill:#afcdfb;}.h{fill:#deedff;}.i{fill:#ffb278;}.j{fill:#c2d9ef;}.k{fill:#ee9849;}.l{fill:#c7ddea;}.m{fill:#b2cee7;}.n{fill:#f99746;}.o{fill:#e78b37;}.p{fill:#1c468a;}.q{fill:#f4a269;}.r{fill:#a8d29f;}.s{fill:#4a75cb;}.t{fill:#9abedb;}.u{fill:#f1a34f;}.v,.w{fill:#e37970;}.x{fill:#a0795f;}.y{fill:#c69d7f;}.a`{fill:#e0b594;}.aa{fill:#2e3552;}.ab{fill:#c65447;}.ac{fill:#c45446;}.ad{fill:#e49963;}.ae{fill:#9e332e;}.w{isolation:isolate;opacity:.2;}.af{fill:#d7e9f2;}.ag{fill:#dde3f2;}.ah{fill:#ffb973;}.ai{fill:#e58638;}.aj{fill:#d3e3ef;}.ak{fill:#6bb7bf;}.al{fill:#ed975d;}.am{fill:#dfb697;}.an{fill:#d86713;}.ao{fill:#ed7d2b;}.ap{fill:#aa413e;}.aq{fill:#d1a586;}.ar{fill:#ffb27d;}.as{fill:#e7f1fd;}.at{fill:#233862;}.au{fill:#163560;}.av{fill:#699dee;}.aw{fill:#2b478b;}.ax{fill:#e5bd9e;}.ay{fill:#ebf3fa;}</style></defs><g id="a"/><g id="b"><g id="c"><g><path class="ay" d="M2565.25,1225.85l-2403.21-.62s-1.48-1.35-4.18-3.97c-1.07-1.04-2.33-2.29-3.77-3.73-3.79-3.8-8.79-8.98-14.66-15.43-2.29-2.51-4.7-5.21-7.22-8.09-11.28-12.87-24.78-29.45-38.75-49.21-3.47-4.9-6.97-10.01-10.48-15.31-.14-.22-.3-.44-.44-.66-1.15-1.74-2.3-3.51-3.46-5.29h0c-1.7-2.65-3.41-5.33-5.1-8.06-6.22-10-12.39-20.59-18.32-31.71-.37-.7-.75-1.4-1.11-2.1-4.13-7.79-8.16-15.86-12-24.16-.33-.69-.65-1.4-.98-2.1-.45-.98-.89-1.97-1.34-2.96-.38-.85-.76-1.69-1.13-2.54-.95-2.11-1.87-4.23-2.78-6.38-.09-.21-.18-.42-.26-.63-.26-.59-.52-1.2-.77-1.79-2.84-6.74-5.55-13.62-8.11-20.63-1.24-3.35-2.44-6.74-3.59-10.16-5.05-14.77-9.41-30.12-12.89-45.96-2.5-11.35-4.54-22.96-6.05-34.81-.02-.19-.04-.38-.07-.57-2.19-17.32-3.24-35.14-2.89-53.4,1.53-79.99,29.84-168.17,106.01-258.32,38.75-45.85,78.55-83.7,118.9-114.42,17.07-12.99,34.23-24.72,51.47-35.24,85.93-52.46,173.39-74.96,257.79-75.89,3.41-.03,6.82-.04,10.21-.02,99.66,.95,194.74,31.64,277.53,78.12,53.03,29.77,167.39,25.23,296.83-48.84,16.93-9.68,34.11-20.56,51.46-32.71,42.96-30.09,86.87-67.94,130.15-114.8,2.67-2.89,5.33-5.81,7.99-8.77,20.45-22.68,40.72-47.38,60.64-74.23,.38-.53,.77-1.04,1.16-1.55,6.27-8.35,12.86-16.41,19.78-24.18C1548.11-11.37,1864.12-39.85,2118.89,48.71c17.47,6.07,34.65,12.69,51.47,19.85,59.66,25.39,114.8,57.6,162.26,96.17,9.61,7.79,18.9,15.86,27.84,24.18,25.03,23.27,47.39,48.56,66.5,75.78,2.03,2.9,4.03,5.83,6,8.77,65.24,97.91,88.93,219.94,45.43,362.55-88.36,289.71,268.92,300.25,86.87,589.84h-.01Z"/><polygon class="d" points="2042.63 691.82 2042.63 630.92 2024.78 630.92 2024.78 526.2 1929.09 526.2 1929.09 630.92 1839.63 630.92 1839.63 460.29 1740.91 460.29 1740.91 571.05 1718.4 571.05 1718.4 438.81 1619.68 438.81 1619.68 686.75 1494.83 686.75 1494.83 831.33 1448.18 831.33 1448.18 766.97 1341.02 766.97 1341.02 805.04 1279.5 805.04 1279.5 634.61 1203.5 634.61 1203.5 760.76 1127.51 760.76 1127.51 1222.98 1203.5 1222.98 1268.64 1222.98 1279.5 1222.98 1341.02 1222.98 1375.8 1222.98 1431.5 1222.98 1448.18 1222.98 1494.83 1222.98 1538.65 1222.98 1619.68 1222.98 1644.49 1222.98 1693.87 1222.98 1718.4 1222.98 1740.91 1222.98 1792.59 1222.98 1827.77 1222.98 1839.63 1222.98 1929.09 1222.98 2023.19 1222.98 2024.78 1222.98 2042.63 1222.98 2118.87 1222.98 2118.87 691.82 2042.63 691.82"/><polygon class="d" points="1137.59 775.94 1137.59 1222.32 264.19 1222.32 264.19 833.89 331.14 833.89 331.14 727.88 398.09 727.88 398.09 871.1 452.29 871.1 452.29 839.1 546.71 839.1 546.71 893.2 587.8 893.2 587.8 771.7 697.79 771.7 697.79 563.34 784.77 563.34 784.77 674.47 804.6 674.47 804.6 581.38 891.58 581.38 891.58 724.77 970.4 724.77 970.4 636.77 1054.71 636.77 1054.71 724.77 1070.43 724.77 1070.43 775.94 1137.59 775.94"/><path class="h" d="M2170.33,68.55V1219.68h-51.47V48.7c17.47,6.07,34.65,12.69,51.47,19.85Z"/><path class="h" d="M278.04,467.61v752.07h-51.47V502.85c17.07-12.99,34.23-24.72,51.47-35.24Z"/><path class="h" d="M1171.87,388.26v831.42h-51.46V420.98c16.93-9.68,34.11-20.56,51.46-32.71h0Z"/><path class="l" d="M1513.29,1074.24h-38.98c3.63-29.7,9.55-49.33,9.64-49.61,.06-.19,.1-.45,.1-.72,0,0,1.32-8.14-12.63-8.33-13.01-.18-19.34,5.2-20.49,7.17-3.65-16.68-8.77-30.5-15.08-32.46-2.69-.83-5.84-1.18-9.12-1.2-.33-1.02-1.16-3.12-2.47-3.64-.11-.04-.28-.07-.49-.08-1.04-2.34-2.05-5.27-2.71-8.7,.05-.14,.09-.28,.13-.43,5.13-6.85,8.11-21.08,5.72-23.56-8.9-9.19-40.46-3.23-28.27,7.62-.15,.39-.27,.79-.38,1.17-1.02,3.68,.44,22.43,5.07,22.93,0,0,1.49,.07,3.61-.1,.08,.95,.2,2.42,.34,4.13-1.06,.25-1.73,.41-1.79,.43-2.43,.88-4.3,3.16-5.23,4.48h0s-15.75,8.22-17.81,15.96-9.63,45.26-12.54,47.89-36.37,8.73-36.37,8.73c0,0-.43,.48-.96,1.26-2.3-1.26-5.99-3.17-7.53-3.4-2.1-.31-11.3,7.31-11.84,9.3-.99,.66-1.62,1.15-1.62,1.15h-5.15v-1.44h-9.98s-.02-.01-.02-.02c2.84,0,4.85-.01,5.18-.01-.43,0-3.8-.08-4.27-2.61-.04-.2-.06-.41-.06-.64,0-.39,.17-2.47,.47-5.72,.07-.83,.16-1.73,.25-2.71,.17-1.85,.37-3.94,.58-6.22l.16-1.1h68.17l3.86-2.27h0l-5.19-19.48h.03l-.29-1.08h.06l-22.52-84.09-.02-.07h-139.12v.08l-2.03,.68,25.33,106.24h41.82l-1.31,15.62s-.7,4.81,2.88,4.82h5.73v.02h-133.09c.08,0,.15-.01,.22-.02h.47c1.19,.01,2.13-1.01,2.01-2.2l-2.1-20.94h37.45l11.17-91h-122.92l-9.6,78.2c-1.78-6.56-3.17-12.07-3.17-12.07-1-2.52-4.99-16.78-6.98-18.93h0c-.77-.83-2.49-1.48-4.31-1.97,.49-.81,.75-1.72,.66-2.73-.45-5.52,5.98-5.06,9.94-11.41,3.46-5.55-2.71-6.95,.59-15.91,2.42-6.57-3.88-8.17-3.69-13.66,0,0-.81-10.21-15.49-7.56-3.88,.7-6.55-6.22-12.91-3.75-13.69,5.31-14.49-1.7-18.45,8.14-1.66,4.12-12.18,8.92-8.97,16.04,3.22,7.12-2.16,11.91,1.61,17.49,1.96,2.89,1.16,8.05,10.39,8.23,1.45,.03,3.16,.9,4.98,2.13-2.96,.58-6.88,1.66-9.61,3.57h-.02v.02c-.64,.44-1.22,.94-1.69,1.47-.03,.03-.06,.06-.08,.09-.72,.85-1.26,2.01-1.68,3.33h0s-1.99,5.26-4.12,12.01c-2.15-.47-4.61-.76-7.45-.71-.34,0-.67,.02-1,.04-.72-.03-1.46-.05-2.24-.04-12.5,.19-11.32,8.05-11.32,8.05,0,.27,.03,.51,.09,.7,.08,.26,4.83,17.25,8.09,43.39h-46.07c-4.22,0-7.66,3.45-7.66,7.67h0c0,4.22,3.45,7.66,7.66,7.66h31.63l-.28,2.08-8.89,66.25-8.31,61.94c-.1,.73,.49,1.38,1.25,1.38,.86,0,1.6-.61,1.75-1.43l9.64-54.64,10.78-61.12h0l2.55-14.46h7.57c.94,10.96,1.51,23,1.39,35.74v.17c-.05,.17-.09,.35-.09,.54v1.27c0,.12,.02,.23,.04,.34,0,.2,0,.39,.02,.57h.18c.33,.63,.99,1.07,1.75,1.07h.45c-.03,.08-.05,.16-.05,.25,.01,.44,2.92,35.02-8.37,91.39h2.11c15.53-45.23,14.79-85.02,14.12-91.64h10.33c-.03,.08-.05,.16-.05,.25,.01,.44,2.92,35.02-8.37,91.39h2.11c15.53-45.23,14.79-85.02,14.12-91.64h40.32c-.67,6.62-1.41,46.41,14.12,91.64h2.11c-11.29-56.37-8.39-90.96-8.37-91.39,0-.08-.02-.17-.05-.25h10.21c-.67,6.62-1.41,46.41,14.12,91.64h2.11c-8.09-40.41-8.89-69.62-8.69-83.09,.23,2.39,.48,4.98,.9,7.64,1.67,10.7,29.57,54.02,29.57,54.02,0,0,.28,.09,.74,.22,.3,1.1,.57,2.1,.76,2.89,.59,2.4-.28,5.08-1.05,7.12-.42,1.11-.83,2.25-.94,3.45-.32,3.41,4.44,4.25,9.95,4.52s3.84,1.4,11.39,2.77,10.57-.7,11.12-1.72c.23-.44-.46-.99-1.66-1.62,.84,.08,1.7,.14,2.6,.19,5.51,.27,3.84,1.4,11.39,2.77s10.57-.7,11.12-1.72c.49-.91-3.02-2.32-6.76-3.92-.47-.2-.94-.41-1.41-.61-4.21-1.85-6.57-5.62-9.85-9.12-1.41-1.5-2.78-4.5-3.87-7.34,1.15-.38,1.7-.81,1.7-.81,0,0-20.58-94.31-33.41-102.41-1.84-1.16-4.81-2.05-8.56-2.72,.19-.17-.47-.91-1.51-1.84h271.17c-20.92,4.57-42.73,10.45-46.44,15.71-7.42,10.54-18.97,100.31-18.97,100.31l.32,.08c-4.74,5.43-12.45,8.44-17.44,9.31-6.17,1.08-6.31,6.16-6.31,6.16l21.11,.12s16.54,0,16.98-.03c2.35-.17,3.58-8.76,4.1-13.85,.36-.08,.7-.18,1.02-.3,0,0,27.59-71.13,29.82-78.82,.24-.81,1.02-1.46,2.23-1.96,.25,.1,.51,.16,.8,.16h5.5c-.03,.08-.06,.17-.05,.25,0,.09,.12,1.44,.23,3.96-1.64,2.05-2.82,4.25-3.06,6.48-.53,4.87,.21,22.35,1.05,38.2-1.19,10.75-2.99,23.1-5.69,36.84-3.03,1.44-6.07,2.37-8.47,2.78-6.17,1.08-6.31,6.16-6.31,6.16l12.93,.08v.05h2.34v-.03l5.85,.03h14.26c1.55-.01,2.62-.02,2.72-.02,2.82-.21,4.02-12.49,4.33-16.38,.61-.21,1.11-.48,1.44-.83,0,0,.48-6.38,1.1-15.12,4.93-21.67,6.27-40.07,6.44-51.39,6.81-2.96,21.55-7.64,33.56-11.06h11.13c-.75,6.85-1.58,48.02,15.75,94.81h2.35c-12.6-58.32-9.36-94.11-9.34-94.56,0-.09-.02-.17-.05-.25h11.53c-.75,6.85-1.58,48.02,15.75,94.81h2.35c-12.6-58.32-9.36-94.11-9.34-94.56,0-.09-.02-.17-.05-.25h.58c.8,0,1.49-.45,1.85-1.1h.22c.01-.2,.02-.41,.02-.64,.02-.12,.04-.25,.04-.38v-1.15c0-.21-.04-.4-.09-.59v-.22c-.12-11.57,.36-22.59,1.19-32.79h7.53l2.09,11.86,12.32,69.82,8.56,48.54c.15,.83,.88,1.43,1.75,1.43,.76,0,1.35-.65,1.25-1.38l-6.34-47.21-10.69-79.64-.46-3.42h24.52c4.22,0,7.67-3.45,7.67-7.66h0c0-4.22-3.45-7.67-7.67-7.67l-.03-.02h0Zm-412.12-3.36c-.76,0-1.48,.48-1.68,1.22-.3,1.12,.55,2.13,1.62,2.13h-27.31c-1.47-1.52-2.87-3.02-4.11-4.36,.27-.39,.53-.77,.78-1.14,1.23-1.87,2.1-3.42,2.44-3.79,1-1.11-4.04-3.31-6.11-4.97-.66-.53-1.95-4.18-3.38-8.9h54.94l-.51,15.77c-.07,2.25-1.92,4.04-4.17,4.04h-12.51Zm32.87,125.92c.58,2.04,1.13,4.03,1.46,5.4,.59,2.4-.28,5.08-1.05,7.12-.41,1.11-.83,2.25-.94,3.45-.03,.38,0,.72,.09,1.04-3.74-1.95-6.03-5.45-9.11-8.74-.94-1.01-1.87-2.69-2.71-4.54,.89-.31,1.33-.62,1.33-.62,0,0-1.96-11.02-5.04-25.9,7.69,11.94,15.15,22.59,15.15,22.59,0,0,.32,.08,.82,.21h0Zm-85.61-131.92c.37,.76,.82,1.54,1.34,2.33,1.33,1.98,3.07,3.98,4.81,5.63,.52,.49,1.04,.95,1.54,1.37h-1.06c1.41-.02-4.39-4.89-7.01-5.69,.04-.6,.1-1.23,.17-1.9h0c.06-.56,.13-1.13,.21-1.74Zm48.52,25.58h.07l.2,.03c-.09,0-.18-.02-.27-.03h0Zm-9.94-.67c1.08,.04,4.31,.13,5.21,.28h.02c-4.98-.33-10.43-.49-15.96-.53h9.4c.53,.14,.99,.23,1.34,.25h-.01Zm309.91-38.28c3.05,10.77,3.17,17.83,2.62,22.7h-16.41s7.54-10.9,13.79-22.7Zm-33.78,158.08c.97-3.08,1.87-6.12,2.69-9.11,.14,2.16,.22,3.41,.22,3.41,0,0,1.03,.19,2.63,.45-1.5,2.05-3.44,3.79-5.54,5.25h0Z"/><path class="af" d="M2683.82,1072.92h-39.34c3.66-29.97,9.63-49.77,9.72-50.06,.06-.19,.1-.45,.1-.73,0,0,1.33-8.21-12.74-8.41-13.13-.18-19.51,5.25-20.67,7.24-3.69-16.83-8.85-30.78-15.22-32.75-2.72-.84-5.89-1.19-9.2-1.21-.34-1.03-1.17-3.15-2.5-3.67-.11-.04-.28-.07-.5-.08-1.04-2.36-2.06-5.31-2.74-8.78,.05-.14,.09-.28,.13-.43,5.17-6.91,8.19-21.28,5.77-23.78-8.98-9.27-40.83-3.26-28.53,7.69-.15,.4-.27,.79-.38,1.19-1.02,3.72,.44,22.64,5.11,23.14,0,0,1.5,.07,3.64-.1,.08,.95,.2,2.45,.34,4.16-1.07,.25-1.75,.42-1.8,.44-2.46,.89-4.34,3.18-5.28,4.52h0s-15.89,8.29-17.97,16.1c-2.08,7.81-9.72,45.67-12.65,48.32-2.94,2.65-36.7,8.81-36.7,8.81,0,0-.43,.49-.97,1.28-2.33-1.27-6.04-3.2-7.59-3.42-2.12-.31-11.4,7.37-11.95,9.38-1,.67-1.63,1.16-1.63,1.16h-5.2v-1.45h-10.07l-.02-.02c2.87,0,4.9-.01,5.23-.01-.44,0-3.83-.08-4.31-2.64-.04-.2-.06-.42-.06-.65,0-.4,.18-2.49,.47-5.77,.07-.84,.16-1.75,.25-2.73,.17-1.86,.37-3.98,.59-6.27l.16-1.11h68.79l3.9-2.29h0l-5.24-19.66h.03l-.29-1.09h.06l-22.72-84.85-.02-.07h-140.37v.08l-2.05,.68,25.55,107.2h42.2l-1.33,15.76s-.71,4.86,2.91,4.87h5.79v.02h-134.29c.08,0,.15-.01,.22-.02h.47c1.2,.01,2.15-1.02,2.03-2.22l-2.12-21.12h37.79l11.27-91.82h-124.02l-9.69,78.91c-1.8-6.62-3.2-12.17-3.2-12.17-1.01-2.55-5.04-16.94-7.05-19.1h0c-.77-.83-2.51-1.49-4.35-1.99,.5-.82,.75-1.74,.67-2.75-.46-5.57,6.04-5.11,10.03-11.51,3.49-5.6-2.74-7.01,.59-16.06,2.44-6.63-3.92-8.25-3.72-13.78,0,0-.81-10.3-15.63-7.63-3.92,.71-6.61-6.28-13.02-3.79-13.81,5.36-14.62-1.72-18.61,8.22-1.67,4.16-12.29,9-9.05,16.18,3.25,7.18-2.18,12.02,1.63,17.65,1.97,2.91,1.17,8.12,10.48,8.31,1.46,.03,3.19,.91,5.02,2.14-2.99,.59-6.94,1.68-9.7,3.6h-.02v.02c-.65,.44-1.23,.94-1.71,1.49-.03,.03-.06,.06-.08,.09-.72,.86-1.27,2.03-1.69,3.36h0s-2.01,5.31-4.16,12.12c-2.17-.47-4.66-.76-7.52-.72-.35,0-.68,.02-1.01,.04-.73-.03-1.48-.05-2.26-.04-12.62,.19-11.42,8.12-11.42,8.12,0,.27,.04,.52,.09,.71,.08,.26,4.87,17.4,8.17,43.78h-46.48c-4.25,0-7.73,3.48-7.73,7.73h0c0,4.25,3.48,7.73,7.73,7.73h31.91l-.28,2.1-8.97,66.85-8.39,62.5c-.1,.74,.49,1.39,1.26,1.39,.87,0,1.61-.61,1.76-1.45l9.73-55.13,10.88-61.67h0l2.57-14.59h7.64c.95,11.06,1.53,23.21,1.41,36.07v.17c-.05,.18-.09,.36-.09,.55v1.28c0,.12,.02,.23,.04,.35,0,.2,0,.4,.02,.57h.19c.33,.63,1,1.08,1.76,1.08h.46c-.03,.08-.05,.17-.05,.25,.01,.44,2.94,35.34-8.45,92.22h2.13c15.67-45.64,14.92-85.78,14.24-92.47h10.42c-.03,.08-.05,.17-.05,.25,.01,.44,2.94,35.34-8.45,92.22h2.13c15.67-45.64,14.92-85.78,14.24-92.47h40.68c-.68,6.68-1.42,46.83,14.24,92.47h2.13c-11.39-56.88-8.46-91.78-8.45-92.22,0-.08-.02-.17-.05-.25h10.3c-.68,6.68-1.42,46.83,14.24,92.47h2.13c-8.17-40.77-8.97-70.25-8.77-83.84,.23,2.41,.49,5.02,.91,7.71,1.68,10.8,29.84,54.51,29.84,54.51,0,0,.29,.09,.74,.22,.3,1.11,.57,2.11,.77,2.91,.59,2.42-.28,5.13-1.06,7.18-.42,1.12-.84,2.27-.95,3.48-.32,3.45,4.48,4.28,10.04,4.56s3.88,1.41,11.49,2.79,10.67-.7,11.22-1.73c.24-.44-.47-1-1.67-1.64,.84,.08,1.72,.15,2.62,.19,5.56,.28,3.88,1.41,11.49,2.79,7.62,1.38,10.67-.71,11.22-1.73,.49-.91-3.05-2.34-6.82-3.95-.48-.2-.95-.41-1.43-.62-4.25-1.87-6.63-5.68-9.94-9.21-1.42-1.52-2.81-4.54-3.9-7.4,1.16-.39,1.71-.82,1.71-.82,0,0-20.76-95.16-33.71-103.33-1.85-1.17-4.86-2.07-8.64-2.74,.19-.17-.47-.92-1.52-1.86h273.62c-21.11,4.61-43.12,10.54-46.86,15.85-7.48,10.64-19.14,101.22-19.14,101.22l.32,.08c-4.79,5.48-12.56,8.51-17.6,9.39-6.23,1.09-6.37,6.22-6.37,6.22l21.3,.12s16.69,0,17.14-.03c2.37-.18,3.61-8.83,4.14-13.98,.36-.09,.71-.18,1.02-.3,0,0,27.84-71.77,30.09-79.53,.24-.82,1.02-1.47,2.25-1.98,.25,.1,.52,.16,.8,.16h5.55c-.03,.08-.06,.17-.05,.26,0,.09,.12,1.45,.23,4-1.66,2.07-2.84,4.28-3.09,6.54-.54,4.91,.21,22.55,1.06,38.54-1.2,10.85-3.02,23.3-5.74,37.18-3.06,1.46-6.12,2.39-8.55,2.81-6.23,1.09-6.37,6.22-6.37,6.22l13.04,.08s0,.03-.01,.05h2.37v-.03l5.9,.03h14.39c1.56,0,2.64-.02,2.75-.02,2.84-.21,4.06-12.6,4.38-16.53,.62-.22,1.12-.49,1.45-.84,0,0,.48-6.44,1.11-15.26,4.97-21.87,6.33-40.43,6.5-51.85,6.87-2.99,21.74-7.71,33.87-11.16h11.23c-.75,6.91-1.59,48.45,15.89,95.67h2.37c-12.71-58.84-9.44-94.95-9.43-95.41,0-.09-.02-.17-.05-.26h11.63c-.75,6.91-1.59,48.45,15.89,95.67h2.37c-12.71-58.84-9.44-94.95-9.43-95.41,0-.09-.02-.17-.05-.26h.59c.8,0,1.5-.45,1.87-1.11h.22c.01-.2,.02-.42,.02-.65,.02-.12,.04-.25,.04-.38v-1.16c0-.21-.04-.41-.1-.6v-.22c-.12-11.68,.37-22.8,1.2-33.08h7.6l2.11,11.97,12.43,70.45,8.64,48.98c.15,.83,.89,1.45,1.76,1.45,.77,0,1.36-.66,1.26-1.39l-6.39-47.63-10.79-80.36-.46-3.45h24.75c4.25,0,7.73-3.48,7.73-7.73h0c0-4.25-3.48-7.73-7.73-7.73l.05-.1h0Zm-415.85-3.39c-.77,0-1.49,.49-1.69,1.23-.3,1.13,.55,2.15,1.63,2.15h-27.56c-1.48-1.54-2.9-3.05-4.15-4.4,.27-.39,.54-.78,.78-1.15,1.24-1.88,2.12-3.45,2.46-3.82,1.01-1.12-4.08-3.34-6.17-5.01-.67-.54-1.96-4.22-3.41-8.98h55.44l-.51,15.91c-.07,2.27-1.94,4.07-4.21,4.07h-12.61Zm33.17,127.06c.59,2.05,1.14,4.06,1.48,5.44,.59,2.42-.28,5.13-1.06,7.19-.42,1.12-.84,2.27-.95,3.48-.04,.38,0,.73,.09,1.05-3.77-1.97-6.08-5.5-9.19-8.81-.95-1.02-1.89-2.72-2.74-4.59,.9-.31,1.34-.62,1.34-.62,0,0-1.98-11.12-5.08-26.13,7.76,12.05,15.28,22.79,15.28,22.79,0,0,.32,.09,.83,.21h0Zm265.26-146.6c3.08,10.87,3.19,17.99,2.64,22.91h-16.55s7.61-11,13.91-22.91h0Zm-34.08,159.51c.98-3.1,1.88-6.17,2.72-9.19,.14,2.18,.22,3.44,.22,3.44,0,0,1.04,.2,2.65,.45-1.52,2.07-3.47,3.83-5.59,5.3h0Z"/><path class="l" d="M44.66,1019.75h.03l-.31-1.15h.07l-23.97-89.53-.02-.08H4.57c.02,.19,.04,.38,.07,.57,1.51,11.85,3.55,23.46,6.05,34.81,3.48,15.84,7.85,31.19,12.89,45.96,1.15,3.42,2.35,6.8,3.59,10.16,2.56,7.01,5.28,13.89,8.11,20.63,.25,.59,.51,1.2,.77,1.79h10.04l4.11-2.42-5.53-20.74h-.01Zm163.06,47.36c-1.48-1.47-3.52-2.4-5.77-2.4h-41.51c3.86-31.62,10.17-52.53,10.27-52.83,.07-.21,.1-.48,.1-.77,0,0,1.42-8.66-13.44-8.87-13.85-.2-20.59,5.53-21.82,7.63-3.89-17.75-9.34-32.48-16.06-34.56-2.87-.88-6.22-1.24-9.71-1.27-.36-1.1-1.23-3.33-2.64-3.87-.11-.05-.3-.08-.52-.09-1.11-2.5-2.19-5.61-2.89-9.25,.04-.15,.09-.3,.14-.46,5.45-7.29,8.63-22.45,6.08-25.08-9.48-9.78-43.08-3.44-30.11,8.11-.15,.42-.27,.84-.4,1.25-1.08,3.92,.46,23.89,5.4,24.41,0,0,1.58,.08,3.85-.11,.09,1.01,.21,2.58,.35,4.4-1.12,.26-1.84,.44-1.89,.46-2.59,.93-4.58,3.36-5.57,4.77,0,0-4.19,2.18-8.66,5.41-4.46,3.21-9.21,7.46-10.31,11.59-2.2,8.25-10.24,48.2-13.36,50.99-.96,.86-5.01,2.08-10.17,3.35,.37,.85,.75,1.69,1.13,2.54,.45,.99,.89,1.98,1.34,2.96,.33,.7,.65,1.41,.98,2.1,3.85,8.3,7.87,16.37,12,24.16,.36,.7,.74,1.4,1.11,2.1,5.94,11.12,12.1,21.71,18.32,31.71,1.69,2.73,3.4,5.41,5.1,8.05h0c1.17,1.79,2.31,3.56,3.46,5.3,.14,.22,.3,.44,.44,.66,8.08-2.91,19.41-6.43,29.07-9.18h11.86c-.65,5.91-1.35,35.94,8.29,73.7,2.52,2.88,4.94,5.58,7.22,8.09-8.95-50.69-6.2-81.1-6.18-81.53,0-.09-.03-.18-.07-.26h12.28c-.8,7.3-1.68,51.12,16.77,100.95h2.5c-13.41-62.1-9.96-100.21-9.95-100.69,0-.09-.02-.18-.06-.26h.63c.85,0,1.58-.48,1.97-1.18h.23c.02-.22,.02-.45,.02-.69,.03-.13,.04-.26,.04-.4v-1.23c0-.22-.04-.43-.1-.63,0-.09-.01-.18-.01-.24-.12-12.32,.4-24.06,1.27-34.91h8.02l2.23,12.63,13.11,74.34,9.11,51.7c.15,.87,.95,1.53,1.87,1.53,.81,0,1.43-.7,1.32-1.48l-6.75-50.26-11.38-84.82-.48-3.64h26.11c4.5,0,8.17-3.67,8.17-8.17,0-2.23-.92-4.28-2.4-5.76h.05Zm-126.88-2.4h-17.48s8.04-11.61,14.69-24.17c3.24,11.47,3.36,18.97,2.79,24.17Z"/><g><path class="n" d="M2013.02,195.33v193.42c0,1.69-.02,3.36-.06,4.97-.36,15.09-2.34,26.68-4.71,26.68h-.68c-2.2,0-4.06-9.98-4.6-23.46-.05-1.11-.09-2.25-.11-3.4v-.24c-.03-1.48-.05-3-.05-4.55V194.44c3.44,.22,6.85,.52,10.22,.89h0Z"/><path class="n" d="M2005.26,393.25c-37.2,0-67.36,31.89-67.36,71.23h134.73c0-39.34-30.16-71.23-67.36-71.23h0Z"/><path class="i" d="M2010.62,394.12c-1.93-.42-3.91-.64-5.92-.64-24.24,0-43.89,31.79-43.89,71.01h11.83c0-35.97,16.53-65.69,37.97-70.36h0Z"/></g><g><path class="n" d="M1516.38,195.33v193.42c0,1.69-.02,3.36-.06,4.97-.36,15.09-2.34,26.68-4.71,26.68h-.68c-2.2,0-4.06-9.98-4.6-23.46-.05-1.11-.09-2.25-.11-3.4v-.24c-.03-1.48-.05-3-.05-4.55V194.44c3.44,.22,6.85,.52,10.22,.89h0Z"/><path class="n" d="M1508.61,393.25c-37.2,0-67.36,31.89-67.36,71.23h134.73c0-39.34-30.16-71.23-67.36-71.23h-.01Z"/><path class="i" d="M1513.98,394.12c-1.94-.42-3.91-.64-5.92-.64-24.24,0-43.89,31.79-43.89,71.01h11.83c0-35.97,16.53-65.69,37.97-70.36h.01Z"/></g><g><path class="n" d="M546.05,391.69v38.75c0,1.68-.02,3.35-.07,4.96v.02c-.36,15.08-2.33,26.68-4.7,26.68h-.68c-2.2,0-4.06-9.98-4.59-23.46v-.02c-.06-1.1-.09-2.24-.11-3.39,0-.08-.01-.15-.01-.24h0c-.03-1.5-.04-3-.04-4.55v-38.73c3.41-.03,6.82-.04,10.21-.02h-.01Z"/><path class="n" d="M538.28,434.94c-37.2,0-67.36,31.89-67.36,71.23h134.73c0-39.34-30.16-71.23-67.36-71.23h-.01Z"/><path class="i" d="M543.65,435.81c-1.94-.42-3.91-.64-5.92-.64-24.24,0-43.89,31.79-43.89,71.01h11.83c0-35.97,16.53-65.69,37.97-70.36h.01Z"/></g><path class="j" d="M2129.94,1194.19h570.45c-21.74,16.95-49.04,27.07-78.58,27.07h-810.78c-70.57,0-128.3-57.73-128.3-128.3v-417.01c0-70.57,57.73-128.3,128.3-128.3h810.78c32.93,0,63.07,12.58,85.84,33.16h-577.7c-60.28,0-109.59,49.31-109.59,109.59v394.19c0,60.28,49.31,109.59,109.59,109.59h-.01Z"/><path class="t" d="M2144.33,1194.19h564.29c-21.51,16.95-48.51,27.07-77.74,27.07h-802.04c-69.81,0-126.92-57.73-126.92-128.3v-417.01c0-70.57,57.11-128.3,126.92-128.3h802.04c32.58,0,62.39,12.58,84.91,33.16h-571.47c-59.63,0-108.41,49.31-108.41,109.59v394.19c0,60.28,48.78,109.59,108.41,109.59h.01Z"/><path class="aj" d="M2426.94,264.69H1310.01c20.45-22.68,40.72-47.38,60.64-74.23,.38-.53,.77-1.04,1.16-1.55,6.27-8.35,12.86-16.41,19.78-24.18h941c9.61,7.79,18.9,15.86,27.84,24.18,25.03,23.27,47.39,48.56,66.5,75.78h0Z"/><g><path class="aq" d="M1524.25,991.24c1.34-32.95,4.23-61.61,7.68-81.6,5.51-31.86,10.47-50.2,10.53-50.39,.72-2.8,11.21-14.14,34.53-13.79,23.31,.35,21.1,15.22,21.1,15.22h0c0,.5-.06,.97-.17,1.32-.22,.77-21.63,78.36-20.7,178.56,.01,1.41,.17,3.84,.07,5.46,0,0-54.03,1.39-54.04,0-1.88-8.76-.97-33.02,.99-54.77h.01Z"/><path class="ax" d="M1517.46,1040.06c.02,1.4,.75,2.51,1.65,2.51h.02c.9-.02,1.61-1.14,1.62-2.51h46.3c.02,1.4,.75,2.51,1.65,2.51h.02c.92-.02,1.64-1.18,1.63-2.59-.27-28.68,1.37-55.46,3.84-79.1,6.16-58.95,17.53-98.34,17.7-98.89,.1-.35,.17-.82,.17-1.32,0,0,2.21-14.87-21.1-15.22-23.32-.35-33.8,10.99-34.53,13.79-.04,.15-2.85,10.53-6.59,29.19-1.24,6.18-2.57,13.27-3.94,21.2-3.45,19.99-6.34,48.65-7.68,81.6-1.96,21.75-2.65,40.07-.76,48.82h0Z"/><path class="am" d="M1517.46,1040.06c.02,1.4,.75,2.51,1.65,2.51h.02c.9-.02,1.61-1.14,1.62-2.51h46.3c.02,1.4,.75,2.51,1.65,2.51h.02c.92-.02,1.64-1.18,1.63-2.59-.27-28.68,1.37-55.46,3.84-79.1-7.66-37.41-37.24-66.02-44.35-72.45-1.24,6.18-2.57,13.27-3.94,21.2-3.45,19.99-6.34,48.65-7.68,81.6-1.96,21.75-2.65,40.07-.76,48.82h0Z"/><path class="aq" d="M1564.15,1039.54h-.11l-.08-.08c-.06-.06-.07-.1-.08-.2h0v-.12c-.06-1.87-3.91-2.25-10.09-2.25-1.38,0-2.87,.02-4.44,.03-1.78,.02-3.66,.04-5.63,.04-5.89,0-13.64-.17-21.38-1.53-4.97-.87-1.62-39.15,1.91-74.96,.6-6.08,1.07-10.89,1.29-13.71,2.27-30.05,15.59-84.52,15.72-84.96,.58-2.24,8.58-10.73,25.93-10.44,6.52,.1,11.15,1.71,13.77,4.79,2.69,3.17,2.2,6.68,2.18,6.83,0,.34-.04,.72-.13,1.02-.07,.29-12.05,70.19-14.01,87.01-3.33,28.56-4.56,87.24-4.57,88.12v.38l-.27,.03h-.01Zm-10.36-3.19c5.42,0,8.89,.28,10.12,1.56,.19-8.61,1.47-60.59,4.55-86.96,2.01-17.21,13.97-86.88,14.03-87.1,.07-.25,.11-.58,.11-.91,0-.07,.47-3.48-2.06-6.45-2.52-2.95-7.01-4.5-13.36-4.6h-.78c-16.51,0-24.08,7.93-24.63,10.06-.13,.5-13.41,54.48-15.7,84.86-.21,2.83-.69,7.64-1.29,13.73-2.35,23.86-7.25,73.52-2.35,74.38,7.7,1.35,15.42,1.52,21.29,1.52,1.97,0,3.85-.02,5.63-.04,1.58-.02,3.07-.04,4.45-.04h-.01Z"/><path class="ax" d="M1573.78,1042.58h-181.53s4.23-17.11,109.36-14.56c74.4,1.8,72.17,14.56,72.17,14.56Z"/><path class="aq" d="M1588.56,1221.26c-21.05-106.55-15.64-171.93-15.61-172.76,.05-1.64-2.97-3.13-4.6-3.18-1.65-.03-8.91-.48-9.75,.92-1.1,1.84-5.34,82.4,26.03,175.02h3.93Z"/><path class="aq" d="M1419.07,1221.26c21.05-106.55,15.64-171.93,15.61-172.76-.05-1.64,2.97-3.13,4.6-3.18,1.65-.03,8.91-.48,9.75,.92,1.1,1.84,5.34,82.4-26.03,175.02h-3.93Z"/><path class="x" d="M1385.48,1221.26c21.05-106.55,15.63-171.93,15.61-172.76-.05-1.64,2.97-3.13,4.6-3.18,1.65-.03,8.91-.48,9.75,.92,1.1,1.84,5.34,82.4-26.03,175.02h-3.93Z"/><path class="x" d="M1554.74,1221.26c-21.05-106.55-15.64-171.93-15.61-172.76,.05-1.64-2.97-3.13-4.6-3.18-1.65-.03-8.91-.48-9.75,.92-1.1,1.84-5.34,82.4,26.03,175.02h3.93Z"/><path class="aq" d="M1573.67,1048.04h-181.53c-2.05,0-3.72-1.67-3.72-3.72v-2.45c0-2.05,1.67-3.72,3.72-3.72h181.53c2.05,0,3.72,1.67,3.72,3.72v2.44c0,2.05-1.67,3.72-3.72,3.72h0Z"/></g><g><g><path class="ar" d="M1357.47,884.32c-7.71-4.49-11.54-8.09-17.15-8.9-5.62-.81-15.77-1.44-17.18-3.58-3.47-5.24-7.12-15.47-4.56-14.8,2.56,.67,12.17,7.29,15.2,6.25,3.02-1.03-4.61-3.48-2.77-5,1.92-1.59,10.24,2.25,12.17,6.53,.67,1.5,24.57,8.93,24.57,8.93l-10.26,10.56h-.02Z"/><path class="ar" d="M1466.56,1156.65c1.51,1.73,1.7,3.67,.96,5.73,0,0,0,.02-.01,.03-1.38,3.82-5.95,8.09-11.26,12.35-.68,.55-1.28,1.04-1.81,1.51-.14,.12-.28,.24-.41,.36-.11,.09-.21,.19-.31,.28-4.95,4.56-3.09,5.61-11.98,14.87-10.14,10.55-17.12,10.74-19.11,9.78-1.68-.82,1.73-6.42,5.52-12.7,.18-.3,.36-.61,.55-.92,.5-.84,1-1.69,1.5-2.53,4.43-7.57,3.29-11.12,2.24-22.38-.85-9.15-14.24-51.14-14.24-51.14l19.43-3.35s5.85,33.43,12.3,38.58c3.45,2.74,7.31,2.78,10.62,4.81,.23,.14,.46,.29,.69,.44,1.88,1.25,3.8,2.54,5.32,4.27h0Z"/><path class="ab" d="M1466.56,1156.65c1.51,1.73,1.7,3.67,.96,5.73,0,0,0,.02-.01,.03-1.69,3.82-6.15,8.07-11.28,12.31-.67,.56-1.26,1.07-1.79,1.55-.14,.12-.28,.24-.41,.36-.11,.09-.21,.19-.31,.28-4.95,4.56-3.09,5.61-11.98,14.87-10.14,10.55-17.12,10.74-19.11,9.78-1.68-.82,1.73-6.42,5.52-12.7,1.97-.72,11.14-4.45,18.08-13.32,6.11-7.79,10.18-17.8,14.33-23.6,.23,.14,.46,.29,.69,.44,1.88,1.25,3.8,2.54,5.32,4.27h0Z"/><path class="ar" d="M1309.87,1144.51c-1.2,6-9.75,5-19.3,2.66-9.55-2.33-7.28,.44-20.88-1.06-13.59-1.5-17.71-6.57-18.13-8.59-.37-1.79,6.35-2.43,13.55-3.26,.91-.1,1.82-.21,2.73-.33,8.14-1.02,14.09-6.27,21.48-10.58,7-4.08,17.44-20.72,17.44-20.72l18.64,1.48s-9.78,14.86-13.57,21.32c-2.23,3.8-2.11,8.83-1.83,12.71,.14,2.11,.28,4.26-.14,6.38h.01Z"/><path class="ab" d="M1290.57,1147.17c-9.55-2.33-7.28,.44-20.88-1.06-13.59-1.5-17.71-6.57-18.13-8.59-.37-1.79,6.35-2.43,13.55-3.26l.07,.14s8.15,5.78,19.47,6.05c9.22,.22,18.99-2.42,25.36-2.31,.14,2.11,.28,4.26-.14,6.38-1.2,6-9.75,5-19.3,2.66h0Z"/><path class="ap" d="M1381.32,1025.3l40.18,108.14s6.17,.6,12.09-1.11c5.45-1.57,11.69-5.69,11.69-5.69,0,0-9.97-103.83-28.24-125.43-18.27-21.6-35.72,24.09-35.72,24.09Z"/><path class="ab" d="M1540.25,981.55s-115.46-39.04-141.21-30.73-103.06,162.13-103.06,162.13c0,0,1.74,2.32,6.51,4.11,4.43,1.66,15.15,1.55,15.15,1.55,0,0,69.77-59.81,78.08-77.25,8.31-17.44,11.63-34.06,19.94-32.39,8.31,1.66,107.15,40.7,129.58,17.44,22.43-23.26,16.56-53.48,16.56-53.48l-21.55,8.62Z"/><path d="M1469.69,799.93c-1.84-3.81-3.9-10.57-4.91-22.62,.16,1.2,2.23,16.4,8.08,25,24.01,15.76,70.04,68.4,69.12,78.38,0,0,16.21-27.5,16.49-27.66,0,0,29.9-38.03-5.54-59.81-18.01-11.07-17.92-25.28-17.17-37.62,.76-12.34-4.91-65.47-41-51.57,0,0-5.79-2.57-8.38-2.19,0,0,2.12,.41,3.2,1.52-4.18-.25-10.16,.06-15.15,2.9-13.23,7.52-25.07,74.96-4.73,93.67h0Z"/><path class="ar" d="M1474.28,803.1c-.12,.05,11.59,6.14,20.41,3.73,8.29-2.26,13.7-13.01,13.59-13.03-3.51-.7-4.52-5.52-4.45-26.25l-1.59,.31-26.68,5.28s.61,8.4,.62,16.31c.02,6.64-.38,12.94-1.91,13.65h.01Z"/><path class="al" d="M1475.56,773.14s.61,8.4,.62,16.31c14.93-.42,22.82-14.04,26.05-21.59l-26.68,5.28h.01Z"/><path d="M1504.99,764.96s7.82-12.36,9.7-22.93c1.34-7.55-2.5-35.52-30.61-31.49,0,0-8.16,.8-15.84,5.99-6.1,4.12-14.91,13.02-5.06,37.43l2.56,8.25,39.25,2.76h0Z"/><path class="ar" d="M1470.57,780.63s35.32,.58,35.35-21.42c.02-22,4.6-36.75-17.95-38.05-22.55-1.3-26.94,7.09-28.74,14.43-1.79,7.34,2.15,44.32,11.34,45.04Z"/><path d="M1471.88,720.63s9.67,25.81,24.51,29.63,21.28-.16,21.28-.16c0,0-11.38-9.04-13.75-24.83,0,0-24.75-16.92-32.05-4.64h.01Z"/><path d="M1474.28,722.72s-7.22,5.76-8.98,11.37c-1.76,5.6-2.55,17.14-5.92,16.75,0,0-7.29-17.55,.9-27.47,8.68-10.52,14-.64,14-.64h0Z"/><path class="av" d="M1552.94,898.13c3.48-14.61-8.37-42.96-20.74-66.43-11.22-21.27-22.88-38.53-23.92-37.91-29.61,17.57-32.28,2.96-32.28,2.96,0,0-26.89,3.57-34.51,16.68-10.53,18.12-22,72.52-33.27,71.71-5.17-.37-57.23-19.94-57.23-19.94,0,0-8.67,8.12-7.01,18.09,0,0,25.7,17.21,47.44,28.19,11.5,5.81,21.89,9.88,26.77,8.72,9.9-2.33,25.37-25.29,33.73-38.8l.06-.09c10.67,60.38-3.84,74.13,3.5,80.49,7.75,6.72,18.83-3.2,43.2,7.36,15.98,6.93,38.16,16.96,53.09,18.7,7.83,.92,13.67-.44,15.58-5.73,5.54-15.37-21.04-56.18-14.4-84.03v.03h0Z"/><path class="f" d="M1478.43,767.3s-.66,2.79-7.61,2.36c0,0-5.84-.36-5.66-3.43,0,0,5.66-2.19,13.27,1.07h0Z"/><path class="s" d="M1567.33,982.16c-1.9,5.29-7.75,6.65-15.58,5.73-10.33-4.5-54.97-21.8-54.48-33.51,.74-17.35,8.58-17.9,3.05-39.32-4.45-17.19,36.8-49.17,43.38-56.12,12.37,23.47,12.71,24.58,9.23,39.19-6.65,27.85,19.94,68.66,14.4,84.03h0Z"/><path class="s" d="M1451.91,881.43c-8.36,13.51-23.82,36.47-33.73,38.8-4.88,1.15-15.27-2.91-26.77-8.72,8.39,2.17,16.54,2.1,24.46,1.34,8.58-.83,11.08-11.35,24.64-27.14,8.8-10.23,10.96-7.66,11.39-4.28h.01Z"/><path class="ar" d="M1493.27,914.64s-7.48-5.81-14.54-4.43-10.52,6.23-10.25,8.45c.28,2.22,4.02,8.45,9.41,9s20.77-3.32,20.77-3.32l-5.4-9.69h.01Z"/><path class="av" d="M1508.27,793.79s28.79,1.77,38.76,15.67c14.03,19.57,38.4,99.45,31.75,117.73l-87.59-.37s-2.12-9.92,.83-14.72c2.95-4.8,50.95-12.55,53.16-14.77s-27.69-43.2-27.69-49.84-9.22-53.7-9.22-53.7h0Z"/></g><g><g><polygon class="p" points="1480.8 947.96 1374.76 947.96 1355.65 881.3 1461.52 881.3 1480.8 947.96"/><rect class="au" x="1375.13" y="945.36" width="138.63" height="2.6"/></g><path class="au" d="M1408.44,913.55c-.67-2.34,.68-4.24,3.03-4.24s4.79,1.9,5.46,4.24c.67,2.34-.68,4.24-3.03,4.24s-4.79-1.9-5.46-4.24Z"/></g><g><g><polygon class="ab" points="1171.32 947.96 1277.36 947.96 1296.48 881.3 1190.6 881.3 1171.32 947.96"/><rect class="ab" x="1138.37" y="945.36" width="138.63" height="2.6"/></g><path class="ap" d="M1243.69,913.55c.67-2.34-.68-4.24-3.03-4.24s-4.79,1.9-5.46,4.24c-.67,2.34,.68,4.24,3.03,4.24s4.79-1.9,5.46-4.24Z"/></g></g><g><path class="ar" d="M1200.29,828.57s10.76-8.8,14.63-8.84c3.87-.05,11.22-1.98,10.93-.72-.29,1.26-6.48,2.9-5.41,3.48,1.06,.58,10.06-1.84,12.57-.39,2.51,1.45,8.41,7.44,3.67,10.06-4.74,2.61-18.95,6.77-22.62,6.28-3.67-.48-11.99-1.06-11.99-1.06l-1.77-8.8h-.01Z"/><polygon class="ar" points="1062.81 1155.71 1071.84 1193.74 1085.36 1193.66 1085.86 1155.71 1062.81 1155.71"/><polygon class="ar" points="1176.56 1157.33 1202.63 1193.25 1212.26 1180.88 1196.8 1152.33 1176.56 1157.33"/><path class="au" d="M1123.92,697.57h0c0-.1,0-.19-.02-.29-.17-1.9-.39-3.77-.64-5.63h0c-.77-5.71-1.89-11.19-3.24-16.09-.78-2.81-1.63-5.43-2.55-7.79-.14-.36-.28-.7-.41-1.05h0c-2.2-5.37-4.7-9.22-7.26-10.67-4.67-2.65-10.26-2.94-14.18-2.71,1.01-1.04,2.99-1.41,2.99-1.41-2.43-.36-7.84,2.04-7.84,2.04-33.75-13-39.06,36.69-38.35,48.24,.7,11.55-11.35,15.32-28.91,24.41-33.51,17.36-36.45,40.6-36.45,40.6,.26,.16,.53,.33,.82,.53,1.66-2.82,5.09-8.11,7.97-8.9-.12,.26-3.41,7.28-4.65,11.3,4.23,3.23,10.02,8.11,16.29,13.58h0c8.38,7.32,17.6,15.66,24.97,22.42-.05-2.31,.04-5.58,.88-7.32l1.41,8.48,.19,1.11c4.7,4.32,8.41,7.77,10.29,9.54,.19,.18,.36,.34,.52,.48,.55,.51,.84,.79,.84,.79-.27-2.96,3.89-9.96,10.41-18.59,.45-.6,.92-1.21,1.4-1.83,2.1-2.72,4.41-5.58,6.88-8.51,.89-1.06,1.79-2.12,2.71-3.2h0c.74-.87,1.49-1.72,2.27-2.6h0c1.83-2.08,3.71-4.16,5.62-6.24,4.95-5.39,10.13-10.7,15.19-15.53,7.35-7.03,14.43-13.04,20.16-16.81,.22-.32,.43-.64,.62-.97,1.07-1.72,1.98-3.68,2.76-5.69,.24-.6,.46-1.21,.67-1.83,2.25-6.46,3.26-13.05,3.47-14.62-.55,6.48-1.43,11.3-2.41,14.9-.22,.79-.43,1.52-.66,2.19h0c-.5,1.53-1.01,2.78-1.5,3.8,.98-.9,1.88-1.93,2.71-3.06,.54-.74,1.05-1.53,1.52-2.37,5.64-9.82,6.85-25.55,5.48-40.67l.03-.03h0Z"/><path class="ar" d="M1109.91,746.63c.11,.05-10.84,5.74-19.09,3.49-7.75-2.11-12.82-12.17-12.71-12.19,3.28-.65,4.23-5.16,4.16-24.55l1.48,.29,24.96,4.94s-.57,7.85-.58,15.25c-.02,6.21,.36,12.1,1.78,12.77h0Z"/><path class="v" d="M1081.69,664.18s12.31-13.11,27.77-.67c0,0-9-1.56-27.77,.67Z"/><path class="al" d="M1108.72,718.61s-.57,7.85-.58,15.25c-13.97-.39-21.35-13.13-24.37-20.19l24.96,4.94h-.01Z"/><path class="au" d="M1081.18,710.95s-7.32-11.56-9.07-21.45c-1.25-7.06,2.34-33.23,28.64-29.46,0,0,7.64,.75,14.82,5.6,5.71,3.86,13.95,12.18,4.74,35.01l-2.39,7.71-36.72,2.58h-.02Z"/><path class="aw" d="M1208.19,1170.9l-13.23,.41-14.32,.44s-33.07-36.82-51.63-95.86c-.43-1.37-.89-2.76-1.37-4.17-10.15-29.61-31.2-66.77-42.29-100.4-1.77-5.36-3.35-10.4-4.77-15.17-.46-1.53-.9-3.03-1.32-4.51-8.17-28.4-10.54-47.05-12.72-66.97l80.1,.64s12.93,136.05,61.56,285.6h-.01Z"/><path class="as" d="M1135.41,839.28c-.2,38.12,5.59,54.47,5.59,54.47,0,0-34.29,17.42-75.05,4.6-.48-.15-33.75-7.74-33.75-7.74,.68-1.54,6.75-27.23,7.41-28.65,8.61-18.48,15.14-26.58,16.16-32.26,1.89-10.61,1.93-21.58,.99-31.93-2.49-27.4-9.88-50.15-9.88-50.15,11.11-2.53,21.79-6.84,33.35-11.17,2.66,3.31,10.51,6.65,17.56,6.49,8.12-.18,10.75-3.65,10.33-7.45,8.65,4.81,15.56,9.36,15.56,9.36,7.35,12.77,22.27,25.18,23.35,44.77,.27,4.82-11.6,48.6-11.61,49.67h-.01Z"/><path class="ar" d="M1113.38,725.61s-33.04,.54-33.06-20.04c-.02-20.58-4.3-34.37,16.79-35.59,21.1-1.22,25.2,6.63,26.88,13.5s-2.02,41.46-10.61,42.13Z"/><path class="au" d="M1112.16,669.48s-9.05,24.15-22.93,27.72-19.91-.15-19.91-.15c0,0,10.65-8.46,12.86-23.23,0,0,23.15-15.83,29.98-4.34h0Z"/><path class="au" d="M1109.92,671.44s6.76,5.39,8.4,10.63c1.65,5.24,2.39,16.03,5.53,15.66,0,0,6.82-16.41-.84-25.7-8.12-9.84-13.09-.6-13.09-.6h0Z"/><path class="ar" d="M1071.38,1191.61s1.09,7.53-1.72,15.59c0,0-2.21,10.09,7.72,10.27,9.93,.19,12.37-.75,11.24-6.93-1.12-6.18-3.26-16.88-3.26-16.88l-13.98-2.05h0Z"/><path class="ac" d="M1089.94,1223.46h-21.75c-.89-4.47,1.08-14.01,1.4-15.85,.02-.14,.05-.24,.06-.31,0-.07,.02-.1,.02-.1,11.24,10.3,18.28-.26,18.28-.26,0,.02,.02,.03,.02,.05,1.65,4.04,2,14.89,1.97,16.47h0Z"/><path class="ar" d="M1236.19,1211.55s-18.31-20.32-23.93-30.67l-13.62,6.98,30.44,28.58,7.12-.94v-3.96h0Z"/><path class="ac" d="M1247.83,1223.46h-23.04c-3.39,0-6.1-5.62-9.76-12.93-1.5-2.99-4.85-4.64-8.29-5.54l.09,18.47h-5.32l-4.89-19.54c-3.24-5.96-.26-11.36,2.02-16.07,2.65,0,9.79,1.81,23.32,17.05,4.45,5,9.36,6.79,14.23,6.64,.07,.04,.13,.08,.2,.11,11.24,5.06,11.43,11.81,11.43,11.81h.01Z"/><path class="at" d="M1194.96,1171.31l-14.32,.44s-33.07-36.82-51.63-95.86c-.43-1.37-.89-2.76-1.37-4.17-10.15-29.61-31.2-66.77-42.29-100.4-1.77-5.36-3.35-10.4-4.77-15.17-.46-1.53-.9-3.03-1.32-4.51l11.79-8.95s35.41,57.34,46.38,111.31c9.52,46.88,47.66,103.28,57.54,117.31h-.01Z"/><path class="aw" d="M1092.28,1059.03c.2,26.24-1.12,86.58-4.54,111.56h-12.68c-7.01,0-10.51-.1-10.51-.1-8.57-43.43-14.67-79.37-19.12-110.33-3.64-25.41-6.88-47.2-9.37-65.95-2.51-18.87-4.25-34.68-4.87-48.03-.1-2.1-.17-4.15-.21-6.13-.04-2-.05-3.94-.03-5.82l69.21-6.75c-.87,45.98-7.98,116.3-7.87,131.55h0Z"/><path class="at" d="M1075.05,1170.58c-7.01,0-10.51-.1-10.51-.1-8.57-43.43-14.67-79.37-19.12-110.33-3.64-25.41-6.88-47.2-9.37-65.95-2.51-18.87-4.25-34.68-4.87-48.03l25.4,14.94s-16.21,5.72-10.02,49.01c6.18,43.29,19.89,154.34,28.5,160.47h-.01Z"/><path class="n" d="M1078.32,945.74s-4.87,17.61-21.74,15.37c-16.87-2.25-40.85-12.37-40.85-12.37,0,0,7.21-22.77,16.17-52.7,10.85-36.22,13.55-87.13,19.88-116.59,1.78-8.25,13.72-10.93,14.17-15.87l14.28-27.15s20.58,46.83,21.71,58.63c1.12,11.81-23.61,150.67-23.61,150.67h-.01Z"/><path class="ao" d="M1066.53,829.84c-.75,19.11-7.44,51.72-34.31,66.05-.1,.06-.21,.11-.32,.15,10.85-36.22,10.71-70.98,17.04-100.43,14.44-3.01,18,23.7,17.59,34.23Z"/><g><path class="ac" d="M1241.03,818.41h-25.9c-.02,.12-.04,.62-.08,1.31-.1,2.34-.26,6.95-.23,7.37,.36,5.49,4.18,8.52,7.88,9.97h0s.03,.02,.05,.03c.87,.34,1.75,.59,2.56,.77,.62,.13,1.21,.22,1.75,.27,.36,.04,.7,.05,1.01,.05,1.89,0,3.69-.41,5.31-1.14,4.56-2.04,7.75-6.63,7.75-11.92v-5.09c0-.55-.04-1.09-.11-1.63h0Z"/><path class="v" d="M1238.91,818.41h-3.51c.07,.53,.11,1.08,.11,1.63v5.09c0,3.54-1.43,6.77-3.74,9.13-1.15,1.16-2.51,2.11-4.01,2.78-.77,.35-1.59,.62-2.43,.81-.36,.08-.73,.15-1.11,.2,.57,.08,1.16,.12,1.76,.12,.37,0,.74-.02,1.11-.05,1.49-.12,2.9-.5,4.2-1.08,2.43-1.09,4.47-2.91,5.85-5.17h0c.54-.91,.99-1.88,1.31-2.91,.38-1.21,.58-2.51,.58-3.84v-5.09c0-.55-.03-1.1-.1-1.63h-.02Z"/><rect class="ac" x="1222.76" y="837.04" width="10.66" height="1.6"/></g><path class="n" d="M1203.64,823.81s-37.13,12.38-41.77,11.34c-4.64-1.03-11.27-51.34-14.85-68.58-4.61-22.21-22.21-26.62-22.21-26.62l-16.7-4.47s19.12,47.23,19.68,56.78c.56,9.56,2.25,156.29,2.25,156.29,0,0-1.12,6.75,11.81,3.94s16.3-5.62,16.3-5.62c0,0-5.61-41.02-8.24-77.44,13.17-2.25,55.53-23.72,55.53-23.72,6.57-10.32-1.8-21.91-1.8-21.91h0Z"/><path class="ar" d="M1036.6,873.56s14.61-2.58,18.22,1.03,8.59,18.91,4.47,19.77c-4.13,.86-13.75-9.63-16.16-8.77s-6.76,2.18-7.79-.11-8.25-9.05-8.25-9.05l9.51-2.86h0Z"/><path class="ar" d="M1047.26,869.78s-8.94,3.9-10.66,3.78c-1.72-.12,3.78,3.44,3.78,3.44l2.75-2.64s4.93-1.49,4.12-4.58h.01Z"/><path class="n" d="M1080.23,736.44s-32.48,1.43-40.3,8.69c-7.81,7.26-54.61,63.34-55.38,78.03-.77,14.7,41,56.46,41,56.46,0,0,11.6-2.79,16.63-10.1,0,0-25.91-46.2-24.36-48.22s45.44-37.98,49.04-30.01c3.1,6.88,13.38-54.86,13.38-54.86h-.01Z"/></g><g><g><path class="y" d="M1067.37,962.45l-7.38,41.83h0l-20.39,115.56-18.23,103.3c-.27,1.56-1.67,2.71-3.3,2.71-1.44,0-2.55-1.23-2.36-2.61l15.72-117.1,16.81-125.26,2.54-18.9,16.59,.47Z"/><path class="x" d="M1059.99,1004.28c.97-17.98-11.74-23.41-11.74-23.41l2.54-18.9,16.59,.47-7.38,41.83h-.01Z"/></g><g><path class="y" d="M1636.64,1225.85c-1.63,0-3.02-1.15-3.3-2.71l-16.19-91.78-23.29-132-6.51-36.91,16.59-.47,2.88,21.43,20.21,150.58,11.98,89.25c.18,1.38-.92,2.61-2.36,2.61h0Z"/><path class="x" d="M1606.81,983.41c-10.75,4.74-12.95,15.96-12.95,15.96l-6.51-36.91,16.59-.47,2.88,21.43h-.01Z"/></g><path class="a`" d="M983.05,947.96h653.2c6.89,0,12.49,5.6,12.49,12.49v4c0,6.89-5.6,12.49-12.49,12.49H983.05c-6.89,0-12.49-5.6-12.49-12.49v-4c0-6.89,5.6-12.49,12.49-12.49h0Z"/></g><g><path class="n" d="M2099.93,1149.52c-6.39,23.08-53.58,36.67-105.2,44.64h-192.63c-46.43-21.99-46.37-48.2-50.09-120.6-7.69-149.53,73.65-221.72,109.92-209.8,1.51,.5,3.04,1.03,4.61,1.65,10.54,4.1,22.35,11.34,33.83,28.58,0,0,36.06,58.11,65.72,92.76,9.55,11.16,18.45,19.9,25.25,23.47,.08,.04,.15,.09,.24,.12,.36,.19,.71,.35,1.07,.51,15.72,6.96,37.88,21.54,58.12,39.95h.01c31.38,28.52,58.15,66.18,49.15,98.72h0Z"/><path class="ao" d="M2050.77,1050.8c-27.01,8.02-166.02,46.83-198.73,5.68-23.69-29.8-8.94-106.13,4.14-155.52,5.36-20.24,32.13-24.84,43.84-7.48,.12,.17,.23,.34,.34,.51,0,0,36.06,58.11,65.72,92.76,8.59,10.95,17.05,19.39,25.25,23.47,.08,.04,.15,.09,.24,.12,.35,.19,.71,.35,1.07,.51,15.72,6.96,37.88,21.54,58.12,39.95h0Z"/><g><path class="q" d="M1975.17,912.7s7.9,11.69,12.4,36.25c3.95,21.52,7.4,29.46,13.1,33.87,5.7,4.41,37.44,17.44,37.44,17.44l-2.37,5.56s-46.52-6.34-51.75-14.11-25.15-53.71-23.6-64.29c1.55-10.58,14.78-14.72,14.78-14.72h0Z"/><g><path class="ar" d="M2089.09,1169.33c-.42,4.54,5.9,5.64,13.21,6,7.32,.36,5.1,1.86,15.13,3.68,10.03,1.82,14.04-.93,14.77-2.28,.65-1.2-4.01-3.08-8.98-5.21-.62-.26-1.25-.54-1.88-.81-5.59-2.46-8.73-7.47-13.09-12.12-4.13-4.4-8.05-18.5-8.05-18.5l-13.62-2.91s3.83,12.69,5.15,18.11c.78,3.19-.37,6.75-1.39,9.46-.55,1.48-1.11,2.99-1.25,4.58h0Z"/><path class="ab" d="M2102.31,1175.34c7.32,.36,5.1,1.86,15.13,3.68,10.03,1.82,14.04-.93,14.77-2.28,.65-1.2-4.01-3.08-8.98-5.21l-.08,.08s-7.05,2.39-15.19,.18c-6.63-1.8-13.04-5.76-17.61-7.04-.55,1.48-1.11,2.99-1.25,4.58-.42,4.54,5.9,5.64,13.21,6h0Z"/></g><path class="au" d="M1953.42,1007.77s90.53-6.81,107.58,3.94c17.04,10.76,44.38,136.05,44.38,136.05,0,0-1.69,1.35-5.45,1.76-3.5,.38-11.22-1.68-11.22-1.68,0,0-39.28-56.06-42.05-70.18s-2.09-26.72-8.39-27.06-84.85,9.55-96.73-11.38-2.06-41.65-2.06-41.65l13.95,10.21h-.01Z"/><g><path class="ar" d="M2054.45,1183.87c-.42,4.54,5.9,5.64,13.21,6.01,7.32,.36,5.1,1.86,15.13,3.68,10.03,1.82,14.04-.93,14.77-2.28,.65-1.2-4.01-3.08-8.98-5.21-.62-.26-1.25-.54-1.88-.81-5.59-2.46-8.73-7.47-13.09-12.12-4.13-4.4-8.05-18.5-8.05-18.5l-13.62-2.91s3.83,12.69,5.15,18.11c.78,3.19-.37,6.75-1.39,9.46-.55,1.47-1.11,2.99-1.25,4.58h0Z"/><path class="ab" d="M2067.67,1189.88c7.32,.36,5.1,1.86,15.13,3.68,10.03,1.82,14.04-.93,14.77-2.28,.65-1.2-4.01-3.08-8.98-5.21l-.08,.08s-7.05,2.39-15.19,.18c-6.63-1.8-13.04-5.76-17.61-7.04-.55,1.47-1.11,2.99-1.25,4.58-.42,4.54,5.9,5.64,13.21,6.01h0Z"/></g><path class="p" d="M1935.69,1013.38s80.42,3.81,97.04,15.22c16.61,11.41,39.05,137.67,39.05,137.67,0,0-1.74,1.29-5.52,1.55-3.52,.24-11.15-2.12-11.15-2.12,0,0-37.07-57.55-39.29-71.77s-1.05-26.79-7.33-27.37-85.16,6.24-96.21-15.14c-11.06-21.38,23.41-38.05,23.41-38.05h0Z"/><path d="M1964.35,836.4c-3.57-2.36-8-2.88-11.12-2.91,.86-.77,2.45-.97,2.45-.97-1.91-.42-6.34,1.21-6.34,1.21-26.13-12.12-32.98,27.09-33.03,36.3-.05,9.21-.69,19.78-14.63,27.11-27.42,14.43-7.08,44.18-7.08,44.18,.2,.14,10.89,21.38,10.89,21.38-.18-7.46,36.63-44.3,55.26-54.83,4.77-6.11,7.07-17.3,7.24-18.18-1.35,8.91-3.21,13.83-4.77,16.57,16.04-12.9,10.58-63.61,1.12-69.86h.01Z"/><path class="ar" d="M1960.29,902.5c-.46-.19-.99-.4-1.55-.6,.03-1.19,.1-2.46,.19-3.75,.41-5.88,1.27-12.09,1.27-12.09l-19.57-5.25-1.16-.31c-.54,8.62-2.3,14.53-3.84,18.52-2.03,.09-3.31,.21-3.31,.21-.33,1.17,8.31,19.05,19.73,19.52,3.74,.15,13.97-13.86,8.25-16.26h0Z"/><path class="q" d="M1960.19,886.06s-.87,6.21-1.27,12.09c-11.08-1.05-16.27-11.57-18.29-17.34l19.57,5.25h-.01Z"/><path d="M1938.72,878.51s-5.2-9.58-6.07-17.53c-.62-5.68,3.62-26.28,24.31-21.89,0,0,6.03,1,11.48,5.24,4.33,3.37,10.44,10.42,1.91,28.07l-2.31,6-29.31,.1h0Z"/><path class="ar" d="M1963.53,891.87s-26.28-1.32-25.21-17.67c1.07-16.35-1.6-27.54,15.23-27.39s19.67,6.6,20.64,12.15-3.8,32.83-10.66,32.91Z"/><path d="M1965.53,847.21s-8.47,18.71-19.69,20.81c-11.22,2.1-15.81-1.17-15.81-1.17,0,0,8.91-6.16,11.45-17.78,0,0,19.24-11.35,24.05-1.86Z"/><path d="M1963.64,848.65s5.08,4.64,6.11,8.89,1.05,12.86,3.57,12.74c0,0,6.29-12.68,.69-20.46-5.93-8.25-10.37-1.17-10.37-1.17Z"/><path class="p" d="M1989.83,1009.14c-2.13,2.54-8.77,3.32-15.87,4.49-5.58,.92-11.45,2.08-15.62,4.53-9.47,5.56-40.43,24.36-49.5,23.51-3.52-.33-2.86-7.05-.73-15.96,3.35-14.07,10.37-33.61,10.37-42.11,0-4.64,1.54-15.61,3.6-28.16,.17-1.01,.34-2.03,.51-3.06,4.08-24.39,9.72-53.15,9.72-53.15,0,0,6.29,13.74,18.56,13.74s9.42-10.47,9.42-10.47c0,0,11.19,1.32,13.84,4.16,2.65,2.85,9.35,15.16,10.68,18.52,0,0,.27,4.27-10.31,6.31,0,0,2.58,11.6,2.88,19.33,.23,5.71-3.9,23.59-5.08,34.7-.42,3.94-.48,7.03,.16,8.43,.82,1.8,3.47,3.58,6.48,5.34,5.98,3.48,13.41,6.83,10.89,9.85h0Z"/><path class="au" d="M1978.94,999.29c6.79,11.58-18.41,15.06-22.58,17.51-9.47,5.56-38.45,25.73-47.52,24.88-3.52-.33-2.86-7.05-.73-15.96,3.35-14.07,10.37-33.61,10.37-42.11,0-4.64,1.54-15.61,3.6-28.16l10.92-10.49s11.7,30.25,22.86,35.2c5.84,2.6,11.95,4.31,16.44,5.35-.42,3.94-.48,7.03,.16,8.43,.82,1.8,3.47,3.58,6.48,5.34h0Z"/><path class="ar" d="M1928.95,908.29s-9.34-5.67-18.37,5.09,6.42,87.65,19.79,91.6c14.86,4.39,57.78-.7,57.78-.7l-.83-6.71s-45.7-8.76-47.59-11.2-6.04-76.83-10.79-78.07h.01Z"/><path class="p" d="M1932.31,899.24s-19.18,1.73-24.74,8.04c-5.57,6.31-7.2,23.4-7.2,23.4,0,0,16.89,13.63,37.23,8.34l-5.29-39.78Z"/><g><rect class="ae" x="1992.65" y="1007.87" width="25.33" height="2.99"/><path class="ae" d="M2012.6,1010.45c.25-.99,23.28-37.16,23.28-37.16h51.26l-25.71,36.19-48.83,.97h0Z"/><path d="M2014.75,1010.86c.25-.99,23.36-37.57,23.36-37.57h49.03l-24.46,37.57h-47.93Z"/><path class="ae" d="M2057.97,992.2c-.5,1.46-2.1,2.65-3.57,2.65s-2.25-1.19-1.74-2.65c.5-1.47,2.1-2.65,3.57-2.65s2.24,1.19,1.74,2.65Z"/></g><path class="ar" d="M1983.61,997.17s14.88-2.88,16.56-2.16c1.68,.72,11.04,9.12,10.08,10.8s-4.8,2.88-9.12,1.44c-4.32-1.44-13.68-2.16-15.36-4.32-1.68-2.16-2.16-5.76-2.16-5.76Z"/></g></g><g><g><g><path class="aq" d="M317.35,1068.28c-.91-21.95-2.86-41.05-5.19-54.37-3.72-21.23-7.07-33.44-7.11-33.57-.49-1.87-7.57-9.42-23.32-9.19-15.75,.23-14.25,10.14-14.25,10.14h0c0,.33,.04,.65,.11,.88,.15,.51,14.61,52.21,13.98,118.96,0,.94-.12,2.56-.05,3.64,0,0,36.49,.93,36.5,0,1.27-5.83,.65-22-.67-36.49h0Z"/><path class="ax" d="M321.94,1100.81c-.01,.93-.51,1.67-1.12,1.67h-.01c-.61-.01-1.09-.76-1.1-1.67h-31.27c-.01,.93-.51,1.67-1.12,1.67h-.01c-.62-.01-1.11-.78-1.1-1.72,.18-19.11-.92-36.95-2.59-52.7-4.16-39.27-11.84-65.52-11.95-65.88-.07-.23-.11-.54-.11-.88,0,0-1.49-9.91,14.25-10.14,15.75-.23,22.83,7.32,23.32,9.19,.03,.1,1.93,7.01,4.45,19.45,.84,4.12,1.74,8.84,2.66,14.12,2.33,13.32,4.28,32.42,5.19,54.37,1.32,14.49,1.79,26.7,.52,32.53h-.01Z"/><path class="am" d="M321.94,1100.81c-.01,.93-.51,1.67-1.12,1.67h-.01c-.61-.01-1.09-.76-1.1-1.67h-31.27c-.01,.93-.51,1.67-1.12,1.67h-.01c-.62-.01-1.11-.78-1.1-1.72,.18-19.11-.92-36.95-2.59-52.7,5.17-24.92,25.16-43.99,29.96-48.27,.84,4.12,1.74,8.84,2.66,14.12,2.33,13.32,4.28,32.42,5.19,54.37,1.32,14.49,1.79,26.7,.52,32.53h-.01Z"/><path class="aq" d="M290.34,1100.47l-.11-.1v-.18c-.01-.58-.87-39.94-3.09-58.71-1.32-11.17-9.42-57.77-9.47-57.97-.06-.2-.09-.45-.09-.7-.01-.07-.34-2.39,1.44-4.49,1.76-2.08,4.9-3.16,9.33-3.23h.53c11.36,0,16.59,5.49,16.98,6.97,.08,.28,9.06,36.27,10.62,56.6,.14,1.88,.46,5.09,.87,9.15,2.39,23.85,4.65,49.35,1.29,49.93-5.23,.9-10.46,1.02-14.44,1.02-1.33,0-2.6-.01-3.8-.03-1.06-.01-2.07-.02-3-.02-4.18,0-6.78,.25-6.82,1.5v.06h0c0,.11-.03,.21-.17,.21h-.07Zm-1.45-125.04h-.53c-4.32,.06-7.37,1.11-9.06,3.1-1.68,1.98-1.36,4.21-1.36,4.23,0,.24,.03,.46,.08,.63,.04,.15,8.12,46.59,9.48,58.03,2.05,17.33,2.94,52.19,3.07,57.94,.83-.85,3.17-1.04,6.84-1.04,.93,0,1.94,.01,3,.02,1.2,.01,2.47,.03,3.8,.03h0c3.96,0,9.18-.12,14.38-1.02,3.31-.57,0-33.65-1.59-49.54-.41-4.06-.73-7.27-.87-9.16-1.56-20.35-10.52-56.2-10.61-56.53-.37-1.42-5.48-6.7-16.64-6.7h.01Z"/><path class="ax" d="M283.89,1102.48h122.61s-2.86-11.4-73.87-9.7c-50.25,1.2-48.75,9.7-48.75,9.7h.01Z"/><path class="aq" d="M273.91,1221.53c14.22-70.99,10.56-114.55,10.54-115.1-.04-1.09,2.01-2.08,3.1-2.12,1.11-.02,6.02-.32,6.59,.61,.74,1.23,3.61,54.9-17.58,116.61h-2.65Z"/><path class="aq" d="M388.4,1221.53c-14.22-70.99-10.56-114.55-10.54-115.1,.04-1.09-2.01-2.08-3.1-2.12-1.11-.02-6.02-.32-6.59,.61-.74,1.23-3.61,54.9,17.58,116.61h2.65Z"/><path class="x" d="M411.08,1221.53c-14.22-70.99-10.56-114.55-10.54-115.1,.04-1.09-2.01-2.08-3.1-2.12-1.11-.02-6.02-.32-6.59,.61-.74,1.23-3.61,54.9,17.58,116.61h2.65Z"/><path class="x" d="M296.75,1221.53c14.22-70.99,10.56-114.55,10.54-115.1-.04-1.09,2.01-2.08,3.1-2.12,1.11-.02,6.02-.32,6.59,.61,.74,1.23,3.61,54.9-17.58,116.61h-2.65Z"/><path class="aq" d="M283.95,1099.54h122.65c1.38,0,2.49,1.12,2.49,2.49v1.59c0,1.38-1.12,2.49-2.49,2.49h-122.65c-1.38,0-2.49-1.12-2.49-2.49v-1.59c0-1.38,1.12-2.49,2.49-2.49Z"/></g><g><path class="ar" d="M381.3,1024.96s22.41,25.6,27,25.18c4.69-.43,7.55-1.9,11.63,0,2.93,1.37,12.2,8.82,9.71,8.33s-6.99-1.07-8.18-1.18c-1.64-.16-4.26-.19-6.04-.5-1.13-.2-5.2-.31-6.56-.36-5.9-.19-33.8-16.5-33.8-16.5l6.24-14.97h0Z"/><path class="p" d="M365.75,894.96s-1.01-12.86-19.51-9.52c-4.89,.88-8.25-7.84-16.25-4.73-17.24,6.69-18.25-2.14-23.23,10.25-2.08,5.19-15.34,11.23-11.29,20.2,4.05,8.97-2.73,15,2.03,22.03,2.46,3.64,1.46,10.14,13.08,10.37,5.79,.12,14.8,10.84,21.3,12.79,6.5,1.95,26-.86,25.27-9.77-.57-6.95,7.54-6.37,12.52-14.37,4.35-6.99-3.41-8.75,.74-20.04,3.04-8.28-4.89-10.29-4.65-17.2h-.01Z"/><g><path class="ar" d="M467.42,1211.28c-.4,4.3,5.59,5.35,12.53,5.69,6.93,.35,4.84,1.77,14.34,3.49s13.31-.88,14-2.16c.61-1.14-3.81-2.92-8.52-4.93-.59-.25-1.19-.51-1.78-.77-5.3-2.33-8.27-7.08-12.41-11.49-3.91-4.17-7.63-17.54-7.63-17.54l-12.92-2.76s3.63,12.03,4.89,17.16c.74,3.02-.35,6.4-1.32,8.97-.52,1.4-1.05,2.83-1.19,4.35h0Z"/><path class="ab" d="M479.95,1216.98c6.93,.35,4.84,1.77,14.34,3.49s13.31-.88,14-2.16c.61-1.14-3.81-2.92-8.52-4.93l-.07,.08s-6.68,2.27-14.4,.17c-6.29-1.71-12.37-5.46-16.7-6.68-.52,1.4-1.05,2.83-1.19,4.35-.4,4.3,5.59,5.35,12.53,5.69h.01Z"/></g><path class="au" d="M338.81,1058.13s85.82-6.46,101.98,3.74,42.07,128.97,42.07,128.97c0,0-1.6,1.28-5.17,1.67-3.32,.36-10.64-1.59-10.64-1.59,0,0-37.24-53.14-39.86-66.53s-1.98-25.34-7.96-25.66c-5.97-.32-80.43,9.05-91.7-10.79s-1.95-39.48-1.95-39.48l13.23,9.67h0Z"/><g><path class="ar" d="M437.89,1211.77c-.4,4.3,5.59,5.35,12.53,5.69,6.94,.35,4.84,1.77,14.34,3.49s13.31-.88,14-2.16c.61-1.14-3.81-2.92-8.52-4.94-.59-.25-1.19-.51-1.78-.77-5.3-2.33-8.27-7.08-12.41-11.49-3.91-4.17-7.63-17.54-7.63-17.54l-12.92-2.76s3.63,12.03,4.89,17.16c.74,3.02-.35,6.4-1.32,8.97-.52,1.4-1.05,2.83-1.19,4.34h0Z"/><path class="ab" d="M450.42,1217.46c6.94,.35,4.84,1.77,14.34,3.49s13.31-.88,14-2.16c.61-1.14-3.81-2.92-8.52-4.94l-.07,.08s-6.68,2.27-14.4,.17c-6.29-1.71-12.37-5.46-16.7-6.68-.52,1.4-1.05,2.83-1.19,4.34-.4,4.3,5.59,5.35,12.53,5.69h.01Z"/></g><path class="p" d="M325.31,1050.15s76.24,3.61,91.99,14.43c15.75,10.82,37.02,130.51,37.02,130.51,0,0-1.65,1.22-5.23,1.47-3.33,.23-10.57-2.01-10.57-2.01,0,0-35.14-54.55-37.24-68.03s-1-25.39-6.95-25.95c-5.96-.55-80.73,5.91-91.21-14.35-10.48-20.27,22.2-36.07,22.2-36.07h-.01Z"/><path class="ar" d="M302.49,952.73s.06-.08,.1-.12c.6-.68,1.33-1.31,2.13-1.86l.03-.02h0c6.23-4.35,17.36-5.28,17.36-5.28h0s1.22-.11,3.14-.2c1.46-3.78,3.12-9.38,3.64-17.56l1.1,.29,18.55,4.98s-.82,5.89-1.21,11.46c-.08,1.22-.15,2.42-.18,3.55,.54,.2,1.03,.39,1.47,.57h0s10.61,1.25,13.12,3.95,7.53,20.66,8.79,23.85l-71.42,1.17s-1.79-18.66,3.37-24.77h.01Z"/><path class="ak" d="M391.08,1025.11c-.42,.46-1.52,2.42-3.07,4.77-.46,.7-.97,1.44-1.51,2.19-2.26,3.14-5.13,6.41-8.1,7.56-1.11,.44-2.23,.57-3.35,.31-1.67-.41-4.34-2.3-7.04-4.85-2.19-2.08-4.39-4.59-6.06-7.09-.66-.99-1.23-1.98-1.69-2.93-.1,.76-.19,1.48-.26,2.18h0c-.4,3.75-.45,6.66,.15,8,.78,1.69,3.3,3.39,6.14,5.06,5.66,3.3,12.72,6.47,10.32,9.34-2.02,2.41-8.31,3.14-15.05,4.25-5.29,.87-10.85,1.97-14.81,4.3-.15,.09-.31,.18-.47,.27-9.5,5.59-38,22.81-46.45,22.01-3.33-.32-2.71-6.68-.69-15.14,3.18-13.33,9.84-31.86,9.84-39.9,0-4.4-9.87-47.94-9.87-47.94,0,0-1.8-18.65,3.36-24.77l2.23-1.99h.03c.33,.18,21.92,12.33,34.52,13.01,12.7,.68,22.48-11.27,22.48-11.27,2.51,2.7,7.53,20.67,8.79,23.84,0,0,10.25,40.43,12.85,42.52,2.61,2.09,8.96,4.86,7.69,6.25l.02,.02h0Z"/><path class="q" d="M348.53,932.96s-.82,5.89-1.21,11.46c-10.5-1-15.42-10.96-17.34-16.44l18.55,4.98h0Z"/><path class="ar" d="M351.69,938.47s-24.92-1.25-23.9-16.75c1.02-15.5-1.51-26.11,14.44-25.97s18.65,6.26,19.57,11.52-3.6,31.12-10.11,31.2Z"/><path class="p" d="M352.74,901.27s-5.95-1.39-7.9,1.51-.56,4.52-4.9,5.73c-4.34,1.22-5.82,1.13-5.39,4.17s-4.37,5.3-4.57,7.73c-.21,2.43-2.2,3.65-4.12,3.82-1.91,.17-1.04-31.37,6.34-32.76,7.39-1.39,14.51,.26,16.68,2s3.85,7.79,3.85,7.79h.01Z"/><path class="p" d="M352.74,901.27s5.79-.41,6.83,2.9c1.04,3.3-.35,4.08,1.13,6.08s.62,5.54,.62,5.54c0,0,11.45-21.09-.62-22.48-12.08-1.39-11.76,1.07-7.96,7.96Z"/><path class="e" d="M388.02,1029.88c-.46,.7-.97,1.44-1.51,2.19-2.26,3.14-5.13,6.41-8.1,7.56-1.11,.44-2.23,.57-3.35,.31-1.67-.41-4.34-2.3-7.04-4.85-2.19-2.08-4.39-4.59-6.06-7.09-.66-.99-1.23-1.98-1.69-2.93-.1,.76-.19,1.48-.26,2.18v-3.53s1.4-61.77,3.53-34.6c1.56,19.88,16.57,34.42,24.48,40.77h0Z"/><path class="e" d="M312.55,987.37s-30.61,52.71,33.75,71.11c.17-.1,.33-.19,.48-.28,3.95-2.32,9.52-3.42,14.81-4.3,6.74-1.1,13.03-1.85,15.04-4.25,2.4-2.87-4.65-6.05-10.32-9.34-2.85-1.66-8.84-3.28-9.62-4.97-.6-1.33-44.14-47.96-44.14-47.96h0Z"/></g></g><g><path class="y" d="M271.98,1046.01l-4.92,27.87h0l-13.58,76.98-12.14,68.81c-.18,1.04-1.11,1.8-2.2,1.8-.96,0-1.7-.82-1.57-1.74l10.47-78,11.2-83.44,1.69-12.59,11.05,.32h0Z"/><path class="x" d="M267.07,1073.88c.65-11.97-7.82-15.59-7.82-15.59l1.69-12.59,11.05,.32-4.92,27.87h0Z"/><g><path class="y" d="M935.27,1221.47c-1.09,0-2.02-.76-2.2-1.8l-10.79-61.14-15.51-87.93-4.34-24.59,11.05-.32,1.92,14.27,13.46,100.3,7.98,59.45c.12,.92-.61,1.74-1.57,1.74v.02h0Z"/><path class="x" d="M915.4,1059.97c-7.16,3.16-8.63,10.63-8.63,10.63l-4.34-24.59,11.05-.32,1.92,14.27h0Z"/></g><path class="a`" d="M945.71,1055.66H219.76c-5.31,0-9.65-4.34-9.65-9.65h0c0-5.31,4.34-9.65,9.65-9.65H945.7c5.31,0,9.65,4.34,9.65,9.65h0c0,5.31-4.34,9.65-9.65,9.65h0Z"/></g><g><polygon class="an" points="524.21 1007.19 372.56 1007.19 386.63 892.58 538.28 892.58 524.21 1007.19"/><g><polygon class="u" points="541.43 892.58 527.36 1007.18 375.7 1007.18 378.91 981.06 389.77 892.58 541.43 892.58"/><path class="o" d="M541.43,892.58l-14.07,114.6h-151.66l3.21-26.12c125.19,7.55,129.27-71.48,128.7-88.48h33.82Z"/><path class="an" d="M470.15,942.01c-.37-3.64-2.27-7.27-5.91-7.72l-6.38,.05c-3.84-.47-7.26,2.45-7.39,6.32l-2.79,86.38c-.09,2.83-2.42,5.08-5.25,5.08h-15.74c-.96,0-1.86,.61-2.11,1.54-.38,1.41,.69,2.69,2.04,2.69h49.33c.1,0,.19-.02,.28-.03h.59c1.5,.02,2.69-1.28,2.54-2.77l-9.2-91.54h-.01Z"/><path class="u" d="M473.64,942.01c-.37-3.64-2.27-7.27-5.91-7.72l-6.38,.05c-3.84-.47-7.26,2.45-7.39,6.32l-2.79,86.38c-.09,2.83-2.42,5.08-5.25,5.08h-15.74c-.96,0-1.86,.61-2.11,1.54-.38,1.41,.69,2.69,2.04,2.69h49.33c.1,0,.19-.02,.28-.03h.59c1.5,.02,2.69-1.28,2.54-2.77l-9.2-91.54h-.01Z"/></g></g><g><g><path class="an" d="M644.61,930.25l-8.41,100s-.88,6.06,3.63,6.07c7.41,.02,36.9,0,36.9,0,0,0-5.58-1.26-5.51-4.1,.08-3.35,9.83-102.91,9.83-102.91l-36.43,.95h-.01Z"/><path class="k" d="M679.12,1034.5c-1.46,0-29.62,.09-36.84,0-3.15-.04-3.7-2.8-3.72-4.58-.01-.86,.1-1.49,.1-1.49l.22-2.6,.56-6.62,.49-5.85,.63-7.52,.53-6.35,5.98-71.05,36.43-.95s-4.11,41.67-7.01,72c-.32,3.38-.63,6.62-.92,9.64-.09,.97-.18,1.91-.27,2.83-.27,2.87-.52,5.5-.73,7.83-.11,1.23-.22,2.37-.31,3.41-.37,4.09-.59,6.7-.59,7.2,0,.29,.02,.56,.07,.81,.6,3.19,4.83,3.29,5.38,3.29h0Z"/><polygon class="u" points="556.13 875.84 576.62 958.12 579.42 969.39 588.96 1007.72 766.22 1007.72 731.05 875.84 556.13 875.84"/><polygon class="k" points="556.13 875.84 553.29 876.78 585.19 1010.58 588.96 1007.72 556.13 875.84"/><polygon class="an" points="585.19 1010.58 761.35 1010.58 766.22 1007.72 588.96 1007.72 585.19 1010.58"/><rect class="u" x="647.05" y="1034.55" width="38.14" height="1.81"/><polygon class="u" points="757.63 983.41 728.87 877.58 555.85 877.58 555.85 875.84 731.05 875.84 759.72 983.18 757.63 983.41"/><polygon class="an" points="675.5 1010.58 675.3 1011.96 639.43 1019.21 639.92 1013.36 640.16 1010.58 675.5 1010.58"/><path class="o" d="M679.12,1034.5c-1.46,0-29.62,.09-36.84,0-3.15-.04-3.7-2.8-3.72-4.58l35.7-6.72c-.37,4.09-.59,6.7-.59,7.2,0,.29,.02,.56,.07,.81,.6,3.19,4.83,3.29,5.38,3.29h0Z"/><polygon class="o" points="666.83 981.02 588.96 1007.72 579.42 969.39 666.83 981.02"/><polygon class="av" points="556.13 875.84 731.05 875.84 759.43 981.83 581.62 981.83 556.13 875.84"/></g><path class="an" d="M682.29,995.22c-.51-2.6-3.02-4.71-5.62-4.71s-4.3,2.11-3.79,4.71,3.02,4.71,5.62,4.71,4.3-2.11,3.79-4.71Z"/><polygon points="751.18 977.23 587.4 977.23 568.86 903.35 567.43 897.68 566.22 892.85 563.38 881.51 724.79 881.51 727.92 892.85 729.25 897.68 730.81 903.35 751.18 977.23"/><polygon class="g" points="727.92 892.85 566.22 892.85 563.38 881.51 724.79 881.51 727.92 892.85"/><g><path d="M570.05,886.64c-.19-.78,.28-1.42,1.06-1.42s1.57,.63,1.77,1.42c.19,.78-.28,1.42-1.06,1.42s-1.57-.63-1.77-1.42Z"/><path d="M574.76,886.64c-.19-.78,.28-1.42,1.06-1.42s1.57,.63,1.77,1.42-.28,1.42-1.06,1.42-1.57-.63-1.77-1.42Z"/><path d="M579.83,886.64c-.2-.78,.28-1.42,1.06-1.42s1.57,.63,1.77,1.42c.2,.78-.28,1.42-1.06,1.42s-1.57-.63-1.77-1.42Z"/></g><g><path class="g" d="M609.7,918.31h-24.7c-.76,0-1.54-.62-1.73-1.39h0c-.19-.76,.28-1.39,1.04-1.39h24.7c.76,0,1.54,.62,1.73,1.39h0c.19,.76-.28,1.39-1.04,1.39Z"/><path class="g" d="M611.02,923.59h-24.7c-.76,0-1.54-.62-1.73-1.39h0c-.19-.76,.28-1.39,1.04-1.39h24.7c.76,0,1.54,.62,1.73,1.39h0c.19,.76-.28,1.39-1.04,1.39Z"/><path class="g" d="M612.33,928.88h-24.7c-.76,0-1.54-.62-1.73-1.39h0c-.19-.76,.28-1.39,1.04-1.39h24.7c.76,0,1.54,.62,1.73,1.39h0c.19,.76-.28,1.39-1.04,1.39Z"/></g><g><path class="g" d="M653.85,918.31h-24.7c-.76,0-1.54-.62-1.73-1.39h0c-.19-.76,.28-1.39,1.04-1.39h24.7c.76,0,1.54,.62,1.73,1.39h0c.19,.76-.28,1.39-1.04,1.39Z"/><path class="g" d="M655.17,923.59h-24.7c-.76,0-1.54-.62-1.73-1.39h0c-.19-.76,.28-1.39,1.04-1.39h24.7c.76,0,1.54,.62,1.73,1.39h0c.19,.76-.28,1.39-1.04,1.39Z"/><path class="g" d="M656.49,928.88h-24.7c-.76,0-1.54-.62-1.73-1.39h0c-.19-.76,.28-1.39,1.04-1.39h24.7c.76,0,1.54,.62,1.73,1.39h0c.19,.76-.28,1.39-1.04,1.39Z"/></g><g><path class="g" d="M696.32,918.31h-24.7c-.76,0-1.54-.62-1.73-1.39h0c-.19-.76,.28-1.39,1.04-1.39h24.7c.76,0,1.54,.62,1.73,1.39h0c.19,.76-.28,1.39-1.04,1.39Z"/><path class="g" d="M697.64,923.59h-24.7c-.76,0-1.54-.62-1.73-1.39h0c-.19-.76,.28-1.39,1.04-1.39h24.7c.76,0,1.54,.62,1.73,1.39h0c.19,.76-.28,1.39-1.04,1.39Z"/><path class="g" d="M698.95,928.88h-24.7c-.76,0-1.54-.62-1.73-1.39h0c-.19-.76,.28-1.39,1.04-1.39h24.7c.76,0,1.54,.62,1.73,1.39h0c.19,.76-.28,1.39-1.04,1.39Z"/></g><g><g><g><path class="g" d="M719.17,900.41l1.22,4.88c.22,.9-.33,1.63-1.22,1.63h-139.7c-.89,0-1.81-.73-2.03-1.63l-1.22-4.88c-.22-.89,.33-1.63,1.22-1.63h139.7c.89,0,1.81,.73,2.03,1.63Z"/><path class="u" d="M676.47,898.79l2.03,8.13h-99.03c-.89,0-1.81-.73-2.03-1.63l-1.22-4.88c-.22-.89,.33-1.63,1.22-1.63h99.03Z"/></g><g><path class="av" d="M695.96,901.98h-1.55l-.16-.62h2.37l.14,.54-.79,2.74h-.82l.81-2.66h0Z"/><path class="av" d="M697.43,903c-.24-.95,.17-1.7,1.04-1.7s1.64,.74,1.88,1.7c.24,.95-.16,1.7-1.04,1.7s-1.64-.74-1.88-1.7Zm2.18,0c-.15-.6-.55-1.05-.98-1.05s-.6,.44-.45,1.05c.15,.6,.55,1.05,.98,1.05s.6-.44,.45-1.05Z"/><path class="av" d="M700.63,902.16c-.12-.46,.11-.84,.59-.84s.89,.37,1,.84c.12,.46-.11,.84-.59,.84s-.89-.37-1-.84Zm2.53-.8h.56l-1.58,3.29h-.56l1.58-3.29Zm-1.43,.8c-.06-.22-.23-.41-.41-.41-.2,0-.25,.19-.2,.41,.05,.22,.23,.41,.41,.41,.2,0,.25-.19,.2-.41Zm1.34,1.68c-.12-.46,.11-.84,.59-.84s.89,.37,1,.84c.12,.46-.11,.84-.59,.84s-.89-.37-1-.84Zm1.1,0c-.06-.22-.23-.41-.41-.41-.2,0-.25,.19-.2,.41,.06,.22,.23,.41,.41,.41,.2,0,.25-.19,.2-.41Z"/></g></g><g><path class="g" d="M664.88,967.38h-12.38c-1.74,0-3.5-1.41-3.93-3.15l-5.99-24.01c-.43-1.74,.62-3.15,2.36-3.15h12.38c1.74,0,3.5,1.41,3.93,3.15l5.99,24.01c.43,1.74-.62,3.15-2.36,3.15Z"/><path class="g" d="M686.31,967.38h-12.38c-1.74,0-3.5-1.41-3.93-3.15l-5.99-24.01c-.43-1.74,.62-3.15,2.36-3.15h12.38c1.74,0,3.5,1.41,3.93,3.15l5.99,24.01c.43,1.74-.62,3.15-2.36,3.15Z"/><path class="g" d="M707.34,967.38h-12.38c-1.74,0-3.5-1.41-3.93-3.15l-5.99-24.01c-.43-1.74,.62-3.15,2.36-3.15h12.38c1.74,0,3.5,1.41,3.93,3.15l5.99,24.01c.43,1.74-.62,3.15-2.36,3.15Z"/><g><path class="g" d="M640.4,967.38h-41.93c-2.91,0-5.87-2.36-6.59-5.28l-4.92-19.75c-.73-2.91,1.05-5.28,3.96-5.28h41.93c2.91,0,5.87,2.36,6.59,5.28l4.92,19.75c.73,2.91-1.05,5.28-3.96,5.28Z"/><path class="av" d="M632.32,944.66h-39.17c-.66,0-1.34-.54-1.5-1.2h0c-.16-.66,.24-1.2,.9-1.2h39.17c.66,0,1.34,.54,1.5,1.2h0c.16,.66-.24,1.2-.9,1.2Z"/><path class="av" d="M633.47,949.28h-39.17c-.66,0-1.34-.54-1.5-1.2h0c-.17-.66,.24-1.2,.9-1.2h39.17c.66,0,1.34,.54,1.5,1.2h0c.16,.66-.24,1.2-.9,1.2Z"/><path class="av" d="M634.62,953.9h-39.17c-.66,0-1.34-.54-1.5-1.2h0c-.16-.66,.24-1.2,.9-1.2h39.17c.66,0,1.34,.54,1.5,1.2h0c.16,.66-.24,1.2-.9,1.2Z"/><path class="av" d="M605.98,959.07h-9.24c-.66,0-1.34-.54-1.5-1.2h0c-.16-.66,.24-1.2,.9-1.2h9.24c.66,0,1.34,.54,1.5,1.2h0c.16,.66-.24,1.2-.9,1.2Z"/></g></g></g></g><g><path class="au" d="M780.27,1092.67s-22.14,10.98-23.44,22.92c-1.3,11.94,3.46,84.09,3.46,84.09,0,0,23.23,4.39,27.33,.12,0,0,5.78-77.24,4.76-80.73-1.02-3.48,63.74-22.54,69.49-22.42s-81.59-3.98-81.59-3.98h-.01Z"/><path class="au" d="M785.91,1199.36s-1.35,21.8-5.57,22.11c-.56,.04-21.39,.04-21.39,.04l-26.59-.15s.17-6.41,7.95-7.76c7.77-1.35,20.78-6.82,25.49-17.09,4.95-10.81,20.11,2.85,20.11,2.85Z"/></g><g><path class="au" d="M711.29,1199.36s-1.35,21.8-5.57,22.11c-.56,.04-21.39,.04-21.39,.04l-26.59-.15s.17-6.41,7.95-7.76c7.77-1.35,20.78-6.82,25.49-17.09,4.95-10.81,20.11,2.85,20.11,2.85h0Z"/><path class="p" d="M873.48,1053.85l-.45,.13c-.51-2.14-1.81-3.93-4.08-5.22-16.42-9.29-47.66-2.96-47.66-2.96,0,0-100.82,16.38-110.16,29.65s-23.89,126.33-23.89,126.33c0,0,17.63,4.6,24.92,1.87,0,0,34.74-89.58,37.56-99.27,2.44-8.4,50.37-2.27,74.55-3.97,14.5-.46,37.18-1.49,43.34-3.64,9.27-3.23,5.86-42.92,5.86-42.92h.01Z"/></g><g><path class="ad" d="M837.75,932.72l-8.38,10.43-15.85,.78c-.16-1.51-.71-8.08-1.17-13.69-.38-4.58-.69-8.51-.69-8.51l16.75-14.66c.01,.09,.87,4.96,1,5.67,2.26,12.61,8.36,19.98,8.36,19.98h-.02Z"/><path class="ai" d="M809.93,928.84c.35-.13,21.43-5.17,23.65-4.31s3.33,5.3,3.33,5.3l-34.36,5.91s2.96-5.3,7.39-6.9h-.01Z"/><path class="ad" d="M807.21,923.23s22.48,1.03,22.9-12.98,3.61-23.31-10.72-24.55c-14.33-1.25-17.28,4.01-18.56,8.65s.55,28.25,6.38,28.88Z"/><path class="au" d="M801.31,892.88s5.3,14.78,8.25,13.3c2.96-1.48,5.66-2.71,6.4,1.97,.74,4.68-2.22,11.08,7.64,9.36,9.85-1.72,17.19-30.22,13.3-34.24-11.21-11.58-50.99-4.06-35.59,9.61h0Z"/><path class="k" d="M873.48,1053.85c-5.67,6.7-53.92,4.95-68.06-.7-1.06-.42-1.91-.87-2.49-1.34-8.31-6.65,10.45-12.49-10.53-63.18-.01-.03-.02-.05-.03-.07-15.04-36.43,.91-48.23,10.98-54.07,0,0,28.75-8.84,44.82-3.86,20.88,6.46,31.4,116.01,25.31,123.22h0Z"/><path class="ai" d="M822.74,1028.97c-.95,6.9-6.51,23.93-17.32,24.17-1.06-.42-1.91-.87-2.49-1.34-8.31-6.65,10.45-12.49-10.53-63.18-.01-.03-.02-.05-.03-.07,3.51-2.41,9.19-5.14,12.88-.96,5.67,6.4,18.47,34.23,17.49,41.38h0Z"/><path class="ad" d="M720.6,1028.88s-9.06-5.24-11.98-5.67-16.78,11.34-14.74,12.25c2.04,.91,12.52-3.52,14.03-2.6,1.52,.92,2.69,3.45,4.34,3.48s7.24,.03,7.24,.03l1.1-7.48h0Z"/><path class="k" d="M803.35,934.48s-19.83,10.35-22.43,20.1-12.13,57-15.79,60.31-45.8,11-45.8,11c0,0-4.94,5.48-3.39,10.47h65.86s29.68-42.92,27.58-59.12c-2.11-16.2-6.02-42.75-6.02-42.75h-.01Z"/></g><g><path class="ax" d="M890.55,1098.35h-136.81s3.19-11.79,82.42-10.04c56.07,1.24,54.39,10.04,54.39,10.04Z"/><path class="aq" d="M901.69,1221.51c-15.86-73.45-11.78-118.51-11.76-119.08,.04-1.13-2.24-2.16-3.46-2.19-1.24-.02-6.72-.33-7.35,.63-.83,1.27-4.02,56.8,19.62,120.64h2.95Z"/><path class="aq" d="M773.95,1221.51c15.86-73.45,11.78-118.51,11.76-119.08-.04-1.13,2.24-2.16,3.46-2.19,1.24-.02,6.72-.33,7.35,.63,.83,1.27,4.02,56.8-19.62,120.64h-2.95Z"/><path class="x" d="M748.63,1221.51c15.86-73.45,11.78-118.51,11.76-119.08-.04-1.13,2.24-2.16,3.46-2.19,1.24-.02,6.72-.33,7.35,.63,.83,1.27,4.02,56.8-19.62,120.64h-2.95Z"/><path class="x" d="M876.2,1221.51c-15.86-73.45-11.78-118.51-11.76-119.08,.04-1.13-2.24-2.16-3.46-2.19-1.24-.02-6.72-.33-7.35,.63-.83,1.27-4.02,56.8,19.62,120.64h2.95Z"/><path class="aq" d="M890.59,1102.11h-137.06c-1.48,0-2.68-1.2-2.68-2.68v-1.45c0-1.48,1.2-2.68,2.68-2.68h137.06c1.48,0,2.68,1.2,2.68,2.68v1.45c0,1.48-1.2,2.68-2.68,2.68Z"/><path class="aq" d="M853.22,1062.96c1.01-22.71,3.19-42.47,5.79-56.25,4.15-21.96,7.89-34.6,7.94-34.73,.55-1.93,8.45-9.75,26.02-9.51s15.9,10.49,15.9,10.49h0c0,.35-.05,.67-.13,.91-.17,.53-16.3,54.02-15.6,123.08,0,.97,.13,2.65,.05,3.76,0,0-40.72,.96-40.73,0-1.42-6.04-.73-22.76,.75-37.75h0Z"/></g><path class="p" d="M691.68,1036.36s10.99-8.52,16.49-5.84,6.8,5.84,6.8,5.84h-23.29Z"/><path class="ar" d="M346.06,1030.56s10.44-2.38,13.74-1.37,10.6,7.15,8.83,7.16c-1.77,.01-8.83-3.31-9.93-2.67s-6.05,3.21-9.25,1.92c-3.21-1.28-3.39-5.04-3.39-5.04Z"/><path class="ak" d="M300.37,956.47s-10.24,27.05-11.47,41.93c-1.93,23.27-1.83,37.81-1.83,37.81,0,0,6.6,.28,23.45,0,16.84-.28,36.6,0,36.6,0,0,0,5.07-4.91-1.84-8.67-6.91-3.76-35.97-10.65-35.24-13.55,.72-2.91,10.75-43.3,10.75-43.3l-20.41-14.22h-.01Z"/><path class="p" d="M351.01,1036.36s6.18-4.33,10.51-3.23,7.11,3.22,7.11,3.22h-17.62Z"/></g><g><path class="a`" d="M2300.28,1061.46h-171.78c-5.44,0-9.88-4.45-9.88-9.88h0c0-5.44,4.45-9.88,9.88-9.88h171.78c5.44,0,9.88,4.45,9.88,9.88h0c0,5.44-4.45,9.88-9.88,9.88Z"/><g><path class="y" d="M2186.12,1061.39l-5.44,21.25h0l-15.03,58.7-13.44,52.47c-.2,.79-1.23,1.38-2.43,1.38-1.06,0-1.88-.62-1.74-1.33l11.59-59.48,12.39-63.62,1.87-9.6,12.23,.24h0Z"/><path class="x" d="M2180.68,1082.64c.71-9.13-8.66-11.89-8.66-11.89l1.87-9.6,12.23,.24-5.44,21.25h0Z"/></g><g><path class="y" d="M2249.43,1061.39l5.44,21.25h0l15.03,58.7,13.44,52.47c.2,.79,1.23,1.38,2.43,1.38,1.06,0,1.88-.62,1.74-1.33l-11.59-59.48-12.39-63.62-1.87-9.6-12.23,.24h0Z"/><path class="x" d="M2254.87,1082.64c-.71-9.13,8.66-11.89,8.66-11.89l-1.87-9.6-12.23,.24,5.44,21.25h0Z"/></g></g><path class="n" d="M2273.22,1195.13s-38.89-33.18-5.18-96.2c33.71-63.02,151.69-81.03,176.61-128.46l-7.33,236.91-164.1-12.25h0Z"/><path class="j" d="M2767,675.95v417.01c0,70.57-57.73,128.3-128.3,128.3h-810.78c-29.55,0-56.84-10.12-78.58-27.07h570.45c60.28,0,109.59-49.31,109.59-109.59v-394.19c0-60.28-49.31-109.59-109.59-109.59,0,0-466.48-1.79-554.45,0-35.91,.74-52.74,44.09-52.74,44.09,6.57-54.72,82.4-77.25,115.33-77.25h810.78c70.57,0,128.3,57.73,128.3,128.3h-.01Z"/><g><polygon class="ac" points="2278.18 1011.64 2277.86 1019.05 2277.18 1034.55 2276.87 1041.69 2257.2 1041.69 2256.75 1034.55 2255.78 1019.05 2255.32 1011.64 2278.18 1011.64"/><polygon class="ag" points="2278.56 1006.63 2255.25 1006.63 2254.29 1011.64 2279.21 1011.64 2278.56 1006.63"/><polygon class="v" points="2277.86 1019.05 2277.18 1034.55 2256.75 1034.55 2255.78 1019.05 2277.86 1019.05"/></g><g><path class="v" d="M2178.66,1013.76l-.13,3.05-.1,2.24-.62,14.28-.05,1.22-.31,7.14h-19.68l-.45-7.14-.08-1.22-.89-14.28-.14-2.24-.25-4.05,.05-.12s4.59-.83,7.34,.92,5.76-1.67,8.26-.67,2.67,2.25,4.68,1.42c.6-.25,1.45-.43,2.37-.55h0Z"/><polygon class="w" points="2178.75 1011.64 2178.66 1013.76 2178.53 1016.81 2178.43 1019.05 2177.81 1033.33 2177.75 1034.55 2177.44 1041.69 2157.77 1041.69 2157.32 1034.55 2157.25 1033.33 2156.35 1019.05 2156.21 1016.81 2155.96 1012.76 2155.89 1011.64 2178.75 1011.64"/><path class="w" d="M2178.87,1011.63v-.35c0-6.32-5.13-11.45-11.45-11.45s-11.45,5.13-11.45,11.45v.35h22.9Z"/><path class="ac" d="M2165.45,1039.88l-1-.12c.06-.63,3.26-42.99,3.76-45.82,.55-3.11,3.56-4.03,3.69-4.06h.05l16.02-2.85,.18,.99-15.99,2.83c-.27,.09-2.54,.88-2.96,3.27-.49,2.79-3.73,45.62-3.75,45.77h0Z"/><polygon class="ac" points="2178.53 1016.81 2178.43 1019.05 2177.81 1033.33 2157.25 1033.33 2156.35 1019.05 2156.21 1016.81 2178.53 1016.81"/></g><path class="m" d="M2767,1059.22v33.74c0,70.57-57.73,128.3-128.3,128.3h-810.78c-29.55,0-55.11-10.15-76.85-27.1l568.72,.02c38.3,0,72.16-19.9,91.76-49.87,137.03,7.73,288.31-53.81,355.46-85.09h-.01Z"/><g><g><path d="M2616.96,1129.41s-14.7-17.14-.91-28.03c0,0,10.07-6.1,18.29-5.6,0,0-11.64,19.51-7.87,21.45,3.76,1.94,11.4-22.68,11.4-22.68,0,0,22.92-2.22,30.29,1.32,0,0-19.59,16.04-15.47,16.99,4.13,.96,25.29-14.78,25.29-14.78,0,0,21.33,3.63,20.19,16.64-1.14,13.01-8.49,17.03-11.72,16.69-3.23-.35-22.13-7.56-22.54-4.91-.41,2.65,10.96,11.3,18.93,11.7,0,0-15.04,16.59-25.04,11.8-10-4.79-10.85-12.38-17.08-15.22-6.23-2.85-11.55-2.84-8.98,.06s13.85,5.72,17.41,12.03c3.56,6.3,6.76,10.55-3.58,9-10.34-1.56-27.15-9.12-27.89-17.79l-.74-8.66h.02Z"/><g><path d="M2687.69,1115.07s-57.94-2.23-70.74,14.34c0,0-2.83,8.47-11.54,16.19l-1.36,3.7s10.04-10.59,13.63-11.23c0,0-5.62-20.53,70-23h.01Z"/><path d="M2605.42,1145.6s-12.44,9.2-13.3,25.63l2.26,.2s3.97-16.99,11.15-23.64c7.18-6.64-.11-2.2-.11-2.2h0Z"/></g></g><g><path class="r" d="M2565.58,1107.85s23.38-13.09,12.47-30.86c0,0-8.73-10.91-18.08-13.71,0,0,4.99,26.49,0,27.12-4.99,.62-3.43-29.92-3.43-29.92,0,0-24.62-11.84-34.29-10.91,0,0,15.27,25.87,10.29,25.25-4.99-.62-22.13-26.8-22.13-26.8,0,0-25.25-4.67-29.3,10.29-4.05,14.96,2.49,22.44,6.23,23.38,3.74,.93,27.74,.62,27.12,3.74-.62,3.12-16.83,8.1-25.87,5.3,0,0,9.97,24.62,23.06,23.38,13.09-1.25,17.14-9.35,25.25-9.97,8.1-.62,14.03,1.56,9.97,3.74-4.05,2.18-17.77,.71-24.31,6.28-6.55,5.56-11.84,8.99,.31,11.49,12.16,2.49,33.97,.94,38.34-8.42l4.36-9.35v-.03h0Z"/><g><path d="M2492.65,1062.97s65.45,21.19,72.93,44.88c0,0-.31,10.6,6.23,22.75v4.67s-6.86-15.9-10.6-18.08c0,0,14.65-20.57-68.57-54.23h.01Z"/><path d="M2571.81,1130.6s10.09,15.33,4.34,33.99l-2.6-.7s2.52-20.55-2.76-30.89,1.02-2.4,1.02-2.4Z"/></g></g><g><path class="r" d="M2602.77,1089.79s-30.81-17.25-16.43-40.67c0,0,11.5-14.38,23.83-18.08,0,0-6.57,34.92,0,35.74s4.52-39.44,4.52-39.44c0,0,32.46-15.61,45.19-14.38,0,0-20.13,34.1-13.56,33.28,6.57-.82,29.17-35.33,29.17-35.33,0,0,33.28-6.16,38.62,13.56,5.34,19.72-3.29,29.58-8.22,30.81-4.93,1.23-36.57,.82-35.74,4.93,.82,4.11,22.19,10.68,34.1,6.98,0,0-13.15,32.46-30.4,30.81-17.26-1.64-22.6-12.33-33.28-13.15-10.68-.82-18.49,2.05-13.15,4.93s23.42,.94,32.05,8.28c8.63,7.33,15.61,11.85-.41,15.14s-44.78,1.23-50.54-11.09l-5.75-12.33h0Z"/><g><path d="M2698.91,1030.63s-86.28,27.94-96.14,59.16c0,0,.41,13.97-8.22,29.99v6.16s9.04-20.95,13.97-23.83c0,0-19.31-27.12,90.39-71.49h0Z"/><path d="M2594.55,1119.79s-13.31,20.21-5.72,44.8l3.42-.92s-3.32-27.09,3.64-40.71-1.34-3.17-1.34-3.17h0Z"/></g></g><path class="u" d="M2601.73,1217.92c33.33,0,60.36-27.02,60.36-60.36h-120.72c0,33.34,27.02,60.36,60.36,60.36h0Z"/><path class="ah" d="M2616.58,1217.46c-2.46,.31-4.96,.46-7.5,.46-33.34,0-60.36-27.02-60.36-60.36h15c0,30.8,23.06,56.21,52.86,59.9Z"/><path class="u" d="M2662.92,1220.99h-122.38c0-4.11,3.33-7.45,7.45-7.45h107.49c4.11,0,7.45,3.33,7.45,7.45h-.01Z"/><rect class="an" x="2539.39" y="1157.56" width="124.08" height="1.85"/></g><path class="aa" d="M3.13,1221.26H2759.1c1.73,0,3.13,1.4,3.13,3.13v1.07c0,1.73-1.4,3.13-3.13,3.13H3.13c-1.73,0-3.13-1.4-3.13-3.13v-1.07c0-1.73,1.4-3.13,3.13-3.13Z"/></g></g></g></svg>