<svg xmlns="http://www.w3.org/2000/svg" viewBox="0 0 496.76 77.71"><defs><style>.cls-1{fill:#fff;}</style></defs><g id="Layer_2" data-name="Layer 2"><g id="Layer_1-2" data-name="Layer 1"><path class="cls-1" d="M82.46,55.73a18.83,18.83,0,0,1-6.35-5.48l2.45-1.9a14.67,14.67,0,0,0,5.38,5,16.27,16.27,0,0,0,7.77,1.72c3.14,0,5.55-.74,7.25-2.22a7.37,7.37,0,0,0,2.55-5.83,5.23,5.23,0,0,0-1-3.27,7.32,7.32,0,0,0-2.6-2.08,18.27,18.27,0,0,0-3.75-1.3l-4.43-1c-1.43-.3-2.84-.64-4.22-1a14.14,14.14,0,0,1-3.73-1.6,8.18,8.18,0,0,1-2.65-2.65,7.84,7.84,0,0,1-1-4.13A9,9,0,0,1,79,26.18a8.86,8.86,0,0,1,2.4-3.1A11.55,11.55,0,0,1,85.16,21a15.5,15.5,0,0,1,5-.75,16,16,0,0,1,8.1,1.88,17.5,17.5,0,0,1,5.4,4.77l-2.3,1.75a12.68,12.68,0,0,0-4.47-4.3,13.48,13.48,0,0,0-6.73-1.55q-4.65,0-6.9,2A6.48,6.48,0,0,0,81,29.9,5.32,5.32,0,0,0,81.79,33a5.8,5.8,0,0,0,2.12,1.88A13.72,13.72,0,0,0,87.11,36c1.24.3,2.59.62,4,1s3,.67,4.55,1.1A18.9,18.9,0,0,1,100,39.8a10.05,10.05,0,0,1,3.17,2.83A7.22,7.22,0,0,1,104.41,47a9.5,9.5,0,0,1-.92,4.15,10.55,10.55,0,0,1-2.6,3.43,12.41,12.41,0,0,1-4,2.32,14.93,14.93,0,0,1-5.18.85A19.48,19.48,0,0,1,82.46,55.73Z"/><path class="cls-1" d="M117.14,56.75a12.63,12.63,0,0,1-4.45-2.92,13.25,13.25,0,0,1-2.83-4.4,15,15,0,0,1-1-5.53,14.84,14.84,0,0,1,1-5.6,13.53,13.53,0,0,1,3-4.5,14.3,14.3,0,0,1,4.5-3,14.59,14.59,0,0,1,5.7-1.1,13.93,13.93,0,0,1,5.4,1,12.79,12.79,0,0,1,7.18,7.2,14.58,14.58,0,0,1,1,5.52V44.9h-25a11.18,11.18,0,0,0,1,4.13,10.6,10.6,0,0,0,2.4,3.25,11,11,0,0,0,3.53,2.15,12.18,12.18,0,0,0,4.42.77,11.73,11.73,0,0,0,6.15-1.5,11.18,11.18,0,0,0,4.1-4.5l2.55,1.4a16,16,0,0,1-5.25,5.4,14.36,14.36,0,0,1-7.5,1.8A15.81,15.81,0,0,1,117.14,56.75Zm1.72-23.7a11,11,0,0,0-3.45,2.1A11.27,11.27,0,0,0,113,38.33a12.24,12.24,0,0,0-1.25,3.92h22a12.38,12.38,0,0,0-1-4,9.74,9.74,0,0,0-2.23-3.15,9.85,9.85,0,0,0-3.27-2,11.24,11.24,0,0,0-4.13-.73A11.6,11.6,0,0,0,118.86,33.05Z"/><path class="cls-1" d="M144.86,17.85v39.4h-2.75V17.85Z"/><path class="cls-1" d="M154.26,17.85v39.4h-2.75V17.85Z"/><path class="cls-1" d="M167.94,56.75a12.63,12.63,0,0,1-4.45-2.92,13.25,13.25,0,0,1-2.83-4.4,15.62,15.62,0,0,1,.05-11.13,13.38,13.38,0,0,1,2.95-4.5,14.3,14.3,0,0,1,4.5-3,14.52,14.52,0,0,1,5.7-1.1,14,14,0,0,1,5.4,1,13,13,0,0,1,4.33,2.85,13.14,13.14,0,0,1,2.85,4.35,14.58,14.58,0,0,1,1,5.52V44.9H162.41A11.18,11.18,0,0,0,163.46,49a10.6,10.6,0,0,0,2.4,3.25,11,11,0,0,0,3.53,2.15,12.18,12.18,0,0,0,4.42.77A11.75,11.75,0,0,0,180,53.7a11.18,11.18,0,0,0,4.1-4.5l2.55,1.4a16,16,0,0,1-5.25,5.4,14.36,14.36,0,0,1-7.5,1.8A15.81,15.81,0,0,1,167.94,56.75Zm1.72-23.7a11,11,0,0,0-5.9,5.28,12.24,12.24,0,0,0-1.25,3.92h22a12.38,12.38,0,0,0-1-4,9.74,9.74,0,0,0-2.23-3.15A9.85,9.85,0,0,0,178,33a11.24,11.24,0,0,0-4.13-.73A11.6,11.6,0,0,0,169.66,33.05Z"/><path class="cls-1" d="M195.41,30.25v5.4a8,8,0,0,1,2.88-4.32,8.6,8.6,0,0,1,5.22-1.48,8.94,8.94,0,0,1,4.45.95l-1.35,2.6a5,5,0,0,0-1.35-.65,6.42,6.42,0,0,0-1.85-.25A7,7,0,0,0,197.54,35q-2,2.52-2,7.82v14.4h-2.75v-27Z"/><path class="cls-1" d="M214.06,56.28a15.72,15.72,0,0,1-4.85-3.78l2.25-2a13.44,13.44,0,0,0,4,3.43,12.29,12.29,0,0,0,6.1,1.37,8.48,8.48,0,0,0,5.53-1.55A5,5,0,0,0,229,49.6a3.41,3.41,0,0,0-.7-2.22,5,5,0,0,0-1.87-1.4,14.06,14.06,0,0,0-2.7-.85c-1-.22-2.06-.43-3.13-.63s-2.38-.44-3.55-.72a13,13,0,0,1-3.15-1.18,6.22,6.22,0,0,1-2.25-2,5.62,5.62,0,0,1-.85-3.25,7.45,7.45,0,0,1,.6-3,6.8,6.8,0,0,1,1.8-2.45,8.84,8.84,0,0,1,3-1.67,13,13,0,0,1,4.23-.63,14.19,14.19,0,0,1,6.33,1.28,15.92,15.92,0,0,1,4.47,3.27l-2.2,2a11.58,11.58,0,0,0-3.5-2.9,10.56,10.56,0,0,0-5.1-1.15q-3.71,0-5.23,1.43a4.88,4.88,0,0,0-1.52,3.72,3,3,0,0,0,.7,2.1,5.31,5.31,0,0,0,1.85,1.33,12.15,12.15,0,0,0,2.65.82l3.1.6c1.2.2,2.39.45,3.58.73a12,12,0,0,1,3.17,1.22A7,7,0,0,1,231,46.2a6,6,0,0,1,.87,3.4,7.68,7.68,0,0,1-.67,3.2,7.25,7.25,0,0,1-2,2.6A9.63,9.63,0,0,1,226,57.15a13.68,13.68,0,0,1-4.43.65A16.36,16.36,0,0,1,214.06,56.28Z"/><path class="cls-1" d="M245.93,56.28a18.09,18.09,0,0,1-5.9-4,18.32,18.32,0,0,1-3.85-6,19.39,19.39,0,0,1-1.37-7.3,19.12,19.12,0,0,1,1.42-7.42,18.08,18.08,0,0,1,9.88-9.9,19,19,0,0,1,7.4-1.43,19.54,19.54,0,0,1,5,.65,19,19,0,0,1,4.5,1.85,18.55,18.55,0,0,1,3.77,2.88,18,18,0,0,1,2.9,3.72l-6.2,3.9a11.28,11.28,0,0,0-4-4.47,10.78,10.78,0,0,0-6-1.63,11.45,11.45,0,0,0-8.3,3.45,11.8,11.8,0,0,0-2.43,3.78A12.32,12.32,0,0,0,242,39a12.18,12.18,0,0,0,.85,4.55,11.27,11.27,0,0,0,2.4,3.75,11.43,11.43,0,0,0,3.65,2.53,11.22,11.22,0,0,0,4.6.92,10.71,10.71,0,0,0,6.38-1.87,11.86,11.86,0,0,0,4-4.88l6.45,3.45a19,19,0,0,1-2.85,4.2,18.19,18.19,0,0,1-3.82,3.25,18.38,18.38,0,0,1-4.68,2.1,20.08,20.08,0,0,1-13-.72Z"/><path class="cls-1" d="M280.06,56.7a14.06,14.06,0,0,1-4.52-3,13.86,13.86,0,0,1-4.08-9.93,14.19,14.19,0,0,1,1.07-5.47,13.55,13.55,0,0,1,3-4.48,14.61,14.61,0,0,1,20.35,0,14,14,0,0,1,4.12,10,13.64,13.64,0,0,1-1.1,5.45,14.33,14.33,0,0,1-3,4.48,13.74,13.74,0,0,1-4.52,3,14.45,14.45,0,0,1-5.68,1.1A14.23,14.23,0,0,1,280.06,56.7Zm8.6-6.05a7.71,7.71,0,0,0,2.35-1.6,7.24,7.24,0,0,0,1.58-2.37,8,8,0,0,0,0-5.93,7.37,7.37,0,0,0-1.58-2.4,7.89,7.89,0,0,0-2.35-1.6,7.31,7.31,0,0,0-5.8,0,7.89,7.89,0,0,0-2.35,1.6,7.37,7.37,0,0,0-1.58,2.4,8,8,0,0,0,0,5.93,7.24,7.24,0,0,0,1.58,2.37,7.71,7.71,0,0,0,2.35,1.6,7.31,7.31,0,0,0,5.8,0Z"/><path class="cls-1" d="M309.71,30.25v3.2a9,9,0,0,1,3.15-2.75,9.3,9.3,0,0,1,4.35-1,10.07,10.07,0,0,1,5.1,1.18,7.79,7.79,0,0,1,3.15,3.37,9.48,9.48,0,0,1,3.48-3.32,9.9,9.9,0,0,1,5-1.23q5.14,0,7.73,2.93t2.57,8v16.6h-7.1V41.65a7.1,7.1,0,0,0-1.17-4.32,4.48,4.48,0,0,0-3.83-1.58,4.76,4.76,0,0,0-3.75,1.58A7,7,0,0,0,327,42.1V57.25h-7V41.45a6.74,6.74,0,0,0-1.15-4.2,4.37,4.37,0,0,0-3.7-1.5,4.93,4.93,0,0,0-3.87,1.6,7.2,7.2,0,0,0-1.43,4.9v15h-6.95v-27Z"/><path class="cls-1" d="M354.66,30.25v3.2a9,9,0,0,1,3.15-2.75,9.3,9.3,0,0,1,4.35-1,10.07,10.07,0,0,1,5.1,1.18,7.79,7.79,0,0,1,3.15,3.37,9.48,9.48,0,0,1,3.48-3.32,9.9,9.9,0,0,1,5-1.23q5.14,0,7.73,2.93t2.57,8v16.6h-7.1V41.65a7.1,7.1,0,0,0-1.17-4.32,4.48,4.48,0,0,0-3.83-1.58,4.76,4.76,0,0,0-3.75,1.58,7,7,0,0,0-1.4,4.77V57.25h-7.05V41.45a6.74,6.74,0,0,0-1.15-4.2,4.37,4.37,0,0,0-3.7-1.5,5,5,0,0,0-3.88,1.6,7.2,7.2,0,0,0-1.42,4.9v15h-6.95v-27Z"/><path class="cls-1" d="M400.26,56.73a13.29,13.29,0,0,1-4.53-3,12.87,12.87,0,0,1-2.87-4.45,14.85,14.85,0,0,1-1-5.5,14.33,14.33,0,0,1,1.07-5.52,13.78,13.78,0,0,1,3-4.48,14.08,14.08,0,0,1,4.5-3,14.27,14.27,0,0,1,5.6-1.1,14.58,14.58,0,0,1,5.6,1.05,13.44,13.44,0,0,1,4.4,2.88,13,13,0,0,1,2.9,4.37,14.44,14.44,0,0,1,1,5.55v2.6H398.51a7.39,7.39,0,0,0,2.72,4.18,8.11,8.11,0,0,0,5,1.52,7.84,7.84,0,0,0,4.05-1A7.58,7.58,0,0,0,413,48.25l5.65,3.3a15.83,15.83,0,0,1-5,4.55,14.69,14.69,0,0,1-7.45,1.7A15.5,15.5,0,0,1,400.26,56.73ZM401.46,37a7.86,7.86,0,0,0-2.75,3.8h14.4a6.79,6.79,0,0,0-2.55-3.87A7.56,7.56,0,0,0,406,35.55,7.48,7.48,0,0,0,401.46,37Z"/><path class="cls-1" d="M429.51,30.25V34.4a7,7,0,0,1,2.92-3.52A8.85,8.85,0,0,1,437,29.75a10.12,10.12,0,0,1,2.52.3,9.18,9.18,0,0,1,2,.75L439,37.6a5,5,0,0,0-1.5-.67,7.26,7.26,0,0,0-2.1-.28,6,6,0,0,0-4.25,1.48c-1.07,1-1.6,2.61-1.6,4.87V57.25h-6.85v-27Z"/><path class="cls-1" d="M448.76,56.7a13.79,13.79,0,0,1-7.48-7.45,14.12,14.12,0,0,1-1.07-5.5,14.26,14.26,0,0,1,1.07-5.55,13.76,13.76,0,0,1,3-4.45,14.21,14.21,0,0,1,10.08-4.05,15,15,0,0,1,4.4.63,13.68,13.68,0,0,1,3.72,1.75,13.28,13.28,0,0,1,2.95,2.7,14.34,14.34,0,0,1,2.08,3.47l-6.35,2.55a7.27,7.27,0,0,0-2.6-3.42,7,7,0,0,0-4.1-1.23,7,7,0,0,0-2.9.6,7.5,7.5,0,0,0-3.93,4,7.79,7.79,0,0,0-.57,3,7.35,7.35,0,0,0,.57,2.9,7.61,7.61,0,0,0,1.6,2.38,8,8,0,0,0,2.38,1.62,7,7,0,0,0,2.9.6,6.62,6.62,0,0,0,4.12-1.3,7.85,7.85,0,0,0,2.58-3.4l6.45,2.65a15.83,15.83,0,0,1-5.08,6.18,13.45,13.45,0,0,1-8.17,2.42A14.2,14.2,0,0,1,448.76,56.7Z"/><path class="cls-1" d="M477.06,56.73a13.29,13.29,0,0,1-4.53-3,12.87,12.87,0,0,1-2.87-4.45,14.85,14.85,0,0,1-1-5.5,14.33,14.33,0,0,1,1.07-5.52,13.78,13.78,0,0,1,3-4.48,14.08,14.08,0,0,1,4.5-3,14.27,14.27,0,0,1,5.6-1.1,14.58,14.58,0,0,1,5.6,1.05,13.44,13.44,0,0,1,4.4,2.88,13,13,0,0,1,2.9,4.37,14.44,14.44,0,0,1,1.05,5.55v2.6H475.31A7.39,7.39,0,0,0,478,50.33a8.11,8.11,0,0,0,5,1.52,7.84,7.84,0,0,0,4.05-1,7.58,7.58,0,0,0,2.65-2.63l5.65,3.3a15.83,15.83,0,0,1-5,4.55A14.69,14.69,0,0,1,483,57.8,15.5,15.5,0,0,1,477.06,56.73ZM478.26,37a7.86,7.86,0,0,0-2.75,3.8h14.4a6.79,6.79,0,0,0-2.55-3.87,7.58,7.58,0,0,0-4.55-1.33A7.48,7.48,0,0,0,478.26,37Z"/><path class="cls-1" d="M59.87,17.84V0A38.83,38.83,0,0,0,21,38.34a4.43,4.43,0,0,0,0,.51,4.52,4.52,0,0,0,0,.52A38.83,38.83,0,0,0,59.87,77.71V59.87a21,21,0,1,1,0-42Z"/><path class="cls-1" d="M59.84,0V17.84a21,21,0,0,0-21,21,38.72,38.72,0,0,1-8.92,24.77A38.77,38.77,0,0,1,21,71.54,38.57,38.57,0,0,1,0,77.71V59.87a21,21,0,0,0,21-20,4.52,4.52,0,0,0,0-.53v-1A38.83,38.83,0,0,1,59.84,0Z"/></g></g></svg>